<svg width="307" height="140" viewBox="0 0 307 140" fill="none" xmlns="http://www.w3.org/2000/svg">
<rect width="307" height="140" fill="white" fill-opacity="0.1"/>
<path d="M26.248 39.456L22.664 34.976V45H18.072V25.96H21.18L27.144 33.744C28.0587 32.456 28.964 31.1587 29.86 29.852C30.7747 28.5453 31.6893 27.248 32.604 25.96H35.6V45H30.98V35.2C30.5133 35.872 30.028 36.544 29.524 37.216C29.0387 37.8693 28.5533 38.532 28.068 39.204C27.7693 39.2227 27.4613 39.26 27.144 39.316C26.8453 39.372 26.5467 39.4187 26.248 39.456ZM46.1389 30.972C48.3976 30.972 50.2083 31.6067 51.5709 32.876C52.9523 34.1453 53.6429 35.9467 53.6429 38.28C53.6429 40.52 52.9149 42.256 51.4589 43.488C50.0029 44.7013 48.1829 45.308 45.9989 45.308C43.8336 45.308 42.0696 44.7013 40.7069 43.488C39.3443 42.2747 38.6629 40.492 38.6629 38.14C38.6629 35.9 39.3723 34.1453 40.7909 32.876C42.2096 31.6067 43.9923 30.972 46.1389 30.972ZM46.0549 41.528C46.9323 41.528 47.6229 41.2667 48.1269 40.744C48.6309 40.2027 48.8829 39.3813 48.8829 38.28C48.8829 37.2533 48.6496 36.4133 48.1829 35.76C47.7349 35.1067 47.0816 34.78 46.2229 34.78C45.3269 34.78 44.6363 35.0693 44.1509 35.648C43.6656 36.2267 43.4229 37.0573 43.4229 38.14C43.4229 39.204 43.6469 40.0347 44.0949 40.632C44.5429 41.2293 45.1963 41.528 46.0549 41.528ZM61.218 45.532C59.3327 45.532 57.998 44.9907 57.214 43.908C56.43 42.8253 56.038 41.4813 56.038 39.876V31.448H60.658V39.764C60.658 40.3987 60.8167 40.884 61.134 41.22C61.4514 41.556 61.8994 41.724 62.478 41.724C62.8327 41.724 63.2527 41.6307 63.738 41.444C64.2234 41.2573 64.6714 41.0427 65.082 40.8V31.448H69.702V45H67.378L66.314 43.796C65.7354 44.2067 64.9887 44.5987 64.074 44.972C63.178 45.3453 62.226 45.532 61.218 45.532ZM81.7024 30.916C83.5878 30.916 84.9318 31.4573 85.7344 32.54C86.5558 33.6227 86.9664 34.9667 86.9664 36.572V45H82.3744V36.684C82.3744 36.0493 82.1971 35.564 81.8424 35.228C81.5064 34.892 81.0491 34.724 80.4704 34.724C80.0784 34.724 79.6211 34.8267 79.0984 35.032C78.5758 35.2373 78.1091 35.4613 77.6984 35.704V45H73.1064V31.448H75.4304L76.4944 32.708C77.0918 32.2787 77.8571 31.8773 78.7904 31.504C79.7424 31.112 80.7131 30.916 81.7024 30.916ZM96.9169 45.392C95.2183 45.392 93.7529 44.9533 92.5209 44.076C91.3076 43.1987 90.7009 41.892 90.7009 40.156V35.396H88.7129V31.812H90.7009V28.284L95.2929 27.612V31.812H98.2889L98.9889 35.396H95.2929V39.568C95.2929 40.184 95.4516 40.6787 95.7689 41.052C96.1049 41.4253 96.5903 41.612 97.2249 41.612C97.4676 41.612 97.7476 41.5747 98.0649 41.5C98.4009 41.4067 98.7183 41.2853 99.0169 41.136L100.333 44.3C100.016 44.5987 99.5116 44.8507 98.8209 45.056C98.1303 45.28 97.4956 45.392 96.9169 45.392ZM106.678 41.64C107.032 41.64 107.396 41.556 107.77 41.388C108.162 41.22 108.535 40.9867 108.89 40.688V39.316H106.902C106.472 39.316 106.127 39.4467 105.866 39.708C105.604 39.9507 105.474 40.2493 105.474 40.604C105.474 40.884 105.586 41.1267 105.81 41.332C106.052 41.5373 106.342 41.64 106.678 41.64ZM107.77 30.972C109.524 30.972 110.915 31.476 111.942 32.484C112.968 33.492 113.482 34.808 113.482 36.432V45H111.354L110.43 43.936C109.982 44.328 109.422 44.6547 108.75 44.916C108.078 45.1773 107.378 45.308 106.65 45.308C104.951 45.308 103.682 44.888 102.842 44.048C102.02 43.208 101.61 42.1067 101.61 40.744C101.61 39.288 102.095 38.2147 103.066 37.524C104.036 36.8147 105.306 36.46 106.874 36.46H108.862C108.806 35.956 108.6 35.564 108.246 35.284C107.91 35.004 107.48 34.864 106.958 34.864C106.435 34.864 105.828 34.948 105.138 35.116C104.466 35.284 103.878 35.48 103.374 35.704L102.142 32.26C102.795 31.924 103.654 31.6253 104.718 31.364C105.8 31.1027 106.818 30.972 107.77 30.972ZM121.481 27.052C121.481 27.7427 121.229 28.3307 120.725 28.816C120.221 29.3013 119.624 29.544 118.933 29.544C118.242 29.544 117.654 29.3013 117.169 28.816C116.684 28.3307 116.441 27.7427 116.441 27.052C116.441 26.3613 116.684 25.764 117.169 25.26C117.654 24.756 118.242 24.504 118.933 24.504C119.624 24.504 120.221 24.756 120.725 25.26C121.229 25.764 121.481 26.3613 121.481 27.052ZM121.257 31.42V45H116.637V31.42H121.257ZM133.273 30.916C135.158 30.916 136.502 31.4573 137.305 32.54C138.126 33.6227 138.537 34.9667 138.537 36.572V45H133.945V36.684C133.945 36.0493 133.767 35.564 133.413 35.228C133.077 34.892 132.619 34.724 132.041 34.724C131.649 34.724 131.191 34.8267 130.669 35.032C130.146 35.2373 129.679 35.4613 129.269 35.704V45H124.677V31.448H127.001L128.065 32.708C128.662 32.2787 129.427 31.8773 130.361 31.504C131.313 31.112 132.283 30.916 133.273 30.916ZM159.004 37.524H152.984V45H148.392V25.96H160.208C160.302 26.5573 160.386 27.164 160.46 27.78C160.554 28.396 160.638 29.0027 160.712 29.6H152.984V33.912H158.5L159.004 37.524ZM167.667 45.532C165.782 45.532 164.447 44.9907 163.663 43.908C162.879 42.8253 162.487 41.4813 162.487 39.876V31.448H167.107V39.764C167.107 40.3987 167.266 40.884 167.583 41.22C167.901 41.556 168.349 41.724 168.927 41.724C169.282 41.724 169.702 41.6307 170.187 41.444C170.673 41.2573 171.121 41.0427 171.531 40.8V31.448H176.151V45H173.827L172.763 43.796C172.185 44.2067 171.438 44.5987 170.523 44.972C169.627 45.3453 168.675 45.532 167.667 45.532ZM179.5 27.024C179.5 26.3333 179.742 25.7453 180.228 25.26C180.713 24.756 181.301 24.504 181.992 24.504C182.701 24.504 183.298 24.756 183.784 25.26C184.288 25.7453 184.54 26.3333 184.54 27.024C184.54 27.7147 184.288 28.312 183.784 28.816C183.298 29.3013 182.701 29.544 181.992 29.544C181.301 29.544 180.713 29.3013 180.228 28.816C179.742 28.312 179.5 27.7147 179.5 27.024ZM184.316 31.42V45.056C184.316 46.456 183.877 47.548 183 48.332C182.141 49.116 180.76 49.816 178.856 50.432L177.036 47.072C178.025 46.7173 178.716 46.316 179.108 45.868C179.518 45.4387 179.724 44.9067 179.724 44.272V31.42H184.316ZM192.602 27.052C192.602 27.7427 192.35 28.3307 191.846 28.816C191.342 29.3013 190.745 29.544 190.054 29.544C189.363 29.544 188.775 29.3013 188.29 28.816C187.805 28.3307 187.562 27.7427 187.562 27.052C187.562 26.3613 187.805 25.764 188.29 25.26C188.775 24.756 189.363 24.504 190.054 24.504C190.745 24.504 191.342 24.756 191.846 25.26C192.35 25.764 192.602 26.3613 192.602 27.052ZM192.378 31.42V45H187.758V31.42H192.378Z" fill="white"/>
<path d="M26.42 64.66H22.04V77H20.44V64.66H16.18V63.4H26.24L26.42 64.66ZM29.805 68.58C30.2183 68.14 30.7317 67.7733 31.345 67.48C31.9583 67.1733 32.545 67.02 33.105 67.02C34.225 67.02 35.045 67.3467 35.565 68C36.0983 68.64 36.365 69.4467 36.365 70.42V76.98H34.785V70.64C34.785 69.9867 34.625 69.4467 34.305 69.02C33.9983 68.5933 33.505 68.3733 32.825 68.36C32.4117 68.36 31.9117 68.5 31.325 68.78C30.7383 69.06 30.2317 69.4467 29.805 69.94V77H28.225V63.08L29.805 62.88V68.58ZM47.4764 72.4H40.4364C40.4764 73.4267 40.7497 74.28 41.2564 74.96C41.7631 75.6267 42.5631 75.96 43.6564 75.96C44.3097 75.96 44.8364 75.8933 45.2364 75.76C45.6497 75.6133 46.0431 75.4533 46.4164 75.28L46.9164 76.44C46.5031 76.72 45.9631 76.92 45.2964 77.04C44.6297 77.1733 44.0964 77.24 43.6964 77.24C42.0831 77.24 40.8631 76.7667 40.0364 75.82C39.2097 74.86 38.7964 73.6267 38.7964 72.12C38.8097 70.6533 39.2031 69.44 39.9764 68.48C40.7631 67.52 41.8764 67.04 43.3164 67.04C44.8231 67.04 45.8897 67.5733 46.5164 68.64C47.1564 69.6933 47.4764 70.9467 47.4764 72.4ZM45.9164 71.32C45.8097 70.4533 45.5497 69.7467 45.1364 69.2C44.7231 68.6533 44.0964 68.38 43.2564 68.38C42.4164 68.38 41.7631 68.6533 41.2964 69.2C40.8431 69.7467 40.5697 70.4533 40.4764 71.32H45.9164ZM62.1294 68.6C62.5427 68.16 63.0627 67.7867 63.6894 67.48C64.316 67.1733 64.916 67.02 65.4894 67.02C66.6094 67.02 67.436 67.3467 67.9694 68C68.5027 68.64 68.7694 69.4467 68.7694 70.42V76.98H67.1694V70.64C67.1694 69.9867 67.0094 69.4467 66.6894 69.02C66.3694 68.5933 65.876 68.3733 65.2094 68.36C64.7827 68.36 64.3227 68.48 63.8294 68.72C63.3494 68.96 62.896 69.3 62.4694 69.74C62.4827 69.86 62.4894 69.98 62.4894 70.1C62.5027 70.2067 62.5094 70.3133 62.5094 70.42V76.98H60.9094V70.64C60.9094 69.9867 60.7494 69.4467 60.4294 69.02C60.1227 68.5933 59.6427 68.3733 58.9894 68.36C58.5494 68.36 58.0894 68.48 57.6094 68.72C57.1294 68.9467 56.676 69.2867 56.2494 69.74V77H54.6694V67.3H55.6294L56.0894 68.4C56.516 68 57.016 67.6733 57.5894 67.42C58.1627 67.1533 58.716 67.02 59.2494 67.02C59.9694 67.02 60.5694 67.1667 61.0494 67.46C61.5427 67.74 61.9027 68.12 62.1294 68.6ZM75.4987 77.26C74.0721 77.2467 72.9988 76.76 72.2788 75.8C71.5588 74.84 71.1988 73.6067 71.1988 72.1C71.2121 70.6333 71.6054 69.4267 72.3788 68.48C73.1521 67.5333 74.2588 67.0533 75.6988 67.04C77.1654 67.04 78.2588 67.5267 78.9788 68.5C79.7121 69.4733 80.0788 70.7133 80.0788 72.22C80.0654 73.7 79.6588 74.9133 78.8588 75.86C78.0588 76.7933 76.9388 77.26 75.4987 77.26ZM78.4988 72.22C78.4988 71.1133 78.2854 70.2 77.8588 69.48C77.4454 68.76 76.7388 68.4 75.7388 68.4C74.7521 68.4 74.0188 68.7467 73.5388 69.44C73.0721 70.12 72.8321 71 72.8188 72.08C72.8188 73.2133 73.0188 74.1333 73.4188 74.84C73.8188 75.5467 74.5188 75.9 75.5188 75.9C76.5188 75.9 77.2588 75.5667 77.7388 74.9C78.2321 74.2333 78.4854 73.34 78.4988 72.22ZM88.1581 69.06C87.8381 68.9 87.4715 68.7467 87.0581 68.6C86.6448 68.4533 86.1515 68.38 85.5781 68.38C84.9915 68.38 84.5181 68.5 84.1581 68.74C83.8115 68.98 83.6381 69.3067 83.6381 69.72C83.6381 70.0933 83.8381 70.4133 84.2381 70.68C84.6515 70.9333 85.1781 71.1667 85.8181 71.38C86.6048 71.66 87.3381 72.04 88.0181 72.52C88.7115 73 89.0581 73.64 89.0581 74.44C89.0581 75.32 88.7248 76.0133 88.0581 76.52C87.4048 77.0133 86.4448 77.26 85.1781 77.26C84.7648 77.26 84.2448 77.1867 83.6181 77.04C82.9915 76.9067 82.4781 76.7067 82.0781 76.44L82.5581 75.24C82.9315 75.4267 83.3448 75.5867 83.7981 75.72C84.2648 75.8533 84.7315 75.92 85.1981 75.92C85.9181 75.92 86.4781 75.8067 86.8781 75.58C87.2781 75.3533 87.4781 75.0067 87.4781 74.54C87.4781 74.1267 87.2581 73.7667 86.8181 73.46C86.3781 73.14 85.8315 72.8733 85.1781 72.66C84.4181 72.4067 83.6981 72.06 83.0181 71.62C82.3515 71.1667 82.0181 70.56 82.0181 69.8C82.0181 68.9333 82.3381 68.26 82.9781 67.78C83.6315 67.2867 84.5115 67.04 85.6181 67.04C86.0315 67.04 86.5448 67.12 87.1581 67.28C87.7715 67.4267 88.2648 67.6333 88.6381 67.9L88.1581 69.06ZM95.9639 76.96C95.8172 77.0267 95.6039 77.1 95.3239 77.18C95.0572 77.26 94.7772 77.3 94.4839 77.3C93.6572 77.3 92.9906 77.06 92.4839 76.58C91.9906 76.1 91.7439 75.4 91.7439 74.48V68.66H90.3639L90.3439 67.46H91.7439V65L93.3439 64.54V67.46H95.1039L95.6239 68.66H93.3439V74.26C93.3439 74.7533 93.4506 75.16 93.6639 75.48C93.8772 75.7867 94.2306 75.94 94.7239 75.94C94.8706 75.94 95.0306 75.92 95.2039 75.88C95.3772 75.8267 95.5106 75.78 95.6039 75.74L95.9639 76.96ZM103.614 65.38C103.308 65.38 103.054 65.28 102.854 65.08C102.654 64.8667 102.554 64.6067 102.554 64.3C102.541 64.0067 102.634 63.76 102.834 63.56C103.048 63.3467 103.308 63.24 103.614 63.24C103.908 63.24 104.161 63.3467 104.374 63.56C104.601 63.76 104.714 64.0067 104.714 64.3C104.714 64.6067 104.601 64.8667 104.374 65.08C104.161 65.28 103.908 65.38 103.614 65.38ZM102.834 77V67.3H104.434V77H102.834ZM111.5 68.38C110.513 68.38 109.787 68.74 109.32 69.46C108.853 70.1667 108.613 71.0467 108.6 72.1C108.6 73.1933 108.82 74.1067 109.26 74.84C109.7 75.56 110.42 75.92 111.42 75.92C112.073 75.92 112.567 75.8533 112.9 75.72C113.233 75.5867 113.587 75.4267 113.96 75.24L114.44 76.4C114.027 76.6667 113.527 76.8733 112.94 77.02C112.353 77.18 111.853 77.26 111.44 77.26C109.973 77.26 108.86 76.78 108.1 75.82C107.353 74.86 106.98 73.6267 106.98 72.12C106.993 70.64 107.387 69.4267 108.16 68.48C108.947 67.52 110.073 67.04 111.54 67.04C111.927 67.04 112.413 67.12 113 67.28C113.6 67.4267 114.107 67.64 114.52 67.92L114.04 69.06C113.667 68.8867 113.307 68.7333 112.96 68.6C112.627 68.4533 112.14 68.38 111.5 68.38ZM120.655 77.26C119.228 77.2467 118.155 76.76 117.435 75.8C116.715 74.84 116.355 73.6067 116.355 72.1C116.368 70.6333 116.762 69.4267 117.535 68.48C118.308 67.5333 119.415 67.0533 120.855 67.04C122.322 67.04 123.415 67.5267 124.135 68.5C124.868 69.4733 125.235 70.7133 125.235 72.22C125.222 73.7 124.815 74.9133 124.015 75.86C123.215 76.7933 122.095 77.26 120.655 77.26ZM123.655 72.22C123.655 71.1133 123.442 70.2 123.015 69.48C122.602 68.76 121.895 68.4 120.895 68.4C119.908 68.4 119.175 68.7467 118.695 69.44C118.228 70.12 117.988 71 117.975 72.08C117.975 73.2133 118.175 74.1333 118.575 74.84C118.975 75.5467 119.675 75.9 120.675 75.9C121.675 75.9 122.415 75.5667 122.895 74.9C123.388 74.2333 123.642 73.34 123.655 72.22ZM129.254 68.7C129.668 68.2333 130.201 67.84 130.854 67.52C131.508 67.1867 132.121 67.02 132.694 67.02C133.801 67.02 134.621 67.3467 135.154 68C135.688 68.64 135.954 69.4467 135.954 70.42V76.98H134.374V70.64C134.374 69.9867 134.214 69.4467 133.894 69.02C133.574 68.5933 133.081 68.3733 132.414 68.36C132.001 68.36 131.494 68.5 130.894 68.78C130.308 69.06 129.801 69.4467 129.374 69.94V77H127.794V67.3H128.754L129.254 68.7ZM139.786 65.38C139.48 65.38 139.226 65.28 139.026 65.08C138.826 64.8667 138.726 64.6067 138.726 64.3C138.713 64.0067 138.806 63.76 139.006 63.56C139.22 63.3467 139.48 63.24 139.786 63.24C140.08 63.24 140.333 63.3467 140.546 63.56C140.773 63.76 140.886 64.0067 140.886 64.3C140.886 64.6067 140.773 64.8667 140.546 65.08C140.333 65.28 140.08 65.38 139.786 65.38ZM139.006 77V67.3H140.606V77H139.006ZM147.672 68.38C146.685 68.38 145.959 68.74 145.492 69.46C145.025 70.1667 144.785 71.0467 144.772 72.1C144.772 73.1933 144.992 74.1067 145.432 74.84C145.872 75.56 146.592 75.92 147.592 75.92C148.245 75.92 148.739 75.8533 149.072 75.72C149.405 75.5867 149.759 75.4267 150.132 75.24L150.612 76.4C150.199 76.6667 149.699 76.8733 149.112 77.02C148.525 77.18 148.025 77.26 147.612 77.26C146.145 77.26 145.032 76.78 144.272 75.82C143.525 74.86 143.152 73.6267 143.152 72.12C143.165 70.64 143.559 69.4267 144.332 68.48C145.119 67.52 146.245 67.04 147.712 67.04C148.099 67.04 148.585 67.12 149.172 67.28C149.772 67.4267 150.279 67.64 150.692 67.92L150.212 69.06C149.839 68.8867 149.479 68.7333 149.132 68.6C148.799 68.4533 148.312 68.38 147.672 68.38ZM165.293 68.6C165.707 68.16 166.227 67.7867 166.853 67.48C167.48 67.1733 168.08 67.02 168.653 67.02C169.773 67.02 170.6 67.3467 171.133 68C171.667 68.64 171.933 69.4467 171.933 70.42V76.98H170.333V70.64C170.333 69.9867 170.173 69.4467 169.853 69.02C169.533 68.5933 169.04 68.3733 168.373 68.36C167.947 68.36 167.487 68.48 166.993 68.72C166.513 68.96 166.06 69.3 165.633 69.74C165.647 69.86 165.653 69.98 165.653 70.1C165.667 70.2067 165.673 70.3133 165.673 70.42V76.98H164.073V70.64C164.073 69.9867 163.913 69.4467 163.593 69.02C163.287 68.5933 162.807 68.3733 162.153 68.36C161.713 68.36 161.253 68.48 160.773 68.72C160.293 68.9467 159.84 69.2867 159.413 69.74V77H157.833V67.3H158.793L159.253 68.4C159.68 68 160.18 67.6733 160.753 67.42C161.327 67.1533 161.88 67.02 162.413 67.02C163.133 67.02 163.733 67.1667 164.213 67.46C164.707 67.74 165.067 68.12 165.293 68.6ZM178.663 77.26C177.236 77.2467 176.163 76.76 175.443 75.8C174.723 74.84 174.363 73.6067 174.363 72.1C174.376 70.6333 174.769 69.4267 175.543 68.48C176.316 67.5333 177.423 67.0533 178.863 67.04C180.329 67.04 181.423 67.5267 182.143 68.5C182.876 69.4733 183.243 70.7133 183.243 72.22C183.229 73.7 182.823 74.9133 182.023 75.86C181.223 76.7933 180.103 77.26 178.663 77.26ZM181.663 72.22C181.663 71.1133 181.449 70.2 181.023 69.48C180.609 68.76 179.903 68.4 178.903 68.4C177.916 68.4 177.183 68.7467 176.703 69.44C176.236 70.12 175.996 71 175.983 72.08C175.983 73.2133 176.183 74.1333 176.583 74.84C176.983 75.5467 177.683 75.9 178.683 75.9C179.683 75.9 180.423 75.5667 180.903 74.9C181.396 74.2333 181.649 73.34 181.663 72.22ZM192.082 75.94C191.656 76.3267 191.162 76.6467 190.602 76.9C190.042 77.1533 189.502 77.28 188.982 77.28C187.849 77.28 187.016 76.96 186.482 76.32C185.962 75.6667 185.702 74.8467 185.702 73.86V67.3H187.282V73.68C187.282 74.3333 187.442 74.8733 187.762 75.3C188.082 75.7267 188.569 75.94 189.222 75.94C189.596 75.94 190.036 75.8333 190.542 75.62C191.049 75.4067 191.516 75.1067 191.942 74.72V67.3H193.522V77H192.542L192.082 75.94ZM198.102 68.7C198.515 68.2333 199.049 67.84 199.702 67.52C200.355 67.1867 200.969 67.02 201.542 67.02C202.649 67.02 203.469 67.3467 204.002 68C204.535 68.64 204.802 69.4467 204.802 70.42V76.98H203.222V70.64C203.222 69.9867 203.062 69.4467 202.742 69.02C202.422 68.5933 201.929 68.3733 201.262 68.36C200.849 68.36 200.342 68.5 199.742 68.78C199.155 69.06 198.649 69.4467 198.222 69.94V77H196.642V67.3H197.602L198.102 68.7ZM212.214 76.96C212.067 77.0267 211.854 77.1 211.574 77.18C211.307 77.26 211.027 77.3 210.734 77.3C209.907 77.3 209.241 77.06 208.734 76.58C208.241 76.1 207.994 75.4 207.994 74.48V68.66H206.614L206.594 67.46H207.994V65L209.594 64.54V67.46H211.354L211.874 68.66H209.594V74.26C209.594 74.7533 209.701 75.16 209.914 75.48C210.127 75.7867 210.481 75.94 210.974 75.94C211.121 75.94 211.281 75.92 211.454 75.88C211.627 75.8267 211.761 75.78 211.854 75.74L212.214 76.96ZM215.238 74.24C215.238 74.6533 215.378 75.0467 215.658 75.42C215.951 75.7933 216.418 75.98 217.058 75.98C217.618 75.98 218.131 75.84 218.598 75.56C219.064 75.28 219.464 74.9467 219.798 74.56V72.34H217.238C216.584 72.34 216.084 72.5333 215.738 72.92C215.404 73.2933 215.238 73.7333 215.238 74.24ZM214.398 67.9C214.771 67.6467 215.298 67.44 215.978 67.28C216.658 67.12 217.198 67.04 217.598 67.04C218.718 67.04 219.624 67.3467 220.318 67.96C221.024 68.56 221.378 69.3467 221.378 70.32V77H220.418L219.998 76.02C219.664 76.3267 219.231 76.6067 218.698 76.86C218.164 77.1133 217.631 77.24 217.098 77.24C215.978 77.24 215.144 76.96 214.598 76.4C214.051 75.8267 213.778 75.1067 213.778 74.24C213.778 73.28 214.098 72.5533 214.738 72.06C215.391 71.5533 216.238 71.3 217.278 71.3H219.778C219.778 70.5 219.651 69.82 219.398 69.26C219.144 68.7 218.564 68.42 217.658 68.42C217.004 68.42 216.464 68.4933 216.038 68.64C215.611 68.7867 215.218 68.94 214.858 69.1C214.791 68.9 214.718 68.7 214.638 68.5C214.558 68.3 214.478 68.1 214.398 67.9ZM225.216 65.38C224.909 65.38 224.656 65.28 224.456 65.08C224.256 64.8667 224.156 64.6067 224.156 64.3C224.143 64.0067 224.236 63.76 224.436 63.56C224.649 63.3467 224.909 63.24 225.216 63.24C225.509 63.24 225.763 63.3467 225.976 63.56C226.203 63.76 226.316 64.0067 226.316 64.3C226.316 64.6067 226.203 64.8667 225.976 65.08C225.763 65.28 225.509 65.38 225.216 65.38ZM224.436 77V67.3H226.036V77H224.436ZM230.622 68.7C231.035 68.2333 231.568 67.84 232.222 67.52C232.875 67.1867 233.488 67.02 234.062 67.02C235.168 67.02 235.988 67.3467 236.522 68C237.055 68.64 237.322 69.4467 237.322 70.42V76.98H235.742V70.64C235.742 69.9867 235.582 69.4467 235.262 69.02C234.942 68.5933 234.448 68.3733 233.782 68.36C233.368 68.36 232.862 68.5 232.262 68.78C231.675 69.06 231.168 69.4467 230.742 69.94V77H229.162V67.3H230.122L230.622 68.7ZM245.98 74.24C245.98 74.6533 246.12 75.0467 246.4 75.42C246.693 75.7933 247.16 75.98 247.8 75.98C248.36 75.98 248.873 75.84 249.34 75.56C249.807 75.28 250.207 74.9467 250.54 74.56V72.34H247.98C247.327 72.34 246.827 72.5333 246.48 72.92C246.147 73.2933 245.98 73.7333 245.98 74.24ZM245.14 67.9C245.513 67.6467 246.04 67.44 246.72 67.28C247.4 67.12 247.94 67.04 248.34 67.04C249.46 67.04 250.367 67.3467 251.06 67.96C251.767 68.56 252.12 69.3467 252.12 70.32V77H251.16L250.74 76.02C250.407 76.3267 249.973 76.6067 249.44 76.86C248.907 77.1133 248.373 77.24 247.84 77.24C246.72 77.24 245.887 76.96 245.34 76.4C244.793 75.8267 244.52 75.1067 244.52 74.24C244.52 73.28 244.84 72.5533 245.48 72.06C246.133 71.5533 246.98 71.3 248.02 71.3H250.52C250.52 70.5 250.393 69.82 250.14 69.26C249.887 68.7 249.307 68.42 248.4 68.42C247.747 68.42 247.207 68.4933 246.78 68.64C246.353 68.7867 245.96 68.94 245.6 69.1C245.533 68.9 245.46 68.7 245.38 68.5C245.3 68.3 245.22 68.1 245.14 67.9ZM256.598 68.7C257.011 68.2333 257.545 67.84 258.198 67.52C258.851 67.1867 259.465 67.02 260.038 67.02C261.145 67.02 261.965 67.3467 262.498 68C263.031 68.64 263.298 69.4467 263.298 70.42V76.98H261.718V70.64C261.718 69.9867 261.558 69.4467 261.238 69.02C260.918 68.5933 260.425 68.3733 259.758 68.36C259.345 68.36 258.838 68.5 258.238 68.78C257.651 69.06 257.145 69.4467 256.718 69.94V77H255.138V67.3H256.098L256.598 68.7ZM270.23 68.36C269.177 68.36 268.43 68.7333 267.99 69.48C267.563 70.2133 267.35 71.1 267.35 72.14C267.35 73.22 267.563 74.12 267.99 74.84C268.417 75.5467 269.163 75.9 270.23 75.9C270.603 75.9 271.003 75.8133 271.43 75.64C271.857 75.4533 272.257 75.1933 272.63 74.86V69.42C272.257 69.0867 271.857 68.8267 271.43 68.64C271.003 68.4533 270.603 68.36 270.23 68.36ZM274.23 62.9V77H273.29L272.87 76.12C272.457 76.4533 271.983 76.7267 271.45 76.94C270.93 77.1533 270.43 77.26 269.95 77.26C268.537 77.26 267.477 76.78 266.77 75.82C266.077 74.8467 265.73 73.6267 265.73 72.16C265.73 70.6667 266.083 69.44 266.79 68.48C267.51 67.5067 268.577 67.02 269.99 67.02C270.403 67.02 270.85 67.1133 271.33 67.3C271.81 67.4733 272.243 67.7067 272.63 68V63.08L274.23 62.9ZM18.48 96.24C18.48 96.6533 18.62 97.0467 18.9 97.42C19.1933 97.7933 19.66 97.98 20.3 97.98C20.86 97.98 21.3733 97.84 21.84 97.56C22.3067 97.28 22.7067 96.9467 23.04 96.56V94.34H20.48C19.8267 94.34 19.3267 94.5333 18.98 94.92C18.6467 95.2933 18.48 95.7333 18.48 96.24ZM17.64 89.9C18.0133 89.6467 18.54 89.44 19.22 89.28C19.9 89.12 20.44 89.04 20.84 89.04C21.96 89.04 22.8667 89.3467 23.56 89.96C24.2667 90.56 24.62 91.3467 24.62 92.32V99H23.66L23.24 98.02C22.9067 98.3267 22.4733 98.6067 21.94 98.86C21.4067 99.1133 20.8733 99.24 20.34 99.24C19.22 99.24 18.3867 98.96 17.84 98.4C17.2933 97.8267 17.02 97.1067 17.02 96.24C17.02 95.28 17.34 94.5533 17.98 94.06C18.6333 93.5533 19.48 93.3 20.52 93.3H23.02C23.02 92.5 22.8933 91.82 22.64 91.26C22.3867 90.7 21.8067 90.42 20.9 90.42C20.2467 90.42 19.7067 90.4933 19.28 90.64C18.8533 90.7867 18.46 90.94 18.1 91.1C18.0333 90.9 17.96 90.7 17.88 90.5C17.8 90.3 17.72 90.1 17.64 89.9ZM29.0981 90.7C29.5115 90.2333 30.0448 89.84 30.6981 89.52C31.3515 89.1867 31.9648 89.02 32.5381 89.02C33.6448 89.02 34.4648 89.3467 34.9981 90C35.5315 90.64 35.7981 91.4467 35.7981 92.42V98.98H34.2181V92.64C34.2181 91.9867 34.0581 91.4467 33.7381 91.02C33.4181 90.5933 32.9248 90.3733 32.2581 90.36C31.8448 90.36 31.3381 90.5 30.7381 90.78C30.1515 91.06 29.6448 91.4467 29.2181 91.94V99H27.6381V89.3H28.5981L29.0981 90.7ZM44.4566 96.24C44.4566 96.6533 44.5966 97.0467 44.8766 97.42C45.1699 97.7933 45.6366 97.98 46.2766 97.98C46.8366 97.98 47.3499 97.84 47.8166 97.56C48.2832 97.28 48.6832 96.9467 49.0166 96.56V94.34H46.4566C45.8032 94.34 45.3032 94.5333 44.9566 94.92C44.6232 95.2933 44.4566 95.7333 44.4566 96.24ZM43.6166 89.9C43.9899 89.6467 44.5166 89.44 45.1966 89.28C45.8766 89.12 46.4166 89.04 46.8166 89.04C47.9366 89.04 48.8432 89.3467 49.5366 89.96C50.2432 90.56 50.5966 91.3467 50.5966 92.32V99H49.6366L49.2166 98.02C48.8832 98.3267 48.4499 98.6067 47.9166 98.86C47.3832 99.1133 46.8499 99.24 46.3166 99.24C45.1966 99.24 44.3632 98.96 43.8166 98.4C43.2699 97.8267 42.9966 97.1067 42.9966 96.24C42.9966 95.28 43.3166 94.5533 43.9566 94.06C44.6099 93.5533 45.4566 93.3 46.4966 93.3H48.9966C48.9966 92.5 48.8699 91.82 48.6166 91.26C48.3632 90.7 47.7832 90.42 46.8766 90.42C46.2232 90.42 45.6832 90.4933 45.2566 90.64C44.8299 90.7867 44.4366 90.94 44.0766 91.1C44.0099 90.9 43.9366 90.7 43.8566 90.5C43.7766 90.3 43.6966 90.1 43.6166 89.9ZM57.5547 90.38C56.568 90.38 55.8414 90.74 55.3747 91.46C54.908 92.1667 54.668 93.0467 54.6547 94.1C54.6547 95.1933 54.8747 96.1067 55.3147 96.84C55.7547 97.56 56.4747 97.92 57.4747 97.92C58.128 97.92 58.6214 97.8533 58.9547 97.72C59.288 97.5867 59.6414 97.4267 60.0147 97.24L60.4947 98.4C60.0814 98.6667 59.5814 98.8733 58.9947 99.02C58.408 99.18 57.908 99.26 57.4947 99.26C56.028 99.26 54.9147 98.78 54.1547 97.82C53.408 96.86 53.0347 95.6267 53.0347 94.12C53.048 92.64 53.4414 91.4267 54.2147 90.48C55.0014 89.52 56.128 89.04 57.5947 89.04C57.9814 89.04 58.468 89.12 59.0547 89.28C59.6547 89.4267 60.1614 89.64 60.5747 89.92L60.0947 91.06C59.7214 90.8867 59.3614 90.7333 59.0147 90.6C58.6814 90.4533 58.1947 90.38 57.5547 90.38ZM67.3897 98.96C67.243 99.0267 67.0297 99.1 66.7497 99.18C66.483 99.26 66.203 99.3 65.9097 99.3C65.083 99.3 64.4164 99.06 63.9097 98.58C63.4164 98.1 63.1697 97.4 63.1697 96.48V90.66H61.7897L61.7697 89.46H63.1697V87L64.7697 86.54V89.46H66.5297L67.0497 90.66H64.7697V96.26C64.7697 96.7533 64.8764 97.16 65.0897 97.48C65.303 97.7867 65.6564 97.94 66.1497 97.94C66.2964 97.94 66.4564 97.92 66.6297 97.88C66.803 97.8267 66.9364 97.78 67.0297 97.74L67.3897 98.96ZM70.3136 87.38C70.0069 87.38 69.7536 87.28 69.5536 87.08C69.3536 86.8667 69.2536 86.6067 69.2536 86.3C69.2403 86.0067 69.3336 85.76 69.5336 85.56C69.7469 85.3467 70.0069 85.24 70.3136 85.24C70.6069 85.24 70.8603 85.3467 71.0736 85.56C71.3003 85.76 71.4136 86.0067 71.4136 86.3C71.4136 86.6067 71.3003 86.8667 71.0736 87.08C70.8603 87.28 70.6069 87.38 70.3136 87.38ZM69.5336 99V89.3H71.1336V99H69.5336ZM76.7392 99L73.0392 89.54L74.6392 89.3L77.5392 96.86L80.3192 89.3H81.8992L78.2992 99H76.7392ZM91.8905 94.4H84.8505C84.8905 95.4267 85.1638 96.28 85.6705 96.96C86.1771 97.6267 86.9771 97.96 88.0705 97.96C88.7238 97.96 89.2505 97.8933 89.6505 97.76C90.0638 97.6133 90.4571 97.4533 90.8305 97.28L91.3305 98.44C90.9171 98.72 90.3771 98.92 89.7105 99.04C89.0438 99.1733 88.5105 99.24 88.1105 99.24C86.4971 99.24 85.2771 98.7667 84.4505 97.82C83.6238 96.86 83.2105 95.6267 83.2105 94.12C83.2238 92.6533 83.6171 91.44 84.3905 90.48C85.1771 89.52 86.2905 89.04 87.7305 89.04C89.2371 89.04 90.3038 89.5733 90.9305 90.64C91.5705 91.6933 91.8905 92.9467 91.8905 94.4ZM90.3305 93.32C90.2238 92.4533 89.9638 91.7467 89.5505 91.2C89.1371 90.6533 88.5105 90.38 87.6705 90.38C86.8305 90.38 86.1771 90.6533 85.7105 91.2C85.2571 91.7467 84.9838 92.4533 84.8905 93.32H90.3305ZM101.563 99L97.8634 89.54L99.4634 89.3L102.363 96.86L105.143 89.3H106.723L103.123 99H101.563ZM112.335 99.26C110.908 99.2467 109.835 98.76 109.115 97.8C108.395 96.84 108.035 95.6067 108.035 94.1C108.048 92.6333 108.441 91.4267 109.215 90.48C109.988 89.5333 111.095 89.0533 112.535 89.04C114.001 89.04 115.095 89.5267 115.815 90.5C116.548 91.4733 116.915 92.7133 116.915 94.22C116.901 95.7 116.495 96.9133 115.695 97.86C114.895 98.7933 113.775 99.26 112.335 99.26ZM115.335 94.22C115.335 93.1133 115.121 92.2 114.695 91.48C114.281 90.76 113.575 90.4 112.575 90.4C111.588 90.4 110.855 90.7467 110.375 91.44C109.908 92.12 109.668 93 109.655 94.08C109.655 95.2133 109.855 96.1333 110.255 96.84C110.655 97.5467 111.355 97.9 112.355 97.9C113.355 97.9 114.095 97.5667 114.575 96.9C115.068 96.2333 115.321 95.34 115.335 94.22ZM119.514 99V85.1L121.094 84.88V99H119.514ZM128.199 90.38C127.213 90.38 126.486 90.74 126.019 91.46C125.553 92.1667 125.313 93.0467 125.299 94.1C125.299 95.1933 125.519 96.1067 125.959 96.84C126.399 97.56 127.119 97.92 128.119 97.92C128.773 97.92 129.266 97.8533 129.599 97.72C129.933 97.5867 130.286 97.4267 130.659 97.24L131.139 98.4C130.726 98.6667 130.226 98.8733 129.639 99.02C129.053 99.18 128.553 99.26 128.139 99.26C126.673 99.26 125.559 98.78 124.799 97.82C124.053 96.86 123.679 95.6267 123.679 94.12C123.693 92.64 124.086 91.4267 124.859 90.48C125.646 89.52 126.773 89.04 128.239 89.04C128.626 89.04 129.113 89.12 129.699 89.28C130.299 89.4267 130.806 89.64 131.219 89.92L130.739 91.06C130.366 90.8867 130.006 90.7333 129.659 90.6C129.326 90.4533 128.839 90.38 128.199 90.38ZM134.554 96.24C134.554 96.6533 134.694 97.0467 134.974 97.42C135.268 97.7933 135.734 97.98 136.374 97.98C136.934 97.98 137.448 97.84 137.914 97.56C138.381 97.28 138.781 96.9467 139.114 96.56V94.34H136.554C135.901 94.34 135.401 94.5333 135.054 94.92C134.721 95.2933 134.554 95.7333 134.554 96.24ZM133.714 89.9C134.088 89.6467 134.614 89.44 135.294 89.28C135.974 89.12 136.514 89.04 136.914 89.04C138.034 89.04 138.941 89.3467 139.634 89.96C140.341 90.56 140.694 91.3467 140.694 92.32V99H139.734L139.314 98.02C138.981 98.3267 138.548 98.6067 138.014 98.86C137.481 99.1133 136.948 99.24 136.414 99.24C135.294 99.24 134.461 98.96 133.914 98.4C133.368 97.8267 133.094 97.1067 133.094 96.24C133.094 95.28 133.414 94.5533 134.054 94.06C134.708 93.5533 135.554 93.3 136.594 93.3H139.094C139.094 92.5 138.968 91.82 138.714 91.26C138.461 90.7 137.881 90.42 136.974 90.42C136.321 90.42 135.781 90.4933 135.354 90.64C134.928 90.7867 134.534 90.94 134.174 91.1C134.108 90.9 134.034 90.7 133.954 90.5C133.874 90.3 133.794 90.1 133.714 89.9ZM145.172 90.7C145.586 90.2333 146.119 89.84 146.772 89.52C147.426 89.1867 148.039 89.02 148.612 89.02C149.719 89.02 150.539 89.3467 151.072 90C151.606 90.64 151.872 91.4467 151.872 92.42V98.98H150.292V92.64C150.292 91.9867 150.132 91.4467 149.812 91.02C149.492 90.5933 148.999 90.3733 148.332 90.36C147.919 90.36 147.412 90.5 146.812 90.78C146.226 91.06 145.719 91.4467 145.292 91.94V99H143.712V89.3H144.672L145.172 90.7ZM158.604 99.26C157.178 99.2467 156.104 98.76 155.384 97.8C154.664 96.84 154.304 95.6067 154.304 94.1C154.318 92.6333 154.711 91.4267 155.484 90.48C156.258 89.5333 157.364 89.0533 158.804 89.04C160.271 89.04 161.364 89.5267 162.084 90.5C162.818 91.4733 163.184 92.7133 163.184 94.22C163.171 95.7 162.764 96.9133 161.964 97.86C161.164 98.7933 160.044 99.26 158.604 99.26ZM161.604 94.22C161.604 93.1133 161.391 92.2 160.964 91.48C160.551 90.76 159.844 90.4 158.844 90.4C157.858 90.4 157.124 90.7467 156.644 91.44C156.178 92.12 155.938 93 155.924 94.08C155.924 95.2133 156.124 96.1333 156.524 96.84C156.924 97.5467 157.624 97.9 158.624 97.9C159.624 97.9 160.364 97.5667 160.844 96.9C161.338 96.2333 161.591 95.34 161.604 94.22ZM170.51 99V85.1L172.09 84.88V99H170.51ZM178.975 99.26C177.549 99.2467 176.475 98.76 175.755 97.8C175.035 96.84 174.675 95.6067 174.675 94.1C174.689 92.6333 175.082 91.4267 175.855 90.48C176.629 89.5333 177.735 89.0533 179.175 89.04C180.642 89.04 181.735 89.5267 182.455 90.5C183.189 91.4733 183.555 92.7133 183.555 94.22C183.542 95.7 183.135 96.9133 182.335 97.86C181.535 98.7933 180.415 99.26 178.975 99.26ZM181.975 94.22C181.975 93.1133 181.762 92.2 181.335 91.48C180.922 90.76 180.215 90.4 179.215 90.4C178.229 90.4 177.495 90.7467 177.015 91.44C176.549 92.12 176.309 93 176.295 94.08C176.295 95.2133 176.495 96.1333 176.895 96.84C177.295 97.5467 177.995 97.9 178.995 97.9C179.995 97.9 180.735 97.5667 181.215 96.9C181.709 96.2333 181.962 95.34 181.975 94.22ZM190.055 90.38C189.068 90.38 188.341 90.74 187.875 91.46C187.408 92.1667 187.168 93.0467 187.155 94.1C187.155 95.1933 187.375 96.1067 187.815 96.84C188.255 97.56 188.975 97.92 189.975 97.92C190.628 97.92 191.121 97.8533 191.455 97.72C191.788 97.5867 192.141 97.4267 192.515 97.24L192.995 98.4C192.581 98.6667 192.081 98.8733 191.495 99.02C190.908 99.18 190.408 99.26 189.995 99.26C188.528 99.26 187.415 98.78 186.655 97.82C185.908 96.86 185.535 95.6267 185.535 94.12C185.548 92.64 185.941 91.4267 186.715 90.48C187.501 89.52 188.628 89.04 190.095 89.04C190.481 89.04 190.968 89.12 191.555 89.28C192.155 89.4267 192.661 89.64 193.075 89.92L192.595 91.06C192.221 90.8867 191.861 90.7333 191.515 90.6C191.181 90.4533 190.695 90.38 190.055 90.38ZM196.41 96.24C196.41 96.6533 196.55 97.0467 196.83 97.42C197.123 97.7933 197.59 97.98 198.23 97.98C198.79 97.98 199.303 97.84 199.77 97.56C200.236 97.28 200.636 96.9467 200.97 96.56V94.34H198.41C197.756 94.34 197.256 94.5333 196.91 94.92C196.576 95.2933 196.41 95.7333 196.41 96.24ZM195.57 89.9C195.943 89.6467 196.47 89.44 197.15 89.28C197.83 89.12 198.37 89.04 198.77 89.04C199.89 89.04 200.796 89.3467 201.49 89.96C202.196 90.56 202.55 91.3467 202.55 92.32V99H201.59L201.17 98.02C200.836 98.3267 200.403 98.6067 199.87 98.86C199.336 99.1133 198.803 99.24 198.27 99.24C197.15 99.24 196.316 98.96 195.77 98.4C195.223 97.8267 194.95 97.1067 194.95 96.24C194.95 95.28 195.27 94.5533 195.91 94.06C196.563 93.5533 197.41 93.3 198.45 93.3H200.95C200.95 92.5 200.823 91.82 200.57 91.26C200.316 90.7 199.736 90.42 198.83 90.42C198.176 90.42 197.636 90.4933 197.21 90.64C196.783 90.7867 196.39 90.94 196.03 91.1C195.963 90.9 195.89 90.7 195.81 90.5C195.73 90.3 195.65 90.1 195.57 89.9ZM209.968 98.96C209.821 99.0267 209.608 99.1 209.328 99.18C209.061 99.26 208.781 99.3 208.488 99.3C207.661 99.3 206.994 99.06 206.488 98.58C205.994 98.1 205.748 97.4 205.748 96.48V90.66H204.368L204.348 89.46H205.748V87L207.348 86.54V89.46H209.108L209.628 90.66H207.348V96.26C207.348 96.7533 207.454 97.16 207.668 97.48C207.881 97.7867 208.234 97.94 208.728 97.94C208.874 97.94 209.034 97.92 209.208 97.88C209.381 97.8267 209.514 97.78 209.608 97.74L209.968 98.96ZM220.172 94.4H213.132C213.172 95.4267 213.445 96.28 213.952 96.96C214.458 97.6267 215.258 97.96 216.352 97.96C217.005 97.96 217.532 97.8933 217.932 97.76C218.345 97.6133 218.738 97.4533 219.112 97.28L219.612 98.44C219.198 98.72 218.658 98.92 217.992 99.04C217.325 99.1733 216.792 99.24 216.392 99.24C214.778 99.24 213.558 98.7667 212.732 97.82C211.905 96.86 211.492 95.6267 211.492 94.12C211.505 92.6533 211.898 91.44 212.672 90.48C213.458 89.52 214.572 89.04 216.012 89.04C217.518 89.04 218.585 89.5733 219.212 90.64C219.852 91.6933 220.172 92.9467 220.172 94.4ZM218.612 93.32C218.505 92.4533 218.245 91.7467 217.832 91.2C217.418 90.6533 216.792 90.38 215.952 90.38C215.112 90.38 214.458 90.6533 213.992 91.2C213.538 91.7467 213.265 92.4533 213.172 93.32H218.612ZM226.558 90.36C225.505 90.36 224.758 90.7333 224.318 91.48C223.891 92.2133 223.678 93.1 223.678 94.14C223.678 95.22 223.891 96.12 224.318 96.84C224.745 97.5467 225.491 97.9 226.558 97.9C226.931 97.9 227.331 97.8133 227.758 97.64C228.185 97.4533 228.585 97.1933 228.958 96.86V91.42C228.585 91.0867 228.185 90.8267 227.758 90.64C227.331 90.4533 226.931 90.36 226.558 90.36ZM230.558 84.9V99H229.618L229.198 98.12C228.785 98.4533 228.311 98.7267 227.778 98.94C227.258 99.1533 226.758 99.26 226.278 99.26C224.865 99.26 223.805 98.78 223.098 97.82C222.405 96.8467 222.058 95.6267 222.058 94.16C222.058 92.6667 222.411 91.44 223.118 90.48C223.838 89.5067 224.905 89.02 226.318 89.02C226.731 89.02 227.178 89.1133 227.658 89.3C228.138 89.4733 228.571 89.7067 228.958 90V85.08L230.558 84.9ZM239.359 96.24C239.359 96.6533 239.499 97.0467 239.779 97.42C240.072 97.7933 240.539 97.98 241.179 97.98C241.739 97.98 242.252 97.84 242.719 97.56C243.186 97.28 243.586 96.9467 243.919 96.56V94.34H241.359C240.706 94.34 240.206 94.5333 239.859 94.92C239.526 95.2933 239.359 95.7333 239.359 96.24ZM238.519 89.9C238.892 89.6467 239.419 89.44 240.099 89.28C240.779 89.12 241.319 89.04 241.719 89.04C242.839 89.04 243.746 89.3467 244.439 89.96C245.146 90.56 245.499 91.3467 245.499 92.32V99H244.539L244.119 98.02C243.786 98.3267 243.352 98.6067 242.819 98.86C242.286 99.1133 241.752 99.24 241.219 99.24C240.099 99.24 239.266 98.96 238.719 98.4C238.172 97.8267 237.899 97.1067 237.899 96.24C237.899 95.28 238.219 94.5533 238.859 94.06C239.512 93.5533 240.359 93.3 241.399 93.3H243.899C243.899 92.5 243.772 91.82 243.519 91.26C243.266 90.7 242.686 90.42 241.779 90.42C241.126 90.42 240.586 90.4933 240.159 90.64C239.732 90.7867 239.339 90.94 238.979 91.1C238.912 90.9 238.839 90.7 238.759 90.5C238.679 90.3 238.599 90.1 238.519 89.9ZM248.557 99V85.1L250.137 84.88V90C250.524 89.7067 250.95 89.4733 251.417 89.3C251.884 89.1133 252.33 89.02 252.757 89.02C254.184 89.02 255.244 89.5067 255.937 90.48C256.63 91.4533 256.977 92.6733 256.977 94.14C256.977 95.62 256.624 96.84 255.917 97.8C255.224 98.76 254.17 99.24 252.757 99.24C252.277 99.24 251.784 99.1467 251.277 98.96C250.77 98.76 250.304 98.4933 249.877 98.16C249.824 98.2933 249.764 98.4333 249.697 98.58C249.63 98.7267 249.564 98.8667 249.497 99H248.557ZM250.137 96.9C250.51 97.2333 250.904 97.4867 251.317 97.66C251.744 97.8333 252.144 97.92 252.517 97.92C253.557 97.92 254.297 97.5533 254.737 96.82C255.177 96.0867 255.397 95.2 255.397 94.16C255.397 93.08 255.184 92.18 254.757 91.46C254.33 90.7267 253.584 90.36 252.517 90.36C252.144 90.36 251.744 90.4533 251.317 90.64C250.904 90.8133 250.51 91.0667 250.137 91.4V96.9ZM263.272 99.26C261.846 99.2467 260.772 98.76 260.052 97.8C259.332 96.84 258.972 95.6067 258.972 94.1C258.986 92.6333 259.379 91.4267 260.152 90.48C260.926 89.5333 262.032 89.0533 263.472 89.04C264.939 89.04 266.032 89.5267 266.752 90.5C267.486 91.4733 267.852 92.7133 267.852 94.22C267.839 95.7 267.432 96.9133 266.632 97.86C265.832 98.7933 264.712 99.26 263.272 99.26ZM266.272 94.22C266.272 93.1133 266.059 92.2 265.632 91.48C265.219 90.76 264.512 90.4 263.512 90.4C262.526 90.4 261.792 90.7467 261.312 91.44C260.846 92.12 260.606 93 260.592 94.08C260.592 95.2133 260.792 96.1333 261.192 96.84C261.592 97.5467 262.292 97.9 263.292 97.9C264.292 97.9 265.032 97.5667 265.512 96.9C266.006 96.2333 266.259 95.34 266.272 94.22ZM276.692 97.94C276.265 98.3267 275.772 98.6467 275.212 98.9C274.652 99.1533 274.112 99.28 273.592 99.28C272.458 99.28 271.625 98.96 271.092 98.32C270.572 97.6667 270.312 96.8467 270.312 95.86V89.3H271.892V95.68C271.892 96.3333 272.052 96.8733 272.372 97.3C272.692 97.7267 273.178 97.94 273.832 97.94C274.205 97.94 274.645 97.8333 275.152 97.62C275.658 97.4067 276.125 97.1067 276.552 96.72V89.3H278.132V99H277.152L276.692 97.94ZM285.651 98.96C285.505 99.0267 285.291 99.1 285.011 99.18C284.745 99.26 284.465 99.3 284.171 99.3C283.345 99.3 282.678 99.06 282.171 98.58C281.678 98.1 281.431 97.4 281.431 96.48V90.66H280.051L280.031 89.46H281.431V87L283.031 86.54V89.46H284.791L285.311 90.66H283.031V96.26C283.031 96.7533 283.138 97.16 283.351 97.48C283.565 97.7867 283.918 97.94 284.411 97.94C284.558 97.94 284.718 97.92 284.891 97.88C285.065 97.8267 285.198 97.78 285.291 97.74L285.651 98.96ZM22.86 121H17.44L17.26 119.8H19.4V111.58C19.1733 111.74 18.94 111.9 18.7 112.06C18.4733 112.207 18.2467 112.353 18.02 112.5C17.8867 112.327 17.76 112.147 17.64 111.96C17.52 111.773 17.4 111.593 17.28 111.42L19.94 109.68H21V119.8H22.7C22.7267 120.013 22.7533 120.22 22.78 120.42C22.82 120.607 22.8467 120.8 22.86 121ZM25.1097 115.26C25.1097 113.447 25.563 112.02 26.4697 110.98C27.3764 109.94 28.5564 109.42 30.0097 109.42C31.463 109.42 32.6364 109.927 33.5297 110.94C34.423 111.94 34.8697 113.373 34.8697 115.24C34.8697 117.053 34.4097 118.513 33.4897 119.62C32.5697 120.713 31.4097 121.26 30.0097 121.26C28.583 121.26 27.4097 120.727 26.4897 119.66C25.5697 118.593 25.1097 117.127 25.1097 115.26ZM26.6897 115.2C26.6897 116.68 27.003 117.833 27.6297 118.66C28.2564 119.487 29.0497 119.9 30.0097 119.9C30.9297 119.9 31.7097 119.487 32.3497 118.66C32.9897 117.833 33.3097 116.713 33.3097 115.3C33.3097 113.833 32.9964 112.713 32.3697 111.94C31.7564 111.153 30.9697 110.76 30.0097 110.76C29.063 110.76 28.2697 111.153 27.6297 111.94C27.003 112.713 26.6897 113.8 26.6897 115.2ZM37.2777 115.26C37.2777 113.447 37.731 112.02 38.6377 110.98C39.5443 109.94 40.7243 109.42 42.1777 109.42C43.631 109.42 44.8043 109.927 45.6977 110.94C46.591 111.94 47.0377 113.373 47.0377 115.24C47.0377 117.053 46.5777 118.513 45.6577 119.62C44.7377 120.713 43.5777 121.26 42.1777 121.26C40.751 121.26 39.5777 120.727 38.6577 119.66C37.7377 118.593 37.2777 117.127 37.2777 115.26ZM38.8577 115.2C38.8577 116.68 39.171 117.833 39.7977 118.66C40.4243 119.487 41.2177 119.9 42.1777 119.9C43.0977 119.9 43.8777 119.487 44.5177 118.66C45.1577 117.833 45.4777 116.713 45.4777 115.3C45.4777 113.833 45.1643 112.713 44.5377 111.94C43.9243 111.153 43.1377 110.76 42.1777 110.76C41.231 110.76 40.4377 111.153 39.7977 111.94C39.171 112.713 38.8577 113.8 38.8577 115.2ZM56.1722 117.36V121H54.5922V107.1L56.1722 106.88V115.48L60.5722 111.04L61.5322 112.06L58.5722 115C59.2255 116 59.8922 117 60.5722 118C61.2522 119 61.9189 120 62.5722 121H60.7122C60.1789 120.173 59.6455 119.347 59.1122 118.52C58.5789 117.68 58.0455 116.847 57.5122 116.02L56.1722 117.36ZM65.2355 109.38C64.9288 109.38 64.6755 109.28 64.4755 109.08C64.2755 108.867 64.1755 108.607 64.1755 108.3C64.1621 108.007 64.2555 107.76 64.4555 107.56C64.6688 107.347 64.9288 107.24 65.2355 107.24C65.5288 107.24 65.7821 107.347 65.9955 107.56C66.2221 107.76 66.3355 108.007 66.3355 108.3C66.3355 108.607 66.2221 108.867 65.9955 109.08C65.7821 109.28 65.5288 109.38 65.2355 109.38ZM64.4555 121V111.3H66.0555V121H64.4555ZM69.2211 121V107.1L70.8011 106.88V121H69.2211ZM77.6862 121.26C76.2596 121.247 75.1863 120.76 74.4663 119.8C73.7463 118.84 73.3863 117.607 73.3863 116.1C73.3996 114.633 73.7929 113.427 74.5663 112.48C75.3396 111.533 76.4463 111.053 77.8863 111.04C79.3529 111.04 80.4463 111.527 81.1663 112.5C81.8996 113.473 82.2663 114.713 82.2663 116.22C82.2529 117.7 81.8463 118.913 81.0463 119.86C80.2463 120.793 79.1263 121.26 77.6862 121.26ZM80.6863 116.22C80.6863 115.113 80.4729 114.2 80.0463 113.48C79.6329 112.76 78.9263 112.4 77.9263 112.4C76.9396 112.4 76.2063 112.747 75.7263 113.44C75.2596 114.12 75.0196 115 75.0063 116.08C75.0063 117.213 75.2063 118.133 75.6063 118.84C76.0063 119.547 76.7063 119.9 77.7063 119.9C78.7063 119.9 79.4463 119.567 79.9263 118.9C80.4196 118.233 80.6729 117.34 80.6863 116.22ZM92.2856 112.6C92.699 112.16 93.219 111.787 93.8456 111.48C94.4723 111.173 95.0723 111.02 95.6456 111.02C96.7656 111.02 97.5923 111.347 98.1256 112C98.659 112.64 98.9256 113.447 98.9256 114.42V120.98H97.3256V114.64C97.3256 113.987 97.1656 113.447 96.8456 113.02C96.5256 112.593 96.0323 112.373 95.3656 112.36C94.939 112.36 94.479 112.48 93.9856 112.72C93.5056 112.96 93.0523 113.3 92.6256 113.74C92.639 113.86 92.6456 113.98 92.6456 114.1C92.659 114.207 92.6656 114.313 92.6656 114.42V120.98H91.0656V114.64C91.0656 113.987 90.9056 113.447 90.5856 113.02C90.279 112.593 89.799 112.373 89.1456 112.36C88.7056 112.36 88.2456 112.48 87.7656 112.72C87.2856 112.947 86.8323 113.287 86.4056 113.74V121H84.8256V111.3H85.7856L86.2456 112.4C86.6723 112 87.1723 111.673 87.7456 111.42C88.319 111.153 88.8723 111.02 89.4056 111.02C90.1256 111.02 90.7256 111.167 91.2056 111.46C91.699 111.74 92.059 112.12 92.2856 112.6ZM110.035 116.4H102.995C103.035 117.427 103.308 118.28 103.815 118.96C104.322 119.627 105.122 119.96 106.215 119.96C106.868 119.96 107.395 119.893 107.795 119.76C108.208 119.613 108.602 119.453 108.975 119.28L109.475 120.44C109.062 120.72 108.522 120.92 107.855 121.04C107.188 121.173 106.655 121.24 106.255 121.24C104.642 121.24 103.422 120.767 102.595 119.82C101.768 118.86 101.355 117.627 101.355 116.12C101.368 114.653 101.762 113.44 102.535 112.48C103.322 111.52 104.435 111.04 105.875 111.04C107.382 111.04 108.448 111.573 109.075 112.64C109.715 113.693 110.035 114.947 110.035 116.4ZM108.475 115.32C108.368 114.453 108.108 113.747 107.695 113.2C107.282 112.653 106.655 112.38 105.815 112.38C104.975 112.38 104.322 112.653 103.855 113.2C103.402 113.747 103.128 114.453 103.035 115.32H108.475ZM116.901 120.96C116.755 121.027 116.541 121.1 116.261 121.18C115.995 121.26 115.715 121.3 115.421 121.3C114.595 121.3 113.928 121.06 113.421 120.58C112.928 120.1 112.681 119.4 112.681 118.48V112.66H111.301L111.281 111.46H112.681V109L114.281 108.54V111.46H116.041L116.561 112.66H114.281V118.26C114.281 118.753 114.388 119.16 114.601 119.48C114.815 119.787 115.168 119.94 115.661 119.94C115.808 119.94 115.968 119.92 116.141 119.88C116.315 119.827 116.448 119.78 116.541 119.74L116.901 120.96ZM127.105 116.4H120.065C120.105 117.427 120.379 118.28 120.885 118.96C121.392 119.627 122.192 119.96 123.285 119.96C123.939 119.96 124.465 119.893 124.865 119.76C125.279 119.613 125.672 119.453 126.045 119.28L126.545 120.44C126.132 120.72 125.592 120.92 124.925 121.04C124.259 121.173 123.725 121.24 123.325 121.24C121.712 121.24 120.492 120.767 119.665 119.82C118.839 118.86 118.425 117.627 118.425 116.12C118.439 114.653 118.832 113.44 119.605 112.48C120.392 111.52 121.505 111.04 122.945 111.04C124.452 111.04 125.519 111.573 126.145 112.64C126.785 113.693 127.105 114.947 127.105 116.4ZM125.545 115.32C125.439 114.453 125.179 113.747 124.765 113.2C124.352 112.653 123.725 112.38 122.885 112.38C122.045 112.38 121.392 112.653 120.925 113.2C120.472 113.747 120.199 114.453 120.105 115.32H125.545ZM129.572 121V111.3H130.532L131.012 112.66C131.372 112.353 131.832 112.053 132.392 111.76C132.965 111.453 133.512 111.3 134.032 111.3C134.085 111.513 134.145 111.727 134.212 111.94C134.278 112.14 134.345 112.347 134.412 112.56C133.838 112.56 133.258 112.72 132.672 113.04C132.085 113.347 131.578 113.713 131.152 114.14V121H129.572ZM141.693 113.06C141.373 112.9 141.007 112.747 140.593 112.6C140.18 112.453 139.687 112.38 139.113 112.38C138.527 112.38 138.053 112.5 137.693 112.74C137.347 112.98 137.173 113.307 137.173 113.72C137.173 114.093 137.373 114.413 137.773 114.68C138.187 114.933 138.713 115.167 139.353 115.38C140.14 115.66 140.873 116.04 141.553 116.52C142.247 117 142.593 117.64 142.593 118.44C142.593 119.32 142.26 120.013 141.593 120.52C140.94 121.013 139.98 121.26 138.713 121.26C138.3 121.26 137.78 121.187 137.153 121.04C136.527 120.907 136.013 120.707 135.613 120.44L136.093 119.24C136.467 119.427 136.88 119.587 137.333 119.72C137.8 119.853 138.267 119.92 138.733 119.92C139.453 119.92 140.013 119.807 140.413 119.58C140.813 119.353 141.013 119.007 141.013 118.54C141.013 118.127 140.793 117.767 140.353 117.46C139.913 117.14 139.367 116.873 138.713 116.66C137.953 116.407 137.233 116.06 136.553 115.62C135.887 115.167 135.553 114.56 135.553 113.8C135.553 112.933 135.873 112.26 136.513 111.78C137.167 111.287 138.047 111.04 139.153 111.04C139.567 111.04 140.08 111.12 140.693 111.28C141.307 111.427 141.8 111.633 142.173 111.9L141.693 113.06ZM155.346 113.06C155.026 112.9 154.659 112.747 154.246 112.6C153.832 112.453 153.339 112.38 152.766 112.38C152.179 112.38 151.706 112.5 151.346 112.74C150.999 112.98 150.826 113.307 150.826 113.72C150.826 114.093 151.026 114.413 151.426 114.68C151.839 114.933 152.366 115.167 153.006 115.38C153.792 115.66 154.526 116.04 155.206 116.52C155.899 117 156.246 117.64 156.246 118.44C156.246 119.32 155.912 120.013 155.246 120.52C154.592 121.013 153.632 121.26 152.366 121.26C151.952 121.26 151.432 121.187 150.806 121.04C150.179 120.907 149.666 120.707 149.266 120.44L149.746 119.24C150.119 119.427 150.532 119.587 150.986 119.72C151.452 119.853 151.919 119.92 152.386 119.92C153.106 119.92 153.666 119.807 154.066 119.58C154.466 119.353 154.666 119.007 154.666 118.54C154.666 118.127 154.446 117.767 154.006 117.46C153.566 117.14 153.019 116.873 152.366 116.66C151.606 116.407 150.886 116.06 150.206 115.62C149.539 115.167 149.206 114.56 149.206 113.8C149.206 112.933 149.526 112.26 150.166 111.78C150.819 111.287 151.699 111.04 152.806 111.04C153.219 111.04 153.732 111.12 154.346 111.28C154.959 111.427 155.452 111.633 155.826 111.9L155.346 113.06ZM162.471 121.26C161.045 121.247 159.971 120.76 159.251 119.8C158.531 118.84 158.171 117.607 158.171 116.1C158.185 114.633 158.578 113.427 159.351 112.48C160.125 111.533 161.231 111.053 162.671 111.04C164.138 111.04 165.231 111.527 165.951 112.5C166.685 113.473 167.051 114.713 167.051 116.22C167.038 117.7 166.631 118.913 165.831 119.86C165.031 120.793 163.911 121.26 162.471 121.26ZM165.471 116.22C165.471 115.113 165.258 114.2 164.831 113.48C164.418 112.76 163.711 112.4 162.711 112.4C161.725 112.4 160.991 112.747 160.511 113.44C160.045 114.12 159.805 115 159.791 116.08C159.791 117.213 159.991 118.133 160.391 118.84C160.791 119.547 161.491 119.9 162.491 119.9C163.491 119.9 164.231 119.567 164.711 118.9C165.205 118.233 165.458 117.34 165.471 116.22ZM175.891 119.94C175.464 120.327 174.971 120.647 174.411 120.9C173.851 121.153 173.311 121.28 172.791 121.28C171.657 121.28 170.824 120.96 170.291 120.32C169.771 119.667 169.511 118.847 169.511 117.86V111.3H171.091V117.68C171.091 118.333 171.251 118.873 171.571 119.3C171.891 119.727 172.377 119.94 173.031 119.94C173.404 119.94 173.844 119.833 174.351 119.62C174.857 119.407 175.324 119.107 175.751 118.72V111.3H177.331V121H176.351L175.891 119.94ZM184.851 120.96C184.704 121.027 184.491 121.1 184.211 121.18C183.944 121.26 183.664 121.3 183.371 121.3C182.544 121.3 181.877 121.06 181.371 120.58C180.877 120.1 180.631 119.4 180.631 118.48V112.66H179.251L179.231 111.46H180.631V109L182.231 108.54V111.46H183.991L184.511 112.66H182.231V118.26C182.231 118.753 182.337 119.16 182.551 119.48C182.764 119.787 183.117 119.94 183.611 119.94C183.757 119.94 183.917 119.92 184.091 119.88C184.264 119.827 184.397 119.78 184.491 119.74L184.851 120.96ZM188.575 112.58C188.988 112.14 189.501 111.773 190.115 111.48C190.728 111.173 191.315 111.02 191.875 111.02C192.995 111.02 193.815 111.347 194.335 112C194.868 112.64 195.135 113.447 195.135 114.42V120.98H193.555V114.64C193.555 113.987 193.395 113.447 193.075 113.02C192.768 112.593 192.275 112.373 191.595 112.36C191.181 112.36 190.681 112.5 190.095 112.78C189.508 113.06 189.001 113.447 188.575 113.94V121H186.995V107.08L188.575 106.88V112.58ZM206.606 121L204.086 113.62L201.746 121H200.186L196.926 111.54L198.526 111.3L200.986 118.74L203.326 111.3H204.926L207.386 118.74L209.726 111.3H211.326L208.166 121H206.606ZM221.305 116.4H214.265C214.305 117.427 214.578 118.28 215.085 118.96C215.591 119.627 216.391 119.96 217.485 119.96C218.138 119.96 218.665 119.893 219.065 119.76C219.478 119.613 219.871 119.453 220.245 119.28L220.745 120.44C220.331 120.72 219.791 120.92 219.125 121.04C218.458 121.173 217.925 121.24 217.525 121.24C215.911 121.24 214.691 120.767 213.865 119.82C213.038 118.86 212.625 117.627 212.625 116.12C212.638 114.653 213.031 113.44 213.805 112.48C214.591 111.52 215.705 111.04 217.145 111.04C218.651 111.04 219.718 111.573 220.345 112.64C220.985 113.693 221.305 114.947 221.305 116.4ZM219.745 115.32C219.638 114.453 219.378 113.747 218.965 113.2C218.551 112.653 217.925 112.38 217.085 112.38C216.245 112.38 215.591 112.653 215.125 113.2C214.671 113.747 214.398 114.453 214.305 115.32H219.745ZM229.291 113.06C228.971 112.9 228.604 112.747 228.191 112.6C227.778 112.453 227.284 112.38 226.711 112.38C226.124 112.38 225.651 112.5 225.291 112.74C224.944 112.98 224.771 113.307 224.771 113.72C224.771 114.093 224.971 114.413 225.371 114.68C225.784 114.933 226.311 115.167 226.951 115.38C227.738 115.66 228.471 116.04 229.151 116.52C229.844 117 230.191 117.64 230.191 118.44C230.191 119.32 229.858 120.013 229.191 120.52C228.538 121.013 227.578 121.26 226.311 121.26C225.898 121.26 225.378 121.187 224.751 121.04C224.124 120.907 223.611 120.707 223.211 120.44L223.691 119.24C224.064 119.427 224.478 119.587 224.931 119.72C225.398 119.853 225.864 119.92 226.331 119.92C227.051 119.92 227.611 119.807 228.011 119.58C228.411 119.353 228.611 119.007 228.611 118.54C228.611 118.127 228.391 117.767 227.951 117.46C227.511 117.14 226.964 116.873 226.311 116.66C225.551 116.407 224.831 116.06 224.151 115.62C223.484 115.167 223.151 114.56 223.151 113.8C223.151 112.933 223.471 112.26 224.111 111.78C224.764 111.287 225.644 111.04 226.751 111.04C227.164 111.04 227.678 111.12 228.291 111.28C228.904 111.427 229.398 111.633 229.771 111.9L229.291 113.06ZM237.097 120.96C236.95 121.027 236.737 121.1 236.457 121.18C236.19 121.26 235.91 121.3 235.617 121.3C234.79 121.3 234.123 121.06 233.617 120.58C233.123 120.1 232.877 119.4 232.877 118.48V112.66H231.497L231.477 111.46H232.877V109L234.477 108.54V111.46H236.237L236.757 112.66H234.477V118.26C234.477 118.753 234.583 119.16 234.797 119.48C235.01 119.787 235.363 119.94 235.857 119.94C236.003 119.94 236.163 119.92 236.337 119.88C236.51 119.827 236.643 119.78 236.737 119.74L237.097 120.96ZM247.647 121.26C246.221 121.247 245.147 120.76 244.427 119.8C243.707 118.84 243.347 117.607 243.347 116.1C243.361 114.633 243.754 113.427 244.527 112.48C245.301 111.533 246.407 111.053 247.847 111.04C249.314 111.04 250.407 111.527 251.127 112.5C251.861 113.473 252.227 114.713 252.227 116.22C252.214 117.7 251.807 118.913 251.007 119.86C250.207 120.793 249.087 121.26 247.647 121.26ZM250.647 116.22C250.647 115.113 250.434 114.2 250.007 113.48C249.594 112.76 248.887 112.4 247.887 112.4C246.901 112.4 246.167 112.747 245.687 113.44C245.221 114.12 244.981 115 244.967 116.08C244.967 117.213 245.167 118.133 245.567 118.84C245.967 119.547 246.667 119.9 247.667 119.9C248.667 119.9 249.407 119.567 249.887 118.9C250.381 118.233 250.634 117.34 250.647 116.22ZM255.047 109.96C255.047 109.04 255.287 108.313 255.767 107.78C256.247 107.233 256.907 106.96 257.747 106.96C258.027 106.96 258.307 107 258.587 107.08C258.867 107.16 259.08 107.24 259.227 107.32L258.867 108.58C258.76 108.527 258.62 108.48 258.447 108.44C258.273 108.4 258.12 108.38 257.987 108.38C257.493 108.38 257.14 108.533 256.927 108.84C256.727 109.147 256.627 109.547 256.627 110.04V111.5H258.407L258.927 112.72H256.627V121H255.047V112.72H253.587L253.567 111.5H255.047V109.96ZM265.505 118.86C265.798 118.86 266.045 118.967 266.245 119.18C266.458 119.38 266.565 119.627 266.565 119.92C266.565 120.227 266.458 120.487 266.245 120.7C266.045 120.9 265.798 121 265.505 121C265.198 121 264.938 120.9 264.725 120.7C264.512 120.487 264.405 120.227 264.405 119.92C264.405 119.627 264.512 119.38 264.725 119.18C264.938 118.967 265.198 118.86 265.505 118.86ZM268.239 118.86C268.533 118.86 268.779 118.967 268.979 119.18C269.193 119.38 269.299 119.627 269.299 119.92C269.299 120.227 269.193 120.487 268.979 120.7C268.779 120.9 268.533 121 268.239 121C267.933 121 267.673 120.9 267.459 120.7C267.246 120.487 267.139 120.227 267.139 119.92C267.139 119.627 267.246 119.38 267.459 119.18C267.673 118.967 267.933 118.86 268.239 118.86ZM270.974 118.86C271.267 118.86 271.514 118.967 271.714 119.18C271.927 119.38 272.034 119.627 272.034 119.92C272.034 120.227 271.927 120.487 271.714 120.7C271.514 120.9 271.267 121 270.974 121C270.667 121 270.407 120.9 270.194 120.7C269.98 120.487 269.874 120.227 269.874 119.92C269.874 119.627 269.98 119.38 270.194 119.18C270.407 118.967 270.667 118.86 270.974 118.86Z" fill="white"/>
</svg>
