<svg width="84" height="18" viewBox="0 0 84 18" fill="none" xmlns="http://www.w3.org/2000/svg">
<path d="M12.8881 13.9919C12.8881 14.5679 12.7121 15.0719 12.3601 15.5039C12.0081 15.9359 11.5361 16.2959 10.9441 16.5839C10.3521 16.8559 9.69607 17.0639 8.97607 17.2079C8.25607 17.3519 7.52807 17.4239 6.79207 17.4239C4.66407 17.4239 3.00007 16.6639 1.80007 15.1439C0.60007 13.6239 7.03633e-05 11.4799 7.03633e-05 8.71189C7.03633e-05 5.94389 0.61607 3.79989 1.84807 2.27989C3.09607 0.75989 4.82407 -0.000109673 7.03207 -0.000109673C7.68807 -0.000109673 8.33607 0.06389 8.97607 0.191889C9.61607 0.31989 10.2001 0.50389 10.7281 0.743889C11.2561 0.98389 11.6801 1.28789 12.0001 1.65589C12.3201 2.00789 12.4801 2.42389 12.4801 2.90389C12.4801 3.38389 12.2561 3.83189 11.8081 4.24789C11.3601 4.64789 10.6881 4.83989 9.79207 4.82389C9.68007 3.54389 9.39207 2.60789 8.92807 2.01589C8.48007 1.42389 7.86407 1.12789 7.08007 1.12789C5.91207 1.12789 5.05607 1.75989 4.51207 3.02389C3.96807 4.28789 3.69607 6.18389 3.69607 8.71189C3.69607 11.2399 3.96007 13.1359 4.48807 14.3999C5.01607 15.6639 5.84807 16.2959 6.98407 16.2959C7.54407 16.2959 8.03207 16.1519 8.44807 15.8639C8.88007 15.5759 9.23207 15.1359 9.50407 14.5439C9.77607 13.9519 9.96807 13.2079 10.0801 12.3119C10.5281 12.2479 10.9601 12.2719 11.3761 12.3839C11.8081 12.4799 12.1681 12.6639 12.4561 12.9359C12.7441 13.1919 12.8881 13.5439 12.8881 13.9919ZM20.2645 17.4239C18.3925 17.4239 16.9365 16.8479 15.8965 15.6959C14.8565 14.5439 14.3365 12.9439 14.3365 10.8959C14.3365 8.83189 14.8565 7.22389 15.8965 6.07189C16.9365 4.91989 18.3925 4.34389 20.2645 4.34389C22.1365 4.34389 23.5925 4.91989 24.6325 6.07189C25.6725 7.22389 26.1925 8.83189 26.1925 10.8959C26.1925 12.9439 25.6725 14.5439 24.6325 15.6959C23.5925 16.8479 22.1365 17.4239 20.2645 17.4239ZM20.2645 16.3199C21.0805 16.3199 21.6805 15.8639 22.0645 14.9519C22.4485 14.0399 22.6405 12.6879 22.6405 10.8959C22.6405 9.08789 22.4485 7.72789 22.0645 6.81589C21.6805 5.90389 21.0805 5.44789 20.2645 5.44789C19.4325 5.44789 18.8245 5.90389 18.4405 6.81589C18.0565 7.72789 17.8645 9.08789 17.8645 10.8959C17.8645 12.6879 18.0565 14.0399 18.4405 14.9519C18.8245 15.8639 19.4325 16.3199 20.2645 16.3199ZM30.8611 17.4479C30.3011 17.4479 29.8371 17.2799 29.4691 16.9439C29.1011 16.6079 28.9171 16.1519 28.9171 15.5759V8.06389C28.9011 7.59989 28.8451 7.27189 28.7491 7.07989C28.6531 6.88789 28.5011 6.79189 28.2931 6.79189C28.2131 6.79189 28.1091 6.80789 27.9811 6.83989C27.8531 6.87189 27.7491 6.95189 27.6691 7.07989C27.4611 6.75989 27.3571 6.41589 27.3571 6.04789C27.3571 5.55189 27.5251 5.14389 27.8611 4.82389C28.1971 4.50389 28.6851 4.34389 29.3251 4.34389C30.0771 4.34389 30.6771 4.59989 31.1251 5.11189C31.5731 5.62389 31.7971 6.40789 31.7971 7.46389V8.18389L31.3891 8.92789C31.5171 7.96789 31.7491 7.15189 32.0851 6.47989C32.4371 5.79189 32.9171 5.26389 33.5251 4.89589C34.1331 4.52789 34.8851 4.34389 35.7811 4.34389C37.1091 4.34389 38.0851 4.74389 38.7091 5.54389C39.3331 6.34389 39.6451 7.54389 39.6451 9.14389V13.5839C39.6611 13.9359 39.6931 14.4159 39.7411 15.0239C39.8051 15.6159 39.9411 16.1759 40.1491 16.7039C39.9251 16.9119 39.6531 17.0879 39.3331 17.2319C39.0291 17.3759 38.6691 17.4479 38.2531 17.4479C37.7091 17.4479 37.2531 17.2959 36.8851 16.9919C36.5331 16.6879 36.3571 16.2719 36.3571 15.7439V9.67189C36.3411 8.50389 36.2291 7.59989 36.0211 6.95989C35.8131 6.30389 35.3571 5.97589 34.6531 5.97589C34.2851 5.97589 33.9491 6.08789 33.6451 6.31189C33.3411 6.53589 33.0771 6.87989 32.8531 7.34389C32.6451 7.79189 32.4771 8.35989 32.3491 9.04789C32.2371 9.73589 32.1811 10.5359 32.1811 11.4479C32.1811 12.2319 32.1811 12.8879 32.1811 13.4159C32.1971 13.9439 32.2211 14.3999 32.2531 14.7839C32.2851 15.1519 32.3331 15.4879 32.3971 15.7919C32.4771 16.0959 32.5891 16.4079 32.7331 16.7279C32.5891 16.8559 32.3491 17.0079 32.0131 17.1839C31.6931 17.3599 31.3091 17.4479 30.8611 17.4479ZM45.9784 17.3279C45.0024 17.3279 44.2584 17.0239 43.7464 16.4159C43.2344 15.7919 42.9784 14.9519 42.9784 13.8959V3.16789C42.9784 2.63989 43.1544 2.23189 43.5064 1.94389C43.8744 1.63989 44.3304 1.48789 44.8744 1.48789C45.3544 1.48789 45.7544 1.57589 46.0744 1.75189C46.3944 1.92789 46.6184 2.07989 46.7464 2.20789C46.5384 2.97589 46.4024 3.69589 46.3384 4.36789C46.2904 5.03989 46.2664 5.87189 46.2664 6.86389V13.6079C46.2664 14.0239 46.3544 14.3439 46.5304 14.5679C46.7224 14.7759 46.9944 14.8799 47.3464 14.8799C47.5064 14.8799 47.6824 14.8559 47.8744 14.8079C48.0824 14.7599 48.2184 14.6799 48.2824 14.5679C48.4104 14.7279 48.4984 14.9039 48.5464 15.0959C48.5944 15.2879 48.6184 15.4559 48.6184 15.5999C48.6184 16.0959 48.3784 16.5119 47.8984 16.8479C47.4344 17.1679 46.7944 17.3279 45.9784 17.3279ZM41.1784 6.26389L41.2024 5.47189C41.2184 5.19989 41.3064 5.00789 41.4664 4.89589C41.6424 4.76789 41.8424 4.70389 42.0664 4.70389H46.2424C46.3064 4.70389 46.4744 4.70389 46.7464 4.70389C47.0344 4.68789 47.3544 4.67989 47.7064 4.67989C48.0744 4.66389 48.3944 4.65589 48.6664 4.65589C48.9544 4.63989 49.1304 4.62389 49.1944 4.60789L49.1704 5.37589C49.1544 5.63189 49.0664 5.83189 48.9064 5.97589C48.7464 6.10389 48.5544 6.16789 48.3304 6.16789H42.6184C42.4584 6.16789 42.2184 6.17589 41.8984 6.19189C41.5784 6.20789 41.3384 6.23189 41.1784 6.26389ZM60.6816 17.3279C59.8496 17.3279 59.1936 17.0319 58.7136 16.4399C58.2496 15.8319 58.0176 14.7599 58.0176 13.2239V12.3119L58.5936 12.4319C58.4336 13.3119 58.1296 14.1279 57.6816 14.8799C57.2336 15.6159 56.6576 16.2079 55.9536 16.6559C55.2496 17.1039 54.4176 17.3279 53.4576 17.3279C52.5456 17.3279 51.7856 17.0879 51.1776 16.6079C50.5856 16.1279 50.2896 15.4239 50.2896 14.4959C50.2896 13.7279 50.4976 13.0799 50.9136 12.5519C51.3456 12.0079 51.8816 11.5679 52.5216 11.2319C53.1776 10.8959 53.8336 10.6319 54.4896 10.4399C55.1296 10.2639 55.7296 10.1439 56.2896 10.0799C56.8656 9.99989 57.3776 9.95189 57.8256 9.93589V9.33589C57.8256 8.03989 57.6816 7.06389 57.3936 6.40789C57.1056 5.75189 56.5856 5.42389 55.8336 5.42389C55.5296 5.42389 55.2496 5.48789 54.9936 5.61589C54.7536 5.72789 54.5616 5.91189 54.4176 6.16789C54.2896 6.42389 54.2256 6.76789 54.2256 7.19989C54.2256 7.51989 54.2816 7.84789 54.3936 8.18389C54.5056 8.51989 54.7296 8.78389 55.0656 8.97589C54.8736 9.16789 54.6176 9.31189 54.2976 9.40789C53.9936 9.50389 53.6656 9.55189 53.3136 9.55189C52.5296 9.55189 51.9216 9.33589 51.4896 8.90389C51.0736 8.47189 50.8656 7.94389 50.8656 7.31989C50.8656 6.35989 51.3296 5.62389 52.2576 5.11189C53.2016 4.59989 54.4576 4.34389 56.0256 4.34389C57.8176 4.34389 59.1296 4.74389 59.9616 5.54389C60.7936 6.34389 61.2096 7.67989 61.2096 9.55189V13.6079C61.2096 14.4559 61.4736 14.8799 62.0016 14.8799C62.0816 14.8799 62.1856 14.8559 62.3136 14.8079C62.4576 14.7599 62.5696 14.6799 62.6496 14.5679C62.7616 14.7279 62.8416 14.9039 62.8896 15.0959C62.9376 15.2879 62.9616 15.4559 62.9616 15.5999C62.9616 16.0639 62.7536 16.4719 62.3376 16.8239C61.9376 17.1599 61.3856 17.3279 60.6816 17.3279ZM55.1856 15.1919C55.4896 15.1599 55.8016 15.0399 56.1216 14.8319C56.4416 14.6079 56.7376 14.3119 57.0096 13.9439C57.2816 13.5599 57.4976 13.1199 57.6576 12.6239C57.8336 12.1279 57.9216 11.5839 57.9216 10.9919C57.6176 10.9919 57.3056 11.0079 56.9856 11.0399C56.6656 11.0559 56.3536 11.1039 56.0496 11.1839C55.7616 11.2639 55.4896 11.3759 55.2336 11.5199C54.8496 11.7279 54.5296 12.0239 54.2736 12.4079C54.0336 12.7759 53.9136 13.1999 53.9136 13.6799C53.9136 14.0799 54.0096 14.4479 54.2016 14.7839C54.4096 15.1039 54.7376 15.2399 55.1856 15.1919ZM70.0263 17.4239C68.0743 17.4239 66.5703 16.8559 65.5143 15.7199C64.4583 14.5679 63.9303 12.9439 63.9303 10.8479C63.9303 8.83189 64.4583 7.24789 65.5143 6.09589C66.5863 4.92789 68.1143 4.34389 70.0983 4.34389C71.6183 4.34389 72.7383 4.64789 73.4583 5.25589C74.1783 5.86389 74.5383 6.58389 74.5383 7.41589C74.5383 8.07189 74.3223 8.59189 73.8903 8.97589C73.4743 9.35989 72.9383 9.55189 72.2823 9.55189C71.9623 9.55189 71.6423 9.50389 71.3223 9.40789C71.0023 9.31189 70.7543 9.16789 70.5783 8.97589C70.8023 8.75189 70.9703 8.49589 71.0823 8.20789C71.1943 7.90389 71.2503 7.54389 71.2503 7.12789C71.2503 6.71189 71.1863 6.38389 71.0583 6.14389C70.9463 5.88789 70.7863 5.71189 70.5783 5.61589C70.3703 5.50389 70.1223 5.44789 69.8343 5.44789C69.0983 5.44789 68.5143 5.87189 68.0823 6.71989C67.6663 7.56789 67.4583 8.76789 67.4583 10.3199C67.4583 11.5039 67.5943 12.4719 67.8663 13.2239C68.1543 13.9599 68.5623 14.5039 69.0903 14.8559C69.6343 15.2079 70.2823 15.3839 71.0343 15.3839C71.6103 15.3839 72.1143 15.2879 72.5463 15.0959C72.9943 14.9039 73.3623 14.6479 73.6503 14.3279C73.9383 13.9919 74.1383 13.6239 74.2503 13.2239C74.4263 13.2879 74.5463 13.4399 74.6103 13.6799C74.6903 13.9039 74.6743 14.2479 74.5623 14.7119C74.3383 15.5599 73.8183 16.2239 73.0023 16.7039C72.1863 17.1839 71.1943 17.4239 70.0263 17.4239ZM80.2909 17.3279C79.3149 17.3279 78.5709 17.0239 78.0589 16.4159C77.5469 15.7919 77.2909 14.9519 77.2909 13.8959V3.16789C77.2909 2.63989 77.4669 2.23189 77.8189 1.94389C78.1869 1.63989 78.6429 1.48789 79.1869 1.48789C79.6669 1.48789 80.0669 1.57589 80.3869 1.75189C80.7069 1.92789 80.9309 2.07989 81.0589 2.20789C80.8509 2.97589 80.7149 3.69589 80.6509 4.36789C80.6029 5.03989 80.5789 5.87189 80.5789 6.86389V13.6079C80.5789 14.0239 80.6669 14.3439 80.8429 14.5679C81.0349 14.7759 81.3069 14.8799 81.6589 14.8799C81.8189 14.8799 81.9949 14.8559 82.1869 14.8079C82.3949 14.7599 82.5309 14.6799 82.5949 14.5679C82.7229 14.7279 82.8109 14.9039 82.8589 15.0959C82.9069 15.2879 82.9309 15.4559 82.9309 15.5999C82.9309 16.0959 82.6909 16.5119 82.2109 16.8479C81.7469 17.1679 81.1069 17.3279 80.2909 17.3279ZM75.4909 6.26389L75.5149 5.47189C75.5309 5.19989 75.6189 5.00789 75.7789 4.89589C75.9549 4.76789 76.1549 4.70389 76.3789 4.70389H80.5549C80.6189 4.70389 80.7869 4.70389 81.0589 4.70389C81.3469 4.68789 81.6669 4.67989 82.0189 4.67989C82.3869 4.66389 82.7069 4.65589 82.9789 4.65589C83.2669 4.63989 83.4429 4.62389 83.5069 4.60789L83.4829 5.37589C83.4669 5.63189 83.3789 5.83189 83.2189 5.97589C83.0589 6.10389 82.8669 6.16789 82.6429 6.16789H76.9309C76.7709 6.16789 76.5309 6.17589 76.2109 6.19189C75.8909 6.20789 75.6509 6.23189 75.4909 6.26389Z" fill="#F8F5EB"/>
</svg>
