<svg width="41" height="22" viewBox="0 0 41 22" fill="none" xmlns="http://www.w3.org/2000/svg">
<path d="M2.40004 17.4721C1.85604 17.4721 1.40004 17.3201 1.03204 17.0161C0.664037 16.7121 0.480037 16.2961 0.480037 15.7681V4.32006C0.480037 3.85606 0.448037 3.36006 0.384037 2.83206C0.336037 2.28806 0.208037 1.74406 3.71337e-05 1.20006C0.416037 0.832059 0.840037 0.60006 1.27204 0.50406C1.70404 0.40806 2.29604 0.36006 3.04804 0.36006H9.98404C10.208 0.36006 10.36 0.48806 10.44 0.74406C10.52 1.00006 10.536 1.31206 10.488 1.68006C10.44 2.03206 10.336 2.36806 10.176 2.68806C10.032 2.99206 9.84804 3.19206 9.62404 3.28806C8.79204 2.90406 7.87204 2.59206 6.86404 2.35206C5.87204 2.11206 4.85604 1.97606 3.81604 1.94406L3.84004 13.6081C3.84004 14.0561 3.86404 14.5601 3.91204 15.1201C3.97604 15.6641 4.11204 16.2001 4.32004 16.7281C4.17604 16.8561 3.93604 17.0081 3.60004 17.1841C3.26404 17.3761 2.86404 17.4721 2.40004 17.4721ZM3.21604 9.38406V7.58406H8.90404C8.98404 7.88806 9.01604 8.20006 9.00004 8.52006C8.98404 8.84006 8.95204 9.12806 8.90404 9.38406H3.21604ZM18.8016 5.91278e-05C19.2016 5.91278e-05 19.5696 0.0720592 19.9056 0.216059C20.2576 0.360059 20.4896 0.648059 20.6016 1.08006L24.7776 15.1441C24.8416 15.3521 24.9376 15.6081 25.0656 15.9121C25.1936 16.2161 25.3616 16.4801 25.5696 16.7041C25.4256 16.8641 25.2016 17.0241 24.8976 17.1841C24.5936 17.3601 24.1616 17.4481 23.6016 17.4481C23.0896 17.4481 22.6496 17.3361 22.2816 17.1121C21.9136 16.9041 21.6816 16.5841 21.5856 16.1521L17.6976 1.27206L18.0336 1.34406L14.5776 15.1921C14.5296 15.3841 14.4896 15.5761 14.4576 15.7681C14.4256 15.9441 14.4096 16.1201 14.4096 16.2961C14.4096 16.4881 14.4336 16.6481 14.4816 16.7761C14.5296 16.9041 14.5936 17.0081 14.6736 17.0881C14.4336 17.1841 14.1696 17.2641 13.8816 17.3281C13.6096 17.4081 13.2656 17.4481 12.8496 17.4481C12.2096 17.4481 11.7376 17.3361 11.4336 17.1121C11.1296 16.9041 10.9776 16.5521 10.9776 16.0561C10.9776 15.8481 11.0016 15.6001 11.0496 15.3121C11.1136 15.0081 11.2016 14.6881 11.3136 14.3521L15.9696 0.45606C16.8976 0.15206 17.8416 5.91278e-05 18.8016 5.91278e-05ZM14.4336 10.4641H22.4016V12.2401H14.4336V10.4641ZM38.1724 21.1201C37.6604 21.1201 37.1004 21.0401 36.4924 20.8801C35.8844 20.7361 35.2524 20.5281 34.5964 20.2561C33.9564 20.0001 33.3244 19.6961 32.7004 19.3441C32.0764 18.9921 31.4924 18.6161 30.9484 18.2161C30.0204 17.5441 29.1884 16.7921 28.4524 15.9601C27.7324 15.1121 27.1564 14.1121 26.7244 12.9601C26.3084 11.7921 26.1004 10.3921 26.1004 8.76006C26.1004 5.84806 26.7164 3.66406 27.9484 2.20806C29.1804 0.75206 30.8844 0.0240602 33.0604 0.0240602C35.2524 0.0240602 36.9564 0.75206 38.1724 2.20806C39.4044 3.66406 40.0204 5.84006 40.0204 8.73606C40.0204 10.5601 39.7244 12.1281 39.1324 13.4401C38.5564 14.7361 37.7484 15.7281 36.7084 16.4161C35.6684 17.1041 34.4444 17.4481 33.0364 17.4481C32.7804 17.4481 32.5484 17.4321 32.3404 17.4001C32.1324 17.3841 31.9084 17.3441 31.6684 17.2801C32.0204 17.5681 32.4204 17.8081 32.8684 18.0001C33.3324 18.1921 33.8124 18.3361 34.3084 18.4321C34.8044 18.5281 35.2844 18.5761 35.7484 18.5761C36.5484 18.5761 37.2604 18.4561 37.8844 18.2161C38.5244 17.9921 38.9324 17.6401 39.1084 17.1601C39.6364 17.2401 40.0524 17.4321 40.3564 17.7361C40.6764 18.0561 40.8364 18.4801 40.8364 19.0081C40.8364 19.5521 40.6044 20.0401 40.1404 20.4721C39.6764 20.9041 39.0204 21.1201 38.1724 21.1201ZM32.9884 16.3201C34.0764 16.3201 34.8764 15.7281 35.3884 14.5441C35.9004 13.3441 36.1564 11.4001 36.1564 8.71206C36.1564 6.07206 35.9084 4.15206 35.4124 2.95206C34.9164 1.75206 34.1244 1.15206 33.0364 1.15206C31.8684 1.15206 31.0604 1.84006 30.6124 3.21606C30.1804 4.57606 29.9644 6.60806 29.9644 9.31206C29.9644 10.6561 30.0444 11.8561 30.2044 12.9121C30.3644 13.9681 30.6604 14.8001 31.0924 15.4081C31.5244 16.0161 32.1564 16.3201 32.9884 16.3201Z" fill="#F8F5EB"/>
</svg>
