<svg width="111" height="24" viewBox="0 0 111 24" fill="none" xmlns="http://www.w3.org/2000/svg">
<path d="M5.352 14.1359C5.352 14.5839 5.376 15.0879 5.424 15.6479C5.488 16.1919 5.624 16.7279 5.832 17.2559C5.688 17.3839 5.448 17.5359 5.112 17.7119C4.776 17.9039 4.376 17.9999 3.912 17.9999C3.368 17.9999 2.912 17.8479 2.544 17.5439C2.176 17.2399 1.992 16.8239 1.992 16.2959V4.41589C1.992 3.95189 1.96 3.45589 1.896 2.92789C1.848 2.38389 1.72 1.83989 1.512 1.29589C1.656 1.16789 1.896 1.01589 2.232 0.839891C2.568 0.663892 2.968 0.575892 3.432 0.575892C3.976 0.575892 4.432 0.727892 4.8 1.03189C5.168 1.31989 5.352 1.72789 5.352 2.25589V14.1359ZM14.832 14.1359C14.832 14.5839 14.856 15.0879 14.904 15.6479C14.968 16.1919 15.104 16.7279 15.312 17.2559C15.168 17.3839 14.928 17.5359 14.592 17.7119C14.256 17.9039 13.856 17.9999 13.392 17.9999C12.848 17.9999 12.392 17.8479 12.024 17.5439C11.656 17.2399 11.472 16.8239 11.472 16.2959V4.41589C11.472 3.95189 11.44 3.45589 11.376 2.92789C11.328 2.38389 11.2 1.83989 10.992 1.29589C11.136 1.16789 11.376 1.01589 11.712 0.839891C12.048 0.663892 12.448 0.575892 12.912 0.575892C13.456 0.575892 13.912 0.727892 14.28 1.03189C14.648 1.31989 14.832 1.72789 14.832 2.25589V14.1359ZM4.056 8.01589H12.48V9.79189H4.056V8.01589ZM19.6937 3.81589C19.1657 3.81589 18.7177 3.63989 18.3497 3.28789C17.9977 2.91989 17.8217 2.47989 17.8217 1.96789C17.8217 1.43989 17.9977 0.999892 18.3497 0.647892C18.7177 0.279892 19.1657 0.0958924 19.6937 0.0958924C20.2057 0.0958924 20.6377 0.279892 20.9897 0.647892C21.3577 0.999892 21.5417 1.43989 21.5417 1.96789C21.5417 2.47989 21.3577 2.91989 20.9897 3.28789C20.6377 3.63989 20.2057 3.81589 19.6937 3.81589ZM21.4457 14.1359C21.4457 14.5839 21.4697 15.0879 21.5177 15.6479C21.5817 16.1919 21.7177 16.7279 21.9257 17.2559C21.7817 17.3839 21.5417 17.5359 21.2057 17.7119C20.8857 17.9039 20.4937 17.9999 20.0297 17.9999C19.5177 17.9999 19.0777 17.8479 18.7097 17.5439C18.3577 17.2399 18.1817 16.8239 18.1817 16.2959V8.73589C18.1817 8.27189 18.1497 7.76789 18.0857 7.22389C18.0377 6.67989 17.9097 6.13589 17.7017 5.59189C17.8457 5.46389 18.0777 5.31189 18.3977 5.13589C18.7177 4.95989 19.1017 4.87189 19.5497 4.87189C20.0937 4.87189 20.5417 5.02389 20.8937 5.32789C21.2457 5.61589 21.4217 6.03189 21.4217 6.57589L21.4457 14.1359ZM28.5116 23.0159C27.7116 23.0159 26.9596 22.9199 26.2556 22.7279C25.5516 22.5519 24.9836 22.2559 24.5516 21.8399C24.1356 21.4399 23.9276 20.9119 23.9276 20.2559C23.9276 19.6479 24.1356 19.1599 24.5516 18.7919C24.9836 18.4239 25.5276 18.2399 26.1836 18.2399C26.9036 18.2399 27.4076 18.4239 27.6956 18.7919C27.4556 18.9999 27.2716 19.2479 27.1436 19.5359C27.0316 19.8239 26.9756 20.1279 26.9756 20.4479C26.9756 20.7359 27.0316 20.9999 27.1436 21.2399C27.2556 21.4799 27.4316 21.6719 27.6716 21.8159C27.9116 21.9599 28.2236 22.0319 28.6076 22.0319C29.6156 22.0319 30.3676 21.5679 30.8636 20.6399C31.3756 19.7119 31.6316 18.5119 31.6316 17.0399C31.6316 16.8159 31.6316 16.5359 31.6316 16.1999C31.6316 15.8479 31.6396 15.5279 31.6556 15.2399C31.3836 15.9919 30.9436 16.5759 30.3356 16.9919C29.7436 17.3919 28.9996 17.5919 28.1036 17.5919C27.2716 17.5919 26.5276 17.3999 25.8716 17.0159C25.2316 16.6319 24.7276 16.0079 24.3596 15.1439C24.0076 14.2639 23.8316 13.1039 23.8316 11.6639C23.8316 10.8799 23.8956 10.1439 24.0236 9.45589C24.1676 8.76789 24.3836 8.14389 24.6716 7.58389C24.9596 7.02389 25.3276 6.54389 25.7756 6.14389C26.2396 5.74389 26.7996 5.43989 27.4556 5.23189C28.1116 5.00789 28.8716 4.89589 29.7356 4.89589C30.4396 4.89589 31.1036 4.95989 31.7276 5.08789C32.3676 5.21589 32.9596 5.39989 33.5036 5.63989C34.0476 5.86389 34.5116 6.14389 34.8956 6.47989V16.5839C34.8956 18.1679 34.6156 19.4319 34.0556 20.3759C33.5116 21.3199 32.7596 21.9919 31.7996 22.3919C30.8396 22.8079 29.7436 23.0159 28.5116 23.0159ZM29.1116 16.0799C29.5276 16.0799 29.8876 15.9839 30.1916 15.7919C30.4956 15.5839 30.7516 15.2959 30.9596 14.9279C31.1676 14.5439 31.3276 14.0799 31.4396 13.5359C31.5516 12.9759 31.6076 12.3519 31.6076 11.6639L31.6316 6.50389C31.4236 6.34389 31.1676 6.22389 30.8636 6.14389C30.5596 6.04789 30.2476 5.99989 29.9276 5.99989C29.3996 5.99989 28.9676 6.13589 28.6316 6.40789C28.2956 6.67989 28.0316 7.07189 27.8396 7.58389C27.6636 8.09589 27.5356 8.72789 27.4556 9.47989C27.3756 10.2159 27.3356 11.0559 27.3356 11.9999C27.3356 13.5039 27.4556 14.5599 27.6956 15.1679C27.9516 15.7759 28.4236 16.0799 29.1116 16.0799ZM39.6206 17.9999C39.0766 17.9999 38.6206 17.8319 38.2526 17.4959C37.8846 17.1599 37.7006 16.7039 37.7006 16.1279V1.75189C37.6846 1.20789 37.8206 0.799891 38.1086 0.527891C38.4126 0.255892 38.7886 0.103892 39.2366 0.0718913C39.7486 0.0238919 40.2126 0.095892 40.6286 0.287891C41.0446 0.479892 41.3326 0.639892 41.4926 0.767892C41.2526 1.55189 41.1006 2.43189 41.0366 3.40789C40.9726 4.36789 40.9326 5.44789 40.9166 6.64789V8.73589L40.3646 9.47989C40.4926 8.51989 40.7166 7.70389 41.0366 7.03189C41.3726 6.34389 41.8286 5.81589 42.4046 5.44789C42.9806 5.07989 43.6926 4.89589 44.5406 4.89589C45.8686 4.89589 46.8446 5.29589 47.4686 6.09589C48.0926 6.89589 48.4046 8.09589 48.4046 9.69589V14.1359C48.4046 14.4879 48.4286 14.9679 48.4766 15.5759C48.5406 16.1679 48.6766 16.7279 48.8846 17.2559C48.6766 17.4479 48.4126 17.6159 48.0926 17.7599C47.7886 17.9199 47.4286 17.9999 47.0126 17.9999C46.4686 17.9999 46.0126 17.8479 45.6446 17.5439C45.2926 17.2399 45.1166 16.8239 45.1166 16.2959V10.2239C45.1166 9.00789 45.0046 8.07189 44.7806 7.41589C44.5726 6.74389 44.1166 6.40789 43.4126 6.40789C43.0446 6.40789 42.7086 6.52789 42.4046 6.76789C42.1006 6.99189 41.8366 7.34389 41.6126 7.82389C41.4046 8.28789 41.2366 8.87189 41.1086 9.57589C40.9966 10.2639 40.9406 11.0719 40.9406 11.9999C40.9406 12.7839 40.9406 13.4399 40.9406 13.9679C40.9566 14.4959 40.9806 14.9519 41.0126 15.3359C41.0446 15.7039 41.0926 16.0399 41.1566 16.3439C41.2366 16.6479 41.3486 16.9599 41.4926 17.2799C41.3486 17.4079 41.1166 17.5599 40.7966 17.7359C40.4766 17.9119 40.0846 17.9999 39.6206 17.9999ZM54.3636 17.8799C53.3876 17.8799 52.6436 17.5759 52.1316 16.9679C51.6356 16.3439 51.3876 15.5039 51.3876 14.4479V1.75189C51.3876 1.20789 51.5636 0.791892 51.9156 0.503891C52.2836 0.199892 52.7396 0.0478916 53.2836 0.0478916C53.7636 0.0478916 54.1636 0.135891 54.4836 0.311891C54.8036 0.487892 55.0276 0.639892 55.1556 0.767892C54.9476 1.53589 54.8116 2.26389 54.7476 2.95189C54.6996 3.62389 54.6756 4.45589 54.6756 5.44789V14.1599C54.6756 14.5759 54.7476 14.8959 54.8916 15.1199C55.0356 15.3279 55.2436 15.4319 55.5156 15.4319C55.6276 15.4319 55.7556 15.4079 55.8996 15.3599C56.0436 15.3119 56.1476 15.2319 56.2116 15.1199C56.3396 15.2799 56.4276 15.4559 56.4756 15.6479C56.5236 15.8399 56.5476 16.0079 56.5476 16.1519C56.5476 16.6479 56.3316 17.0639 55.8996 17.3999C55.4676 17.7199 54.9556 17.8799 54.3636 17.8799ZM60.1468 3.81589C59.6188 3.81589 59.1708 3.63989 58.8028 3.28789C58.4508 2.91989 58.2748 2.47989 58.2748 1.96789C58.2748 1.43989 58.4508 0.999892 58.8028 0.647892C59.1708 0.279892 59.6188 0.0958924 60.1468 0.0958924C60.6588 0.0958924 61.0908 0.279892 61.4428 0.647892C61.8108 0.999892 61.9948 1.43989 61.9948 1.96789C61.9948 2.47989 61.8108 2.91989 61.4428 3.28789C61.0908 3.63989 60.6588 3.81589 60.1468 3.81589ZM61.8988 14.1359C61.8988 14.5839 61.9228 15.0879 61.9708 15.6479C62.0348 16.1919 62.1708 16.7279 62.3788 17.2559C62.2348 17.3839 61.9948 17.5359 61.6588 17.7119C61.3388 17.9039 60.9468 17.9999 60.4828 17.9999C59.9708 17.9999 59.5308 17.8479 59.1628 17.5439C58.8108 17.2399 58.6348 16.8239 58.6348 16.2959V8.73589C58.6348 8.27189 58.6028 7.76789 58.5388 7.22389C58.4908 6.67989 58.3628 6.13589 58.1548 5.59189C58.2988 5.46389 58.5308 5.31189 58.8508 5.13589C59.1708 4.95989 59.5548 4.87189 60.0028 4.87189C60.5468 4.87189 60.9948 5.02389 61.3468 5.32789C61.6988 5.61589 61.8748 6.03189 61.8748 6.57589L61.8988 14.1359ZM68.9648 23.0159C68.1648 23.0159 67.4128 22.9199 66.7088 22.7279C66.0048 22.5519 65.4368 22.2559 65.0048 21.8399C64.5888 21.4399 64.3808 20.9119 64.3808 20.2559C64.3808 19.6479 64.5888 19.1599 65.0048 18.7919C65.4368 18.4239 65.9808 18.2399 66.6367 18.2399C67.3568 18.2399 67.8608 18.4239 68.1488 18.7919C67.9088 18.9999 67.7248 19.2479 67.5968 19.5359C67.4848 19.8239 67.4288 20.1279 67.4288 20.4479C67.4288 20.7359 67.4848 20.9999 67.5968 21.2399C67.7088 21.4799 67.8848 21.6719 68.1248 21.8159C68.3648 21.9599 68.6768 22.0319 69.0608 22.0319C70.0688 22.0319 70.8208 21.5679 71.3168 20.6399C71.8288 19.7119 72.0848 18.5119 72.0848 17.0399C72.0848 16.8159 72.0848 16.5359 72.0848 16.1999C72.0848 15.8479 72.0928 15.5279 72.1088 15.2399C71.8368 15.9919 71.3968 16.5759 70.7888 16.9919C70.1968 17.3919 69.4528 17.5919 68.5568 17.5919C67.7248 17.5919 66.9808 17.3999 66.3248 17.0159C65.6848 16.6319 65.1808 16.0079 64.8128 15.1439C64.4608 14.2639 64.2848 13.1039 64.2848 11.6639C64.2848 10.8799 64.3488 10.1439 64.4768 9.45589C64.6208 8.76789 64.8368 8.14389 65.1248 7.58389C65.4128 7.02389 65.7808 6.54389 66.2288 6.14389C66.6928 5.74389 67.2528 5.43989 67.9088 5.23189C68.5648 5.00789 69.3248 4.89589 70.1888 4.89589C70.8928 4.89589 71.5568 4.95989 72.1808 5.08789C72.8208 5.21589 73.4128 5.39989 73.9568 5.63989C74.5008 5.86389 74.9648 6.14389 75.3488 6.47989V16.5839C75.3488 18.1679 75.0688 19.4319 74.5088 20.3759C73.9648 21.3199 73.2128 21.9919 72.2528 22.3919C71.2928 22.8079 70.1968 23.0159 68.9648 23.0159ZM69.5648 16.0799C69.9808 16.0799 70.3408 15.9839 70.6448 15.7919C70.9488 15.5839 71.2048 15.2959 71.4128 14.9279C71.6208 14.5439 71.7808 14.0799 71.8928 13.5359C72.0048 12.9759 72.0608 12.3519 72.0608 11.6639L72.0848 6.50389C71.8768 6.34389 71.6208 6.22389 71.3168 6.14389C71.0128 6.04789 70.7008 5.99989 70.3808 5.99989C69.8528 5.99989 69.4208 6.13589 69.0848 6.40789C68.7488 6.67989 68.4848 7.07189 68.2928 7.58389C68.1168 8.09589 67.9888 8.72789 67.9088 9.47989C67.8288 10.2159 67.7888 11.0559 67.7888 11.9999C67.7888 13.5039 67.9088 14.5599 68.1488 15.1679C68.4048 15.7759 68.8768 16.0799 69.5648 16.0799ZM80.0738 17.9999C79.5298 17.9999 79.0738 17.8319 78.7058 17.4959C78.3378 17.1599 78.1538 16.7039 78.1538 16.1279V1.75189C78.1378 1.20789 78.2738 0.799891 78.5618 0.527891C78.8658 0.255892 79.2418 0.103892 79.6898 0.0718913C80.2018 0.0238919 80.6658 0.095892 81.0818 0.287891C81.4978 0.479892 81.7858 0.639892 81.9458 0.767892C81.7058 1.55189 81.5538 2.43189 81.4898 3.40789C81.4258 4.36789 81.3858 5.44789 81.3698 6.64789V8.73589L80.8178 9.47989C80.9458 8.51989 81.1698 7.70389 81.4898 7.03189C81.8258 6.34389 82.2818 5.81589 82.8578 5.44789C83.4338 5.07989 84.1458 4.89589 84.9938 4.89589C86.3218 4.89589 87.2978 5.29589 87.9218 6.09589C88.5458 6.89589 88.8578 8.09589 88.8578 9.69589V14.1359C88.8578 14.4879 88.8818 14.9679 88.9297 15.5759C88.9938 16.1679 89.1298 16.7279 89.3378 17.2559C89.1298 17.4479 88.8658 17.6159 88.5458 17.7599C88.2418 17.9199 87.8818 17.9999 87.4658 17.9999C86.9218 17.9999 86.4658 17.8479 86.0978 17.5439C85.7458 17.2399 85.5698 16.8239 85.5698 16.2959V10.2239C85.5698 9.00789 85.4578 8.07189 85.2338 7.41589C85.0258 6.74389 84.5698 6.40789 83.8658 6.40789C83.4978 6.40789 83.1618 6.52789 82.8578 6.76789C82.5538 6.99189 82.2898 7.34389 82.0658 7.82389C81.8578 8.28789 81.6898 8.87189 81.5618 9.57589C81.4498 10.2639 81.3938 11.0719 81.3938 11.9999C81.3938 12.7839 81.3938 13.4399 81.3938 13.9679C81.4098 14.4959 81.4338 14.9519 81.4658 15.3359C81.4978 15.7039 81.5458 16.0399 81.6098 16.3439C81.6898 16.6479 81.8018 16.9599 81.9458 17.2799C81.8018 17.4079 81.5698 17.5599 81.2498 17.7359C80.9298 17.9119 80.5378 17.9999 80.0738 17.9999ZM95.1767 17.8799C94.2007 17.8799 93.4567 17.5759 92.9447 16.9679C92.4327 16.3439 92.1767 15.5039 92.1767 14.4479V3.71989C92.1767 3.19189 92.3527 2.78389 92.7047 2.49589C93.0727 2.19189 93.5287 2.03989 94.0727 2.03989C94.5527 2.03989 94.9527 2.12789 95.2727 2.30389C95.5927 2.47989 95.8167 2.63189 95.9447 2.75989C95.7367 3.52789 95.6007 4.24789 95.5367 4.91989C95.4887 5.59189 95.4647 6.42389 95.4647 7.41589V14.1599C95.4647 14.5759 95.5527 14.8959 95.7287 15.1199C95.9207 15.3279 96.1927 15.4319 96.5447 15.4319C96.7047 15.4319 96.8807 15.4079 97.0727 15.3599C97.2807 15.3119 97.4167 15.2319 97.4807 15.1199C97.6087 15.2799 97.6967 15.4559 97.7447 15.6479C97.7927 15.8399 97.8167 16.0079 97.8167 16.1519C97.8167 16.6479 97.5767 17.0639 97.0967 17.3999C96.6327 17.7199 95.9927 17.8799 95.1767 17.8799ZM90.3767 6.81589L90.4007 6.02389C90.4167 5.75189 90.5047 5.55989 90.6647 5.44789C90.8407 5.31989 91.0407 5.25589 91.2647 5.25589H95.4407C95.5047 5.25589 95.6727 5.25589 95.9447 5.25589C96.2327 5.23989 96.5527 5.23189 96.9047 5.23189C97.2727 5.21589 97.5927 5.20789 97.8647 5.20789C98.1527 5.19189 98.3287 5.17589 98.3927 5.15989L98.3687 5.92789C98.3527 6.18389 98.2647 6.38389 98.1047 6.52789C97.9447 6.65589 97.7527 6.71989 97.5287 6.71989H91.8167C91.6567 6.71989 91.4167 6.72789 91.0967 6.74389C90.7767 6.75989 90.5367 6.78389 90.3767 6.81589ZM103.929 17.9759C102.889 17.9759 102.025 17.8559 101.337 17.6159C100.665 17.3759 100.161 17.0479 99.825 16.6319C99.489 16.2159 99.321 15.7359 99.321 15.1919C99.321 14.9039 99.393 14.6159 99.537 14.3279C99.681 14.0239 99.929 13.7839 100.281 13.6079C100.633 13.4319 101.121 13.3999 101.745 13.5119C101.697 13.7359 101.673 13.9519 101.673 14.1599C101.689 14.3679 101.729 14.5839 101.793 14.8079C101.873 15.2879 102.113 15.7439 102.513 16.1759C102.929 16.5919 103.553 16.7999 104.385 16.7999C104.961 16.7999 105.449 16.6879 105.849 16.4639C106.249 16.2239 106.449 15.8559 106.449 15.3599C106.449 14.9439 106.313 14.5999 106.041 14.3279C105.785 14.0399 105.441 13.7839 105.009 13.5599C104.593 13.3359 104.145 13.1119 103.665 12.8879C103.057 12.5999 102.441 12.2799 101.817 11.9279C101.209 11.5599 100.705 11.1039 100.305 10.5599C99.905 9.99989 99.705 9.28789 99.705 8.42389C99.705 7.57589 99.929 6.89589 100.377 6.38389C100.825 5.85589 101.417 5.47189 102.153 5.23189C102.889 4.99189 103.681 4.87189 104.529 4.87189C105.809 4.87189 106.865 5.06389 107.697 5.44789C108.529 5.83189 108.945 6.41589 108.945 7.19989C108.945 7.56789 108.825 7.91189 108.585 8.23189C108.361 8.53589 107.953 8.69589 107.361 8.71189C107.201 8.72789 107.049 8.72789 106.905 8.71189C106.777 8.69589 106.649 8.67989 106.521 8.66389C106.537 8.43989 106.529 8.19989 106.497 7.94389C106.481 7.67189 106.417 7.43189 106.305 7.22389C106.177 6.85589 105.953 6.55989 105.633 6.33589C105.313 6.11189 104.905 5.99989 104.409 5.99989C104.105 5.99989 103.817 6.04789 103.545 6.14389C103.289 6.22389 103.073 6.35989 102.897 6.55189C102.737 6.74389 102.657 6.99189 102.657 7.29589C102.657 7.71189 102.793 8.07989 103.065 8.39989C103.337 8.70389 103.697 8.97589 104.145 9.21589C104.593 9.45589 105.065 9.70389 105.561 9.95989C106.025 10.1839 106.489 10.4239 106.953 10.6799C107.417 10.9199 107.841 11.1999 108.225 11.5199C108.625 11.8399 108.937 12.2079 109.161 12.6239C109.401 13.0239 109.521 13.5039 109.521 14.0639C109.521 14.7039 109.337 15.3279 108.969 15.9359C108.601 16.5279 108.009 17.0159 107.193 17.3999C106.377 17.7839 105.289 17.9759 103.929 17.9759Z" fill="#F8F5EB"/>
</svg>
