<svg width="308" height="40" viewBox="0 0 308 40" fill="none" xmlns="http://www.w3.org/2000/svg">
<path d="M27.9239 31.9282C27.9239 33.1762 27.5426 34.2682 26.7799 35.2042C26.0172 36.1402 24.9946 36.9202 23.7119 37.5442C22.4292 38.1336 21.0079 38.5842 19.4479 38.8962C17.8879 39.2082 16.3106 39.3642 14.7159 39.3642C10.1052 39.3642 6.49991 37.7176 3.89991 34.4242C1.29991 31.1309 -9.16868e-05 26.4856 -9.16868e-05 20.4882C-9.16868e-05 14.4909 1.33458 9.84556 4.00391 6.55223C6.70791 3.2589 10.4519 1.61223 15.2359 1.61223C16.6572 1.61223 18.0612 1.7509 19.4479 2.02823C20.8346 2.30556 22.0999 2.70423 23.2439 3.22423C24.3879 3.74423 25.3066 4.4029 25.9999 5.20023C26.6932 5.9629 27.0399 6.86423 27.0399 7.90423C27.0399 8.94423 26.5546 9.91489 25.5839 10.8162C24.6132 11.6829 23.1572 12.0989 21.2159 12.0642C20.9732 9.2909 20.3492 7.2629 19.3439 5.98023C18.3732 4.69756 17.0386 4.05623 15.3399 4.05623C12.8092 4.05623 10.9546 5.42556 9.77591 8.16423C8.59724 10.9029 8.00791 15.0109 8.00791 20.4882C8.00791 25.9656 8.57991 30.0736 9.72391 32.8122C10.8679 35.5509 12.6706 36.9202 15.1319 36.9202C16.3452 36.9202 17.4026 36.6082 18.3039 35.9842C19.2399 35.3602 20.0026 34.4069 20.5919 33.1242C21.1812 31.8416 21.5972 30.2296 21.8399 28.2882C22.8106 28.1496 23.7466 28.2016 24.6479 28.4442C25.5839 28.6522 26.3639 29.0509 26.9879 29.6402C27.6119 30.1949 27.9239 30.9576 27.9239 31.9282ZM43.9062 39.3642C39.8502 39.3642 36.6955 38.1162 34.4422 35.6202C32.1889 33.1242 31.0622 29.6576 31.0622 25.2202C31.0622 20.7482 32.1889 17.2642 34.4422 14.7682C36.6955 12.2722 39.8502 11.0242 43.9062 11.0242C47.9622 11.0242 51.1169 12.2722 53.3702 14.7682C55.6235 17.2642 56.7502 20.7482 56.7502 25.2202C56.7502 29.6576 55.6235 33.1242 53.3702 35.6202C51.1169 38.1162 47.9622 39.3642 43.9062 39.3642ZM43.9062 36.9722C45.6742 36.9722 46.9742 35.9842 47.8062 34.0082C48.6382 32.0322 49.0542 29.1029 49.0542 25.2202C49.0542 21.3029 48.6382 18.3562 47.8062 16.3802C46.9742 14.4042 45.6742 13.4162 43.9062 13.4162C42.1035 13.4162 40.7862 14.4042 39.9542 16.3802C39.1222 18.3562 38.7062 21.3029 38.7062 25.2202C38.7062 29.1029 39.1222 32.0322 39.9542 34.0082C40.7862 35.9842 42.1035 36.9722 43.9062 36.9722ZM66.8654 39.4162C65.6521 39.4162 64.6467 39.0522 63.8494 38.3242C63.0521 37.5962 62.6534 36.6082 62.6534 35.3602V19.0842C62.6187 18.0789 62.4974 17.3682 62.2894 16.9522C62.0814 16.5362 61.7521 16.3282 61.3014 16.3282C61.1281 16.3282 60.9027 16.3629 60.6254 16.4322C60.3481 16.5016 60.1227 16.6749 59.9494 16.9522C59.4987 16.2589 59.2734 15.5136 59.2734 14.7162C59.2734 13.6416 59.6374 12.7576 60.3654 12.0642C61.0934 11.3709 62.1507 11.0242 63.5374 11.0242C65.1667 11.0242 66.4667 11.5789 67.4374 12.6882C68.4081 13.7976 68.8934 15.4962 68.8934 17.7842V19.3442L68.0094 20.9562C68.2867 18.8762 68.7894 17.1082 69.5174 15.6522C70.2801 14.1616 71.3201 13.0176 72.6374 12.2202C73.9547 11.4229 75.5841 11.0242 77.5254 11.0242C80.4027 11.0242 82.5174 11.8909 83.8694 13.6242C85.2214 15.3576 85.8974 17.9576 85.8974 21.4242V31.0442C85.9321 31.8069 86.0014 32.8469 86.1054 34.1642C86.2441 35.4469 86.5387 36.6602 86.9894 37.8042C86.5041 38.2549 85.9147 38.6362 85.2214 38.9482C84.5627 39.2602 83.7827 39.4162 82.8814 39.4162C81.7027 39.4162 80.7147 39.0869 79.9174 38.4282C79.1547 37.7696 78.7734 36.8682 78.7734 35.7242V22.5682C78.7387 20.0376 78.4961 18.0789 78.0454 16.6922C77.5947 15.2709 76.6067 14.5602 75.0814 14.5602C74.2841 14.5602 73.5561 14.8029 72.8974 15.2882C72.2387 15.7736 71.6667 16.5189 71.1814 17.5242C70.7307 18.4949 70.3667 19.7256 70.0894 21.2162C69.8467 22.7069 69.7254 24.4402 69.7254 26.4162C69.7254 28.1149 69.7254 29.5362 69.7254 30.6802C69.7601 31.8242 69.8121 32.8122 69.8814 33.6442C69.9507 34.4416 70.0547 35.1696 70.1934 35.8282C70.3667 36.4869 70.6094 37.1629 70.9214 37.8562C70.6094 38.1336 70.0894 38.4629 69.3614 38.8442C68.6681 39.2256 67.8361 39.4162 66.8654 39.4162ZM99.6197 39.1562C97.5051 39.1562 95.8931 38.4976 94.7837 37.1802C93.6744 35.8282 93.1197 34.0082 93.1197 31.7202V8.47623C93.1197 7.33223 93.5011 6.44823 94.2637 5.82423C95.0611 5.16556 96.0491 4.83623 97.2277 4.83623C98.2677 4.83623 99.1344 5.02689 99.8277 5.40823C100.521 5.78956 101.006 6.1189 101.284 6.39623C100.833 8.06023 100.538 9.62023 100.4 11.0762C100.296 12.5322 100.244 14.3349 100.244 16.4842V31.0962C100.244 31.9976 100.434 32.6909 100.816 33.1762C101.232 33.6269 101.821 33.8522 102.584 33.8522C102.93 33.8522 103.312 33.8002 103.728 33.6962C104.178 33.5922 104.473 33.4189 104.612 33.1762C104.889 33.5229 105.08 33.9042 105.184 34.3202C105.288 34.7362 105.34 35.1002 105.34 35.4122C105.34 36.4869 104.82 37.3882 103.78 38.1162C102.774 38.8096 101.388 39.1562 99.6197 39.1562ZM89.2197 15.1842L89.2717 13.4682C89.3064 12.8789 89.4971 12.4629 89.8437 12.2202C90.2251 11.9429 90.6584 11.8042 91.1437 11.8042H100.192C100.33 11.8042 100.694 11.8042 101.284 11.8042C101.908 11.7696 102.601 11.7522 103.364 11.7522C104.161 11.7176 104.854 11.7002 105.444 11.7002C106.068 11.6656 106.449 11.6309 106.588 11.5962L106.536 13.2602C106.501 13.8149 106.31 14.2482 105.964 14.5602C105.617 14.8376 105.201 14.9762 104.716 14.9762H92.3397C91.9931 14.9762 91.4731 14.9936 90.7797 15.0282C90.0864 15.0629 89.5664 15.1149 89.2197 15.1842ZM131.477 39.1562C129.674 39.1562 128.253 38.5149 127.213 37.2322C126.207 35.9149 125.705 33.5922 125.705 30.2642V28.2882L126.953 28.5482C126.606 30.4549 125.947 32.2229 124.977 33.8522C124.006 35.4469 122.758 36.7296 121.233 37.7002C119.707 38.6709 117.905 39.1562 115.825 39.1562C113.849 39.1562 112.202 38.6362 110.885 37.5962C109.602 36.5562 108.961 35.0309 108.961 33.0202C108.961 31.3562 109.411 29.9522 110.313 28.8082C111.249 27.6296 112.41 26.6762 113.797 25.9482C115.218 25.2202 116.639 24.6482 118.061 24.2322C119.447 23.8509 120.747 23.5909 121.961 23.4522C123.209 23.2789 124.318 23.1749 125.289 23.1402V21.8402C125.289 19.0322 124.977 16.9176 124.353 15.4962C123.729 14.0749 122.602 13.3642 120.973 13.3642C120.314 13.3642 119.707 13.5029 119.153 13.7802C118.633 14.0229 118.217 14.4216 117.905 14.9762C117.627 15.5309 117.489 16.2762 117.489 17.2122C117.489 17.9056 117.61 18.6162 117.853 19.3442C118.095 20.0722 118.581 20.6442 119.309 21.0602C118.893 21.4762 118.338 21.7882 117.645 21.9962C116.986 22.2042 116.275 22.3082 115.513 22.3082C113.814 22.3082 112.497 21.8402 111.561 20.9042C110.659 19.9682 110.209 18.8242 110.209 17.4722C110.209 15.3922 111.214 13.7976 113.225 12.6882C115.27 11.5789 117.991 11.0242 121.389 11.0242C125.271 11.0242 128.114 11.8909 129.917 13.6242C131.719 15.3576 132.621 18.2522 132.621 22.3082V31.0962C132.621 32.9336 133.193 33.8522 134.337 33.8522C134.51 33.8522 134.735 33.8002 135.013 33.6962C135.325 33.5922 135.567 33.4189 135.741 33.1762C135.983 33.5229 136.157 33.9042 136.261 34.3202C136.365 34.7362 136.417 35.1002 136.417 35.4122C136.417 36.4176 135.966 37.3016 135.065 38.0642C134.198 38.7922 133.002 39.1562 131.477 39.1562ZM119.569 34.5282C120.227 34.4589 120.903 34.1989 121.597 33.7482C122.29 33.2629 122.931 32.6216 123.521 31.8242C124.11 30.9922 124.578 30.0389 124.925 28.9642C125.306 27.8896 125.497 26.7109 125.497 25.4282C124.838 25.4282 124.162 25.4629 123.469 25.5322C122.775 25.5669 122.099 25.6709 121.441 25.8442C120.817 26.0176 120.227 26.2602 119.673 26.5722C118.841 27.0229 118.147 27.6642 117.593 28.4962C117.073 29.2936 116.813 30.2122 116.813 31.2522C116.813 32.1189 117.021 32.9162 117.437 33.6442C117.887 34.3376 118.598 34.6322 119.569 34.5282ZM151.723 39.3642C147.494 39.3642 144.235 38.1336 141.947 35.6722C139.659 33.1762 138.515 29.6576 138.515 25.1162C138.515 20.7482 139.659 17.3162 141.947 14.8202C144.27 12.2896 147.581 11.0242 151.879 11.0242C155.173 11.0242 157.599 11.6829 159.159 13.0002C160.719 14.3176 161.499 15.8776 161.499 17.6802C161.499 19.1016 161.031 20.2282 160.095 21.0602C159.194 21.8922 158.033 22.3082 156.611 22.3082C155.918 22.3082 155.225 22.2042 154.531 21.9962C153.838 21.7882 153.301 21.4762 152.919 21.0602C153.405 20.5749 153.769 20.0202 154.011 19.3962C154.254 18.7376 154.375 17.9576 154.375 17.0562C154.375 16.1549 154.237 15.4442 153.959 14.9242C153.717 14.3696 153.37 13.9882 152.919 13.7802C152.469 13.5376 151.931 13.4162 151.307 13.4162C149.713 13.4162 148.447 14.3349 147.511 16.1722C146.61 18.0096 146.159 20.6096 146.159 23.9722C146.159 26.5376 146.454 28.6349 147.043 30.2642C147.667 31.8589 148.551 33.0376 149.695 33.8002C150.874 34.5629 152.278 34.9442 153.907 34.9442C155.155 34.9442 156.247 34.7362 157.183 34.3202C158.154 33.9042 158.951 33.3496 159.575 32.6562C160.199 31.9282 160.633 31.1309 160.875 30.2642C161.257 30.4029 161.517 30.7322 161.655 31.2522C161.829 31.7376 161.794 32.4829 161.551 33.4882C161.066 35.3256 159.939 36.7642 158.171 37.8042C156.403 38.8442 154.254 39.3642 151.723 39.3642ZM173.963 39.1562C171.849 39.1562 170.237 38.4976 169.127 37.1802C168.018 35.8282 167.463 34.0082 167.463 31.7202V8.47623C167.463 7.33223 167.845 6.44823 168.607 5.82423C169.405 5.16556 170.393 4.83623 171.571 4.83623C172.611 4.83623 173.478 5.02689 174.171 5.40823C174.865 5.78956 175.35 6.1189 175.627 6.39623C175.177 8.06023 174.882 9.62023 174.743 11.0762C174.639 12.5322 174.587 14.3349 174.587 16.4842V31.0962C174.587 31.9976 174.778 32.6909 175.159 33.1762C175.575 33.6269 176.165 33.8522 176.927 33.8522C177.274 33.8522 177.655 33.8002 178.071 33.6962C178.522 33.5922 178.817 33.4189 178.955 33.1762C179.233 33.5229 179.423 33.9042 179.527 34.3202C179.631 34.7362 179.683 35.1002 179.683 35.4122C179.683 36.4869 179.163 37.3882 178.123 38.1162C177.118 38.8096 175.731 39.1562 173.963 39.1562ZM163.563 15.1842L163.615 13.4682C163.65 12.8789 163.841 12.4629 164.187 12.2202C164.569 11.9429 165.002 11.8042 165.487 11.8042H174.535C174.674 11.8042 175.038 11.8042 175.627 11.8042C176.251 11.7696 176.945 11.7522 177.707 11.7522C178.505 11.7176 179.198 11.7002 179.787 11.7002C180.411 11.6656 180.793 11.6309 180.931 11.5962L180.879 13.2602C180.845 13.8149 180.654 14.2482 180.307 14.5602C179.961 14.8376 179.545 14.9762 179.059 14.9762H166.683C166.337 14.9762 165.817 14.9936 165.123 15.0282C164.43 15.0629 163.91 15.1149 163.563 15.1842ZM200.518 39.4162C199.339 39.4162 198.351 39.0869 197.554 38.4282C196.791 37.7696 196.41 36.8682 196.41 35.7242V10.9722C196.41 9.41223 196.566 7.97356 196.878 6.65623C197.225 5.3389 197.779 4.17756 198.542 3.17223C199.339 2.1669 200.397 1.3869 201.714 0.832227C203.031 0.277562 204.661 0.000228882 206.602 0.000228882C209.167 0.000228882 211.143 0.398896 212.53 1.19623C213.951 1.99356 214.662 3.12023 214.662 4.57623C214.662 5.58156 214.281 6.41356 213.518 7.07223C212.755 7.69623 211.819 8.00823 210.71 8.00823C210.017 8.00823 209.375 7.92156 208.786 7.74823C208.231 7.54023 207.798 7.2629 207.486 6.91623C207.833 6.4309 208.075 5.98023 208.214 5.56423C208.353 5.14823 208.422 4.7149 208.422 4.26423C208.422 3.53623 208.266 3.01623 207.954 2.70423C207.677 2.35756 207.191 2.18423 206.498 2.18423C205.458 2.18423 204.73 2.65223 204.314 3.58823C203.898 4.52423 203.655 5.7549 203.586 7.28023C203.551 8.80556 203.534 10.4696 203.534 12.2722V31.0442C203.534 31.8069 203.586 32.8469 203.69 34.1642C203.829 35.4469 204.123 36.6602 204.574 37.8042C204.123 38.2202 203.551 38.5842 202.858 38.8962C202.199 39.2429 201.419 39.4162 200.518 39.4162ZM192.874 15.1842L192.926 13.4682C192.961 12.8789 193.151 12.4629 193.498 12.2202C193.879 11.9429 194.313 11.8042 194.798 11.8042H204.158C204.297 11.8042 204.643 11.8042 205.198 11.8042C205.787 11.7696 206.429 11.7522 207.122 11.7522C207.85 11.7176 208.491 11.7002 209.046 11.7002C209.635 11.6656 209.999 11.6309 210.138 11.5962L210.086 13.2602C210.051 13.8149 209.861 14.2482 209.514 14.5602C209.167 14.8376 208.751 14.9762 208.266 14.9762H195.994C195.647 14.9762 195.127 14.9936 194.434 15.0282C193.741 15.0629 193.221 15.1149 192.874 15.1842ZM225.195 39.3642C221.139 39.3642 217.985 38.1162 215.731 35.6202C213.478 33.1242 212.351 29.6576 212.351 25.2202C212.351 20.7482 213.478 17.2642 215.731 14.7682C217.985 12.2722 221.139 11.0242 225.195 11.0242C229.251 11.0242 232.406 12.2722 234.659 14.7682C236.913 17.2642 238.039 20.7482 238.039 25.2202C238.039 29.6576 236.913 33.1242 234.659 35.6202C232.406 38.1162 229.251 39.3642 225.195 39.3642ZM225.195 36.9722C226.963 36.9722 228.263 35.9842 229.095 34.0082C229.927 32.0322 230.343 29.1029 230.343 25.2202C230.343 21.3029 229.927 18.3562 229.095 16.3802C228.263 14.4042 226.963 13.4162 225.195 13.4162C223.393 13.4162 222.075 14.4042 221.243 16.3802C220.411 18.3562 219.995 21.3029 219.995 25.2202C219.995 29.1029 220.411 32.0322 221.243 34.0082C222.075 35.9842 223.393 36.9722 225.195 36.9722ZM248.102 39.2082C247.028 39.2082 246.057 38.8616 245.19 38.1682C244.358 37.4402 243.942 36.4349 243.942 35.1522V19.0842C243.942 18.0789 243.821 17.3682 243.578 16.9522C243.37 16.5362 243.041 16.3282 242.59 16.3282C242.417 16.3282 242.192 16.3629 241.914 16.4322C241.637 16.5016 241.412 16.6749 241.238 16.9522C240.788 16.2589 240.562 15.5136 240.562 14.7162C240.562 13.6416 240.926 12.7576 241.654 12.0642C242.382 11.3709 243.44 11.0242 244.826 11.0242C246.49 11.0242 247.808 11.6136 248.778 12.7922C249.784 13.9709 250.252 15.7909 250.182 18.2522V19.6042L249.558 19.0842C250.044 16.3456 250.893 14.3176 252.106 13.0002C253.354 11.6829 254.984 11.0242 256.994 11.0242C258.97 11.0242 260.582 11.5616 261.83 12.6362C263.113 13.6762 263.754 15.1322 263.754 17.0042C263.754 18.3562 263.338 19.4829 262.506 20.3842C261.674 21.2509 260.634 21.7016 259.386 21.7362C257.861 21.7362 256.769 21.3549 256.11 20.5922C256.492 19.8989 256.734 19.3096 256.838 18.8242C256.977 18.3042 257.046 17.6976 257.046 17.0042C257.046 16.1376 256.873 15.4789 256.526 15.0282C256.18 14.5429 255.642 14.3002 254.914 14.3002C254.117 14.3002 253.424 14.7509 252.834 15.6522C252.245 16.5189 251.794 17.8536 251.482 19.6562C251.17 21.4589 251.014 23.7122 251.014 26.4162C251.014 28.0456 251.014 29.4322 251.014 30.5762C251.049 31.6856 251.101 32.6389 251.17 33.4362C251.24 34.2336 251.344 34.9616 251.482 35.6202C251.656 36.2789 251.898 36.9549 252.21 37.6482C251.898 37.9256 251.378 38.2549 250.65 38.6362C249.957 38.9829 249.108 39.1736 248.102 39.2082ZM306.481 31.0442C306.481 31.8069 306.533 32.8469 306.637 34.1642C306.775 35.4469 307.07 36.6602 307.521 37.8042C307.07 38.2202 306.498 38.5842 305.805 38.8962C305.146 39.2429 304.349 39.4162 303.413 39.4162C302.234 39.4162 301.246 39.0869 300.449 38.4282C299.686 37.7696 299.305 36.8682 299.305 35.7242V22.5682C299.305 21.1122 299.253 19.7602 299.149 18.5122C299.045 17.2296 298.767 16.2069 298.317 15.4442C297.901 14.6816 297.207 14.3002 296.237 14.3002C295.543 14.3002 294.885 14.5602 294.261 15.0802C293.637 15.5656 293.082 16.3109 292.597 17.3162C292.111 18.2869 291.713 19.5349 291.401 21.0602C291.123 22.5509 290.985 24.2842 290.985 26.2602V31.0442C290.985 31.8069 291.037 32.8469 291.141 34.1642C291.279 35.4469 291.574 36.6602 292.025 37.8042C291.574 38.2202 291.019 38.5842 290.361 38.8962C289.737 39.2429 288.957 39.4162 288.021 39.4162C286.911 39.4162 285.975 39.0869 285.213 38.4282C284.45 37.7696 284.069 36.8682 284.069 35.7242V22.5682C284.069 19.9336 283.843 17.9056 283.393 16.4842C282.977 15.0282 282.058 14.3002 280.637 14.3002C279.909 14.3002 279.25 14.5602 278.661 15.0802C278.071 15.5656 277.551 16.3109 277.101 17.3162C276.685 18.3216 276.355 19.6042 276.113 21.1642C275.87 22.6896 275.749 24.4749 275.749 26.5202C275.749 28.1842 275.749 29.5882 275.749 30.7322C275.783 31.8762 275.835 32.8469 275.905 33.6442C275.974 34.4416 276.078 35.1696 276.217 35.8282C276.39 36.4869 276.633 37.1629 276.945 37.8562C276.633 38.1336 276.147 38.4629 275.489 38.8442C274.83 39.2256 273.946 39.4162 272.837 39.4162C271.658 39.4162 270.67 39.0522 269.873 38.3242C269.11 37.5962 268.729 36.6082 268.729 35.3602L268.677 19.0842C268.677 18.1136 268.555 17.4202 268.313 17.0042C268.07 16.5536 267.706 16.3282 267.221 16.3282C267.013 16.3282 266.77 16.3802 266.493 16.4842C266.215 16.5882 265.99 16.7789 265.817 17.0562C265.366 16.3629 265.141 15.6176 265.141 14.8202C265.141 13.7109 265.522 12.8096 266.285 12.1162C267.047 11.3882 268.105 11.0242 269.457 11.0242C271.155 11.0242 272.473 11.6309 273.409 12.8442C274.379 14.0576 274.865 15.9296 274.865 18.4602V20.1242L274.397 18.9282C274.917 16.5709 275.853 14.6642 277.205 13.2082C278.591 11.7522 280.55 11.0242 283.081 11.0242C285.473 11.0242 287.275 11.7002 288.489 13.0522C289.702 14.3696 290.465 16.3282 290.777 18.9282L289.997 18.7202C290.343 17.1949 290.881 15.8602 291.609 14.7162C292.337 13.5376 293.273 12.6362 294.417 12.0122C295.595 11.3536 296.982 11.0242 298.577 11.0242C301.246 11.0242 303.222 11.9082 304.505 13.6762C305.822 15.4096 306.481 17.9922 306.481 21.4242V31.0442Z" fill="#4EA487"/>
</svg>
