<svg width="89" height="46" viewBox="0 0 89 46" fill="none" xmlns="http://www.w3.org/2000/svg">
<path d="M5.20012 37.8562C4.02145 37.8562 3.03345 37.5268 2.23612 36.8682C1.43879 36.2095 1.04012 35.3082 1.04012 34.1642V9.36017C1.04012 8.35484 0.970788 7.28017 0.832121 6.13617C0.728121 4.9575 0.450788 3.77884 0.000121146 2.60017C0.901454 1.80284 1.82012 1.30017 2.75612 1.09217C3.69212 0.884171 4.97479 0.780171 6.60412 0.780171H21.6321C22.1175 0.780171 22.4468 1.0575 22.6201 1.61217C22.7935 2.16684 22.8281 2.84284 22.7241 3.64017C22.6201 4.40284 22.3948 5.13084 22.0481 5.82417C21.7361 6.48284 21.3375 6.91617 20.8521 7.12417C19.0495 6.29217 17.0561 5.61617 14.8721 5.09617C12.7228 4.57617 10.5215 4.2815 8.26812 4.21217L8.32012 29.4842C8.32012 30.4548 8.37212 31.5468 8.47612 32.7602C8.61479 33.9388 8.90945 35.1002 9.36012 36.2442C9.04812 36.5215 8.52812 36.8508 7.80012 37.2322C7.07212 37.6482 6.20545 37.8562 5.20012 37.8562ZM6.96812 20.3322V16.4322H19.2921C19.4655 17.0908 19.5348 17.7668 19.5001 18.4602C19.4655 19.1535 19.3961 19.7775 19.2921 20.3322H6.96812ZM40.7368 0.0001688C41.6035 0.0001688 42.4008 0.156169 43.1288 0.468169C43.8915 0.780169 44.3942 1.40417 44.6368 2.34017L53.6848 32.8122C53.8235 33.2628 54.0315 33.8175 54.3088 34.4762C54.5862 35.1348 54.9502 35.7068 55.4008 36.1922C55.0888 36.5388 54.6035 36.8855 53.9448 37.2322C53.2862 37.6135 52.3502 37.8042 51.1368 37.8042C50.0275 37.8042 49.0742 37.5615 48.2768 37.0762C47.4795 36.6255 46.9768 35.9322 46.7688 34.9962L38.3448 2.75617L39.0728 2.91217L31.5848 32.9162C31.4808 33.3322 31.3942 33.7482 31.3248 34.1642C31.2555 34.5455 31.2208 34.9268 31.2208 35.3082C31.2208 35.7242 31.2728 36.0708 31.3768 36.3482C31.4808 36.6255 31.6195 36.8508 31.7928 37.0242C31.2728 37.2322 30.7008 37.4055 30.0768 37.5442C29.4875 37.7175 28.7422 37.8042 27.8408 37.8042C26.4542 37.8042 25.4315 37.5615 24.7728 37.0762C24.1142 36.6255 23.7848 35.8628 23.7848 34.7882C23.7848 34.3375 23.8368 33.8002 23.9408 33.1762C24.0795 32.5175 24.2702 31.8242 24.5128 31.0962L34.6008 0.988172C36.6115 0.329503 38.6568 0.0001688 40.7368 0.0001688ZM31.2728 22.6722H48.5368V26.5202H31.2728V22.6722ZM82.7069 45.7602C81.5976 45.7602 80.3843 45.5868 79.0669 45.2402C77.7496 44.9282 76.3803 44.4775 74.9589 43.8882C73.5723 43.3335 72.2029 42.6748 70.8509 41.9122C69.4989 41.1495 68.2336 40.3348 67.0549 39.4682C65.0443 38.0122 63.2416 36.3828 61.6469 34.5802C60.0869 32.7428 58.8389 30.5762 57.9029 28.0802C57.0016 25.5495 56.5509 22.5162 56.5509 18.9802C56.5509 12.6708 57.8856 7.93884 60.5549 4.78417C63.2243 1.6295 66.9163 0.0521712 71.6309 0.0521712C76.3803 0.0521712 80.0723 1.6295 82.7069 4.78417C85.3763 7.93884 86.7109 12.6535 86.7109 18.9282C86.7109 22.8802 86.0696 26.2775 84.7869 29.1202C83.5389 31.9282 81.7883 34.0775 79.5349 35.5682C77.2816 37.0588 74.6296 37.8042 71.5789 37.8042C71.0243 37.8042 70.5216 37.7695 70.0709 37.7002C69.6203 37.6655 69.1349 37.5788 68.6149 37.4402C69.3776 38.0642 70.2443 38.5842 71.2149 39.0002C72.2203 39.4162 73.2603 39.7282 74.3349 39.9362C75.4096 40.1442 76.4496 40.2482 77.4549 40.2482C79.1883 40.2482 80.7309 39.9882 82.0829 39.4682C83.4696 38.9828 84.3536 38.2202 84.7349 37.1802C85.8789 37.3535 86.7803 37.7695 87.4389 38.4282C88.1323 39.1215 88.4789 40.0402 88.4789 41.1842C88.4789 42.3628 87.9763 43.4202 86.9709 44.3562C85.9656 45.2922 84.5443 45.7602 82.7069 45.7602ZM71.4749 35.3602C73.8323 35.3602 75.5656 34.0775 76.6749 31.5122C77.7843 28.9122 78.3389 24.7002 78.3389 18.8762C78.3389 13.1562 77.8016 8.99617 76.7269 6.39617C75.6523 3.79617 73.9363 2.49617 71.5789 2.49617C69.0483 2.49617 67.2976 3.98684 66.3269 6.96817C65.3909 9.91484 64.9229 14.3175 64.9229 20.1762C64.9229 23.0882 65.0963 25.6882 65.4429 27.9762C65.7896 30.2642 66.4309 32.0668 67.3669 33.3842C68.3029 34.7015 69.6723 35.3602 71.4749 35.3602Z" fill="#4EA487"/>
</svg>
