<svg width="86" height="22" viewBox="0 0 86 22" fill="none" xmlns="http://www.w3.org/2000/svg">
<path d="M14.016 14.404C14.016 14.98 13.84 15.484 13.488 15.916C13.136 16.348 12.664 16.708 12.072 16.996C11.48 17.268 10.824 17.476 10.104 17.62C9.384 17.764 8.656 17.836 7.92 17.836C5.792 17.836 4.128 17.076 2.928 15.556C1.728 14.036 1.128 11.892 1.128 9.124C1.128 6.356 1.744 4.212 2.976 2.692C4.224 1.172 5.952 0.412 8.16 0.412C8.816 0.412 9.464 0.475999 10.104 0.603999C10.744 0.731999 11.328 0.915999 11.856 1.156C12.384 1.396 12.808 1.7 13.128 2.068C13.448 2.42 13.608 2.836 13.608 3.316C13.608 3.796 13.384 4.244 12.936 4.66C12.488 5.06 11.816 5.252 10.92 5.236C10.808 3.956 10.52 3.02 10.056 2.428C9.608 1.836 8.992 1.54 8.208 1.54C7.04 1.54 6.184 2.172 5.64 3.436C5.096 4.7 4.824 6.596 4.824 9.124C4.824 11.652 5.088 13.548 5.616 14.812C6.144 16.076 6.976 16.708 8.112 16.708C8.672 16.708 9.16 16.564 9.576 16.276C10.008 15.988 10.36 15.548 10.632 14.956C10.904 14.364 11.096 13.62 11.208 12.724C11.656 12.66 12.088 12.684 12.504 12.796C12.936 12.892 13.296 13.076 13.584 13.348C13.872 13.604 14.016 13.956 14.016 14.404ZM21.3924 17.836C19.5204 17.836 18.0644 17.26 17.0244 16.108C15.9844 14.956 15.4644 13.356 15.4644 11.308C15.4644 9.244 15.9844 7.636 17.0244 6.484C18.0644 5.332 19.5204 4.756 21.3924 4.756C23.2644 4.756 24.7204 5.332 25.7604 6.484C26.8004 7.636 27.3204 9.244 27.3204 11.308C27.3204 13.356 26.8004 14.956 25.7604 16.108C24.7204 17.26 23.2644 17.836 21.3924 17.836ZM21.3924 16.732C22.2084 16.732 22.8084 16.276 23.1924 15.364C23.5764 14.452 23.7684 13.1 23.7684 11.308C23.7684 9.5 23.5764 8.14 23.1924 7.228C22.8084 6.316 22.2084 5.86 21.3924 5.86C20.5604 5.86 19.9524 6.316 19.5684 7.228C19.1844 8.14 18.9924 9.5 18.9924 11.308C18.9924 13.1 19.1844 14.452 19.5684 15.364C19.9524 16.276 20.5604 16.732 21.3924 16.732ZM31.989 17.86C31.429 17.86 30.965 17.692 30.597 17.356C30.229 17.02 30.045 16.564 30.045 15.988V8.476C30.029 8.012 29.973 7.684 29.877 7.492C29.781 7.3 29.629 7.204 29.421 7.204C29.341 7.204 29.237 7.22 29.109 7.252C28.981 7.284 28.877 7.364 28.797 7.492C28.589 7.172 28.485 6.828 28.485 6.46C28.485 5.964 28.653 5.556 28.989 5.236C29.325 4.916 29.813 4.756 30.453 4.756C31.205 4.756 31.805 5.012 32.253 5.524C32.701 6.036 32.925 6.82 32.925 7.876V8.596L32.517 9.34C32.645 8.38 32.877 7.564 33.213 6.892C33.565 6.204 34.045 5.676 34.653 5.308C35.261 4.94 36.013 4.756 36.909 4.756C38.237 4.756 39.213 5.156 39.837 5.956C40.461 6.756 40.773 7.956 40.773 9.556V13.996C40.789 14.348 40.821 14.828 40.869 15.436C40.933 16.028 41.069 16.588 41.277 17.116C41.053 17.324 40.781 17.5 40.461 17.644C40.157 17.788 39.797 17.86 39.381 17.86C38.837 17.86 38.381 17.708 38.013 17.404C37.661 17.1 37.485 16.684 37.485 16.156V10.084C37.469 8.916 37.357 8.012 37.149 7.372C36.941 6.716 36.485 6.388 35.781 6.388C35.413 6.388 35.077 6.5 34.773 6.724C34.469 6.948 34.205 7.292 33.981 7.756C33.773 8.204 33.605 8.772 33.477 9.46C33.365 10.148 33.309 10.948 33.309 11.86C33.309 12.644 33.309 13.3 33.309 13.828C33.325 14.356 33.349 14.812 33.381 15.196C33.413 15.564 33.461 15.9 33.525 16.204C33.605 16.508 33.717 16.82 33.861 17.14C33.717 17.268 33.477 17.42 33.141 17.596C32.821 17.772 32.437 17.86 31.989 17.86ZM47.1064 17.74C46.1304 17.74 45.3864 17.436 44.8744 16.828C44.3624 16.204 44.1064 15.364 44.1064 14.308V3.58C44.1064 3.052 44.2824 2.644 44.6344 2.356C45.0024 2.052 45.4584 1.9 46.0024 1.9C46.4824 1.9 46.8824 1.988 47.2024 2.164C47.5224 2.34 47.7464 2.492 47.8744 2.62C47.6664 3.388 47.5304 4.108 47.4664 4.78C47.4184 5.452 47.3944 6.284 47.3944 7.276V14.02C47.3944 14.436 47.4824 14.756 47.6584 14.98C47.8504 15.188 48.1224 15.292 48.4744 15.292C48.6344 15.292 48.8104 15.268 49.0024 15.22C49.2104 15.172 49.3464 15.092 49.4104 14.98C49.5384 15.14 49.6264 15.316 49.6744 15.508C49.7224 15.7 49.7464 15.868 49.7464 16.012C49.7464 16.508 49.5064 16.924 49.0264 17.26C48.5624 17.58 47.9224 17.74 47.1064 17.74ZM42.3064 6.676L42.3304 5.884C42.3464 5.612 42.4344 5.42 42.5944 5.308C42.7704 5.18 42.9704 5.116 43.1944 5.116H47.3704C47.4344 5.116 47.6024 5.116 47.8744 5.116C48.1624 5.1 48.4824 5.092 48.8344 5.092C49.2024 5.076 49.5224 5.068 49.7944 5.068C50.0824 5.052 50.2584 5.036 50.3224 5.02L50.2984 5.788C50.2824 6.044 50.1944 6.244 50.0344 6.388C49.8744 6.516 49.6824 6.58 49.4584 6.58H43.7464C43.5864 6.58 43.3464 6.588 43.0264 6.604C42.7064 6.62 42.4664 6.644 42.3064 6.676ZM61.8096 17.74C60.9776 17.74 60.3216 17.444 59.8416 16.852C59.3776 16.244 59.1456 15.172 59.1456 13.636V12.724L59.7216 12.844C59.5616 13.724 59.2576 14.54 58.8096 15.292C58.3616 16.028 57.7856 16.62 57.0816 17.068C56.3776 17.516 55.5456 17.74 54.5856 17.74C53.6736 17.74 52.9136 17.5 52.3056 17.02C51.7136 16.54 51.4176 15.836 51.4176 14.908C51.4176 14.14 51.6256 13.492 52.0416 12.964C52.4736 12.42 53.0096 11.98 53.6496 11.644C54.3056 11.308 54.9616 11.044 55.6176 10.852C56.2576 10.676 56.8576 10.556 57.4176 10.492C57.9936 10.412 58.5056 10.364 58.9536 10.348V9.748C58.9536 8.452 58.8096 7.476 58.5216 6.82C58.2336 6.164 57.7136 5.836 56.9616 5.836C56.6576 5.836 56.3776 5.9 56.1216 6.028C55.8816 6.14 55.6896 6.324 55.5456 6.58C55.4176 6.836 55.3536 7.18 55.3536 7.612C55.3536 7.932 55.4096 8.26 55.5216 8.596C55.6336 8.932 55.8576 9.196 56.1936 9.388C56.0016 9.58 55.7456 9.724 55.4256 9.82C55.1216 9.916 54.7936 9.964 54.4416 9.964C53.6576 9.964 53.0496 9.748 52.6176 9.316C52.2016 8.884 51.9936 8.356 51.9936 7.732C51.9936 6.772 52.4576 6.036 53.3856 5.524C54.3296 5.012 55.5856 4.756 57.1536 4.756C58.9456 4.756 60.2576 5.156 61.0896 5.956C61.9216 6.756 62.3376 8.092 62.3376 9.964V14.02C62.3376 14.868 62.6016 15.292 63.1296 15.292C63.2096 15.292 63.3136 15.268 63.4416 15.22C63.5856 15.172 63.6976 15.092 63.7776 14.98C63.8896 15.14 63.9696 15.316 64.0176 15.508C64.0656 15.7 64.0896 15.868 64.0896 16.012C64.0896 16.476 63.8816 16.884 63.4656 17.236C63.0656 17.572 62.5136 17.74 61.8096 17.74ZM56.3136 15.604C56.6176 15.572 56.9296 15.452 57.2496 15.244C57.5696 15.02 57.8656 14.724 58.1376 14.356C58.4096 13.972 58.6256 13.532 58.7856 13.036C58.9616 12.54 59.0496 11.996 59.0496 11.404C58.7456 11.404 58.4336 11.42 58.1136 11.452C57.7936 11.468 57.4816 11.516 57.1776 11.596C56.8896 11.676 56.6176 11.788 56.3616 11.932C55.9776 12.14 55.6576 12.436 55.4016 12.82C55.1616 13.188 55.0416 13.612 55.0416 14.092C55.0416 14.492 55.1376 14.86 55.3296 15.196C55.5376 15.516 55.8656 15.652 56.3136 15.604ZM71.1542 17.836C69.2022 17.836 67.6982 17.268 66.6422 16.132C65.5862 14.98 65.0582 13.356 65.0582 11.26C65.0582 9.244 65.5862 7.66 66.6422 6.508C67.7142 5.34 69.2422 4.756 71.2262 4.756C72.7462 4.756 73.8662 5.06 74.5862 5.668C75.3062 6.276 75.6662 6.996 75.6662 7.828C75.6662 8.484 75.4502 9.004 75.0182 9.388C74.6022 9.772 74.0662 9.964 73.4102 9.964C73.0902 9.964 72.7702 9.916 72.4502 9.82C72.1302 9.724 71.8822 9.58 71.7062 9.388C71.9302 9.164 72.0982 8.908 72.2102 8.62C72.3222 8.316 72.3782 7.956 72.3782 7.54C72.3782 7.124 72.3142 6.796 72.1862 6.556C72.0742 6.3 71.9142 6.124 71.7062 6.028C71.4982 5.916 71.2502 5.86 70.9622 5.86C70.2262 5.86 69.6422 6.284 69.2102 7.132C68.7942 7.98 68.5862 9.18 68.5862 10.732C68.5862 11.916 68.7222 12.884 68.9942 13.636C69.2822 14.372 69.6902 14.916 70.2182 15.268C70.7622 15.62 71.4102 15.796 72.1622 15.796C72.7382 15.796 73.2422 15.7 73.6742 15.508C74.1222 15.316 74.4902 15.06 74.7782 14.74C75.0662 14.404 75.2662 14.036 75.3782 13.636C75.5542 13.7 75.6742 13.852 75.7382 14.092C75.8182 14.316 75.8022 14.66 75.6902 15.124C75.4662 15.972 74.9462 16.636 74.1302 17.116C73.3142 17.596 72.3222 17.836 71.1542 17.836ZM81.4189 17.74C80.4429 17.74 79.6989 17.436 79.1869 16.828C78.6749 16.204 78.4189 15.364 78.4189 14.308V3.58C78.4189 3.052 78.5949 2.644 78.9469 2.356C79.3149 2.052 79.7709 1.9 80.3149 1.9C80.7949 1.9 81.1949 1.988 81.5149 2.164C81.8349 2.34 82.0589 2.492 82.1869 2.62C81.9789 3.388 81.8429 4.108 81.7789 4.78C81.7309 5.452 81.7069 6.284 81.7069 7.276V14.02C81.7069 14.436 81.7949 14.756 81.9709 14.98C82.1629 15.188 82.4349 15.292 82.7869 15.292C82.9469 15.292 83.1229 15.268 83.3149 15.22C83.5229 15.172 83.6589 15.092 83.7229 14.98C83.8509 15.14 83.9389 15.316 83.9869 15.508C84.0349 15.7 84.0589 15.868 84.0589 16.012C84.0589 16.508 83.8189 16.924 83.3389 17.26C82.8749 17.58 82.2349 17.74 81.4189 17.74ZM76.6189 6.676L76.6429 5.884C76.6589 5.612 76.7469 5.42 76.9069 5.308C77.0829 5.18 77.2829 5.116 77.5069 5.116H81.6829C81.7469 5.116 81.9149 5.116 82.1869 5.116C82.4749 5.1 82.7949 5.092 83.1469 5.092C83.5149 5.076 83.8349 5.068 84.1069 5.068C84.3949 5.052 84.5709 5.036 84.6349 5.02L84.6109 5.788C84.5949 6.044 84.5069 6.244 84.3469 6.388C84.1869 6.516 83.9949 6.58 83.7709 6.58H78.0589C77.8989 6.58 77.6589 6.588 77.3389 6.604C77.0189 6.62 76.7789 6.644 76.6189 6.676Z" fill="#F1C953"/>
</svg>
