<svg width="43" height="22" viewBox="0 0 43 22" fill="none" xmlns="http://www.w3.org/2000/svg">
<path d="M3.912 17.86C3.368 17.86 2.912 17.708 2.544 17.404C2.176 17.1 1.992 16.684 1.992 16.156V4.708C1.992 4.244 1.96 3.748 1.896 3.22C1.848 2.676 1.72 2.132 1.512 1.588C1.928 1.22 2.352 0.987999 2.784 0.891999C3.216 0.796 3.808 0.748 4.56 0.748H11.496C11.72 0.748 11.872 0.875999 11.952 1.132C12.032 1.388 12.048 1.7 12 2.068C11.952 2.42 11.848 2.756 11.688 3.076C11.544 3.38 11.36 3.58 11.136 3.676C10.304 3.292 9.384 2.98 8.376 2.74C7.384 2.5 6.368 2.364 5.328 2.332L5.352 13.996C5.352 14.444 5.376 14.948 5.424 15.508C5.488 16.052 5.624 16.588 5.832 17.116C5.688 17.244 5.448 17.396 5.112 17.572C4.776 17.764 4.376 17.86 3.912 17.86ZM4.728 9.772V7.972H10.416C10.496 8.276 10.528 8.588 10.512 8.908C10.496 9.228 10.464 9.516 10.416 9.772H4.728ZM20.3136 0.387999C20.7136 0.387999 21.0816 0.459999 21.4176 0.603999C21.7696 0.747999 22.0016 1.036 22.1136 1.468L26.2896 15.532C26.3536 15.74 26.4496 15.996 26.5776 16.3C26.7056 16.604 26.8736 16.868 27.0816 17.092C26.9376 17.252 26.7136 17.412 26.4096 17.572C26.1056 17.748 25.6736 17.836 25.1136 17.836C24.6016 17.836 24.1616 17.724 23.7936 17.5C23.4256 17.292 23.1936 16.972 23.0976 16.54L19.2096 1.66L19.5456 1.732L16.0896 15.58C16.0416 15.772 16.0016 15.964 15.9696 16.156C15.9376 16.332 15.9216 16.508 15.9216 16.684C15.9216 16.876 15.9456 17.036 15.9936 17.164C16.0416 17.292 16.1056 17.396 16.1856 17.476C15.9456 17.572 15.6816 17.652 15.3936 17.716C15.1216 17.796 14.7776 17.836 14.3616 17.836C13.7216 17.836 13.2496 17.724 12.9456 17.5C12.6416 17.292 12.4896 16.94 12.4896 16.444C12.4896 16.236 12.5136 15.988 12.5616 15.7C12.6256 15.396 12.7136 15.076 12.8256 14.74L17.4816 0.844C18.4096 0.539999 19.3536 0.387999 20.3136 0.387999ZM15.9456 10.852H23.9136V12.628H15.9456V10.852ZM39.6844 21.508C39.1724 21.508 38.6124 21.428 38.0044 21.268C37.3964 21.124 36.7644 20.916 36.1084 20.644C35.4684 20.388 34.8364 20.084 34.2124 19.732C33.5884 19.38 33.0044 19.004 32.4604 18.604C31.5324 17.932 30.7004 17.18 29.9644 16.348C29.2444 15.5 28.6684 14.5 28.2364 13.348C27.8204 12.18 27.6124 10.78 27.6124 9.148C27.6124 6.236 28.2284 4.052 29.4604 2.596C30.6924 1.14 32.3964 0.412 34.5724 0.412C36.7644 0.412 38.4684 1.14 39.6844 2.596C40.9164 4.052 41.5324 6.228 41.5324 9.124C41.5324 10.948 41.2364 12.516 40.6444 13.828C40.0684 15.124 39.2604 16.116 38.2204 16.804C37.1804 17.492 35.9564 17.836 34.5484 17.836C34.2924 17.836 34.0604 17.82 33.8524 17.788C33.6444 17.772 33.4204 17.732 33.1804 17.668C33.5324 17.956 33.9324 18.196 34.3804 18.388C34.8444 18.58 35.3244 18.724 35.8204 18.82C36.3164 18.916 36.7964 18.964 37.2604 18.964C38.0604 18.964 38.7724 18.844 39.3964 18.604C40.0364 18.38 40.4444 18.028 40.6204 17.548C41.1484 17.628 41.5644 17.82 41.8684 18.124C42.1884 18.444 42.3484 18.868 42.3484 19.396C42.3484 19.94 42.1164 20.428 41.6524 20.86C41.1884 21.292 40.5324 21.508 39.6844 21.508ZM34.5004 16.708C35.5884 16.708 36.3884 16.116 36.9004 14.932C37.4124 13.732 37.6684 11.788 37.6684 9.1C37.6684 6.46 37.4204 4.54 36.9244 3.34C36.4284 2.14 35.6364 1.54 34.5484 1.54C33.3804 1.54 32.5724 2.228 32.1244 3.604C31.6924 4.964 31.4764 6.996 31.4764 9.7C31.4764 11.044 31.5564 12.244 31.7164 13.3C31.8764 14.356 32.1724 15.188 32.6044 15.796C33.0364 16.404 33.6684 16.708 34.5004 16.708Z" fill="#F1C953"/>
</svg>
