<svg width="111" height="24" viewBox="0 0 111 24" fill="none" xmlns="http://www.w3.org/2000/svg">
<path d="M5.352 14.136C5.352 14.584 5.376 15.088 5.424 15.648C5.488 16.192 5.624 16.728 5.832 17.256C5.688 17.384 5.448 17.536 5.112 17.712C4.776 17.904 4.376 18 3.912 18C3.368 18 2.912 17.848 2.544 17.544C2.176 17.24 1.992 16.824 1.992 16.296V4.416C1.992 3.952 1.96 3.456 1.896 2.928C1.848 2.384 1.72 1.84 1.512 1.296C1.656 1.168 1.896 1.016 2.232 0.839998C2.568 0.663999 2.968 0.575999 3.432 0.575999C3.976 0.575999 4.432 0.727999 4.8 1.032C5.168 1.32 5.352 1.728 5.352 2.256V14.136ZM14.832 14.136C14.832 14.584 14.856 15.088 14.904 15.648C14.968 16.192 15.104 16.728 15.312 17.256C15.168 17.384 14.928 17.536 14.592 17.712C14.256 17.904 13.856 18 13.392 18C12.848 18 12.392 17.848 12.024 17.544C11.656 17.24 11.472 16.824 11.472 16.296V4.416C11.472 3.952 11.44 3.456 11.376 2.928C11.328 2.384 11.2 1.84 10.992 1.296C11.136 1.168 11.376 1.016 11.712 0.839998C12.048 0.663999 12.448 0.575999 12.912 0.575999C13.456 0.575999 13.912 0.727999 14.28 1.032C14.648 1.32 14.832 1.728 14.832 2.256V14.136ZM4.056 8.016H12.48V9.792H4.056V8.016ZM19.6937 3.816C19.1657 3.816 18.7177 3.64 18.3497 3.288C17.9977 2.92 17.8217 2.48 17.8217 1.968C17.8217 1.44 17.9977 0.999999 18.3497 0.647999C18.7177 0.279999 19.1657 0.0959992 19.6937 0.0959992C20.2057 0.0959992 20.6377 0.279999 20.9897 0.647999C21.3577 0.999999 21.5417 1.44 21.5417 1.968C21.5417 2.48 21.3577 2.92 20.9897 3.288C20.6377 3.64 20.2057 3.816 19.6937 3.816ZM21.4457 14.136C21.4457 14.584 21.4697 15.088 21.5177 15.648C21.5817 16.192 21.7177 16.728 21.9257 17.256C21.7817 17.384 21.5417 17.536 21.2057 17.712C20.8857 17.904 20.4937 18 20.0297 18C19.5177 18 19.0777 17.848 18.7097 17.544C18.3577 17.24 18.1817 16.824 18.1817 16.296V8.736C18.1817 8.272 18.1497 7.768 18.0857 7.224C18.0377 6.68 17.9097 6.136 17.7017 5.592C17.8457 5.464 18.0777 5.312 18.3977 5.136C18.7177 4.96 19.1017 4.872 19.5497 4.872C20.0937 4.872 20.5417 5.024 20.8937 5.328C21.2457 5.616 21.4217 6.032 21.4217 6.576L21.4457 14.136ZM28.5116 23.016C27.7116 23.016 26.9596 22.92 26.2556 22.728C25.5516 22.552 24.9836 22.256 24.5516 21.84C24.1356 21.44 23.9276 20.912 23.9276 20.256C23.9276 19.648 24.1356 19.16 24.5516 18.792C24.9836 18.424 25.5276 18.24 26.1836 18.24C26.9036 18.24 27.4076 18.424 27.6956 18.792C27.4556 19 27.2716 19.248 27.1436 19.536C27.0316 19.824 26.9756 20.128 26.9756 20.448C26.9756 20.736 27.0316 21 27.1436 21.24C27.2556 21.48 27.4316 21.672 27.6716 21.816C27.9116 21.96 28.2236 22.032 28.6076 22.032C29.6156 22.032 30.3676 21.568 30.8636 20.64C31.3756 19.712 31.6316 18.512 31.6316 17.04C31.6316 16.816 31.6316 16.536 31.6316 16.2C31.6316 15.848 31.6396 15.528 31.6556 15.24C31.3836 15.992 30.9436 16.576 30.3356 16.992C29.7436 17.392 28.9996 17.592 28.1036 17.592C27.2716 17.592 26.5276 17.4 25.8716 17.016C25.2316 16.632 24.7276 16.008 24.3596 15.144C24.0076 14.264 23.8316 13.104 23.8316 11.664C23.8316 10.88 23.8956 10.144 24.0236 9.456C24.1676 8.768 24.3836 8.144 24.6716 7.584C24.9596 7.024 25.3276 6.544 25.7756 6.144C26.2396 5.744 26.7996 5.44 27.4556 5.232C28.1116 5.008 28.8716 4.896 29.7356 4.896C30.4396 4.896 31.1036 4.96 31.7276 5.088C32.3676 5.216 32.9596 5.4 33.5036 5.64C34.0476 5.864 34.5116 6.144 34.8956 6.48V16.584C34.8956 18.168 34.6156 19.432 34.0556 20.376C33.5116 21.32 32.7596 21.992 31.7996 22.392C30.8396 22.808 29.7436 23.016 28.5116 23.016ZM29.1116 16.08C29.5276 16.08 29.8876 15.984 30.1916 15.792C30.4956 15.584 30.7516 15.296 30.9596 14.928C31.1676 14.544 31.3276 14.08 31.4396 13.536C31.5516 12.976 31.6076 12.352 31.6076 11.664L31.6316 6.504C31.4236 6.344 31.1676 6.224 30.8636 6.144C30.5596 6.048 30.2476 6 29.9276 6C29.3996 6 28.9676 6.136 28.6316 6.408C28.2956 6.68 28.0316 7.072 27.8396 7.584C27.6636 8.096 27.5356 8.728 27.4556 9.48C27.3756 10.216 27.3356 11.056 27.3356 12C27.3356 13.504 27.4556 14.56 27.6956 15.168C27.9516 15.776 28.4236 16.08 29.1116 16.08ZM39.6206 18C39.0766 18 38.6206 17.832 38.2526 17.496C37.8846 17.16 37.7006 16.704 37.7006 16.128V1.752C37.6846 1.208 37.8206 0.799998 38.1086 0.527998C38.4126 0.255999 38.7886 0.103999 39.2366 0.0719981C39.7486 0.0239987 40.2126 0.0959988 40.6286 0.287998C41.0446 0.479999 41.3326 0.639999 41.4926 0.767999C41.2526 1.552 41.1006 2.432 41.0366 3.408C40.9726 4.368 40.9326 5.448 40.9166 6.648V8.736L40.3646 9.48C40.4926 8.52 40.7166 7.704 41.0366 7.032C41.3726 6.344 41.8286 5.816 42.4046 5.448C42.9806 5.08 43.6926 4.896 44.5406 4.896C45.8686 4.896 46.8446 5.296 47.4686 6.096C48.0926 6.896 48.4046 8.096 48.4046 9.696V14.136C48.4046 14.488 48.4286 14.968 48.4766 15.576C48.5406 16.168 48.6766 16.728 48.8846 17.256C48.6766 17.448 48.4126 17.616 48.0926 17.76C47.7886 17.92 47.4286 18 47.0126 18C46.4686 18 46.0126 17.848 45.6446 17.544C45.2926 17.24 45.1166 16.824 45.1166 16.296V10.224C45.1166 9.008 45.0046 8.072 44.7806 7.416C44.5726 6.744 44.1166 6.408 43.4126 6.408C43.0446 6.408 42.7086 6.528 42.4046 6.768C42.1006 6.992 41.8366 7.344 41.6126 7.824C41.4046 8.288 41.2366 8.872 41.1086 9.576C40.9966 10.264 40.9406 11.072 40.9406 12C40.9406 12.784 40.9406 13.44 40.9406 13.968C40.9566 14.496 40.9806 14.952 41.0126 15.336C41.0446 15.704 41.0926 16.04 41.1566 16.344C41.2366 16.648 41.3486 16.96 41.4926 17.28C41.3486 17.408 41.1166 17.56 40.7966 17.736C40.4766 17.912 40.0846 18 39.6206 18ZM54.3636 17.88C53.3876 17.88 52.6436 17.576 52.1316 16.968C51.6356 16.344 51.3876 15.504 51.3876 14.448V1.752C51.3876 1.208 51.5636 0.791998 51.9156 0.503998C52.2836 0.199998 52.7396 0.0479984 53.2836 0.0479984C53.7636 0.0479984 54.1636 0.135998 54.4836 0.311998C54.8036 0.487998 55.0276 0.639999 55.1556 0.767999C54.9476 1.536 54.8116 2.264 54.7476 2.952C54.6996 3.624 54.6756 4.456 54.6756 5.448V14.16C54.6756 14.576 54.7476 14.896 54.8916 15.12C55.0356 15.328 55.2436 15.432 55.5156 15.432C55.6276 15.432 55.7556 15.408 55.8996 15.36C56.0436 15.312 56.1476 15.232 56.2116 15.12C56.3396 15.28 56.4276 15.456 56.4756 15.648C56.5236 15.84 56.5476 16.008 56.5476 16.152C56.5476 16.648 56.3316 17.064 55.8996 17.4C55.4676 17.72 54.9556 17.88 54.3636 17.88ZM60.1468 3.816C59.6188 3.816 59.1708 3.64 58.8028 3.288C58.4508 2.92 58.2748 2.48 58.2748 1.968C58.2748 1.44 58.4508 0.999999 58.8028 0.647999C59.1708 0.279999 59.6188 0.0959992 60.1468 0.0959992C60.6588 0.0959992 61.0908 0.279999 61.4428 0.647999C61.8108 0.999999 61.9948 1.44 61.9948 1.968C61.9948 2.48 61.8108 2.92 61.4428 3.288C61.0908 3.64 60.6588 3.816 60.1468 3.816ZM61.8988 14.136C61.8988 14.584 61.9228 15.088 61.9708 15.648C62.0348 16.192 62.1708 16.728 62.3788 17.256C62.2348 17.384 61.9948 17.536 61.6588 17.712C61.3388 17.904 60.9468 18 60.4828 18C59.9708 18 59.5308 17.848 59.1628 17.544C58.8108 17.24 58.6348 16.824 58.6348 16.296V8.736C58.6348 8.272 58.6028 7.768 58.5388 7.224C58.4908 6.68 58.3628 6.136 58.1548 5.592C58.2988 5.464 58.5308 5.312 58.8508 5.136C59.1708 4.96 59.5548 4.872 60.0028 4.872C60.5468 4.872 60.9948 5.024 61.3468 5.328C61.6988 5.616 61.8748 6.032 61.8748 6.576L61.8988 14.136ZM68.9648 23.016C68.1648 23.016 67.4128 22.92 66.7088 22.728C66.0048 22.552 65.4368 22.256 65.0048 21.84C64.5888 21.44 64.3808 20.912 64.3808 20.256C64.3808 19.648 64.5888 19.16 65.0048 18.792C65.4368 18.424 65.9808 18.24 66.6367 18.24C67.3568 18.24 67.8608 18.424 68.1488 18.792C67.9088 19 67.7248 19.248 67.5968 19.536C67.4848 19.824 67.4288 20.128 67.4288 20.448C67.4288 20.736 67.4848 21 67.5968 21.24C67.7088 21.48 67.8848 21.672 68.1248 21.816C68.3648 21.96 68.6768 22.032 69.0608 22.032C70.0688 22.032 70.8208 21.568 71.3168 20.64C71.8288 19.712 72.0848 18.512 72.0848 17.04C72.0848 16.816 72.0848 16.536 72.0848 16.2C72.0848 15.848 72.0928 15.528 72.1088 15.24C71.8368 15.992 71.3968 16.576 70.7888 16.992C70.1968 17.392 69.4528 17.592 68.5568 17.592C67.7248 17.592 66.9808 17.4 66.3248 17.016C65.6848 16.632 65.1808 16.008 64.8128 15.144C64.4608 14.264 64.2848 13.104 64.2848 11.664C64.2848 10.88 64.3488 10.144 64.4768 9.456C64.6208 8.768 64.8368 8.144 65.1248 7.584C65.4128 7.024 65.7808 6.544 66.2288 6.144C66.6928 5.744 67.2528 5.44 67.9088 5.232C68.5648 5.008 69.3248 4.896 70.1888 4.896C70.8928 4.896 71.5568 4.96 72.1808 5.088C72.8208 5.216 73.4128 5.4 73.9568 5.64C74.5008 5.864 74.9648 6.144 75.3488 6.48V16.584C75.3488 18.168 75.0688 19.432 74.5088 20.376C73.9648 21.32 73.2128 21.992 72.2528 22.392C71.2928 22.808 70.1968 23.016 68.9648 23.016ZM69.5648 16.08C69.9808 16.08 70.3408 15.984 70.6448 15.792C70.9488 15.584 71.2048 15.296 71.4128 14.928C71.6208 14.544 71.7808 14.08 71.8928 13.536C72.0048 12.976 72.0608 12.352 72.0608 11.664L72.0848 6.504C71.8768 6.344 71.6208 6.224 71.3168 6.144C71.0128 6.048 70.7008 6 70.3808 6C69.8528 6 69.4208 6.136 69.0848 6.408C68.7488 6.68 68.4848 7.072 68.2928 7.584C68.1168 8.096 67.9888 8.728 67.9088 9.48C67.8288 10.216 67.7888 11.056 67.7888 12C67.7888 13.504 67.9088 14.56 68.1488 15.168C68.4048 15.776 68.8768 16.08 69.5648 16.08ZM80.0738 18C79.5298 18 79.0738 17.832 78.7058 17.496C78.3378 17.16 78.1538 16.704 78.1538 16.128V1.752C78.1378 1.208 78.2738 0.799998 78.5618 0.527998C78.8658 0.255999 79.2418 0.103999 79.6898 0.0719981C80.2018 0.0239987 80.6658 0.0959988 81.0818 0.287998C81.4978 0.479999 81.7858 0.639999 81.9458 0.767999C81.7058 1.552 81.5538 2.432 81.4898 3.408C81.4258 4.368 81.3858 5.448 81.3698 6.648V8.736L80.8178 9.48C80.9458 8.52 81.1698 7.704 81.4898 7.032C81.8258 6.344 82.2818 5.816 82.8578 5.448C83.4338 5.08 84.1458 4.896 84.9938 4.896C86.3218 4.896 87.2978 5.296 87.9218 6.096C88.5458 6.896 88.8578 8.096 88.8578 9.696V14.136C88.8578 14.488 88.8818 14.968 88.9297 15.576C88.9938 16.168 89.1298 16.728 89.3378 17.256C89.1298 17.448 88.8658 17.616 88.5458 17.76C88.2418 17.92 87.8818 18 87.4658 18C86.9218 18 86.4658 17.848 86.0978 17.544C85.7458 17.24 85.5698 16.824 85.5698 16.296V10.224C85.5698 9.008 85.4578 8.072 85.2338 7.416C85.0258 6.744 84.5698 6.408 83.8658 6.408C83.4978 6.408 83.1618 6.528 82.8578 6.768C82.5538 6.992 82.2898 7.344 82.0658 7.824C81.8578 8.288 81.6898 8.872 81.5618 9.576C81.4498 10.264 81.3938 11.072 81.3938 12C81.3938 12.784 81.3938 13.44 81.3938 13.968C81.4098 14.496 81.4338 14.952 81.4658 15.336C81.4978 15.704 81.5458 16.04 81.6098 16.344C81.6898 16.648 81.8018 16.96 81.9458 17.28C81.8018 17.408 81.5698 17.56 81.2498 17.736C80.9298 17.912 80.5378 18 80.0738 18ZM95.1767 17.88C94.2007 17.88 93.4567 17.576 92.9447 16.968C92.4327 16.344 92.1767 15.504 92.1767 14.448V3.72C92.1767 3.192 92.3527 2.784 92.7047 2.496C93.0727 2.192 93.5287 2.04 94.0727 2.04C94.5527 2.04 94.9527 2.128 95.2727 2.304C95.5927 2.48 95.8167 2.632 95.9447 2.76C95.7367 3.528 95.6007 4.248 95.5367 4.92C95.4887 5.592 95.4647 6.424 95.4647 7.416V14.16C95.4647 14.576 95.5527 14.896 95.7287 15.12C95.9207 15.328 96.1927 15.432 96.5447 15.432C96.7047 15.432 96.8807 15.408 97.0727 15.36C97.2807 15.312 97.4167 15.232 97.4807 15.12C97.6087 15.28 97.6967 15.456 97.7447 15.648C97.7927 15.84 97.8167 16.008 97.8167 16.152C97.8167 16.648 97.5767 17.064 97.0967 17.4C96.6327 17.72 95.9927 17.88 95.1767 17.88ZM90.3767 6.816L90.4007 6.024C90.4167 5.752 90.5047 5.56 90.6647 5.448C90.8407 5.32 91.0407 5.256 91.2647 5.256H95.4407C95.5047 5.256 95.6727 5.256 95.9447 5.256C96.2327 5.24 96.5527 5.232 96.9047 5.232C97.2727 5.216 97.5927 5.208 97.8647 5.208C98.1527 5.192 98.3287 5.176 98.3927 5.16L98.3687 5.928C98.3527 6.184 98.2647 6.384 98.1047 6.528C97.9447 6.656 97.7527 6.72 97.5287 6.72H91.8167C91.6567 6.72 91.4167 6.728 91.0967 6.744C90.7767 6.76 90.5367 6.784 90.3767 6.816ZM103.929 17.976C102.889 17.976 102.025 17.856 101.337 17.616C100.665 17.376 100.161 17.048 99.825 16.632C99.489 16.216 99.321 15.736 99.321 15.192C99.321 14.904 99.393 14.616 99.537 14.328C99.681 14.024 99.929 13.784 100.281 13.608C100.633 13.432 101.121 13.4 101.745 13.512C101.697 13.736 101.673 13.952 101.673 14.16C101.689 14.368 101.729 14.584 101.793 14.808C101.873 15.288 102.113 15.744 102.513 16.176C102.929 16.592 103.553 16.8 104.385 16.8C104.961 16.8 105.449 16.688 105.849 16.464C106.249 16.224 106.449 15.856 106.449 15.36C106.449 14.944 106.313 14.6 106.041 14.328C105.785 14.04 105.441 13.784 105.009 13.56C104.593 13.336 104.145 13.112 103.665 12.888C103.057 12.6 102.441 12.28 101.817 11.928C101.209 11.56 100.705 11.104 100.305 10.56C99.905 10 99.705 9.288 99.705 8.424C99.705 7.576 99.929 6.896 100.377 6.384C100.825 5.856 101.417 5.472 102.153 5.232C102.889 4.992 103.681 4.872 104.529 4.872C105.809 4.872 106.865 5.064 107.697 5.448C108.529 5.832 108.945 6.416 108.945 7.2C108.945 7.568 108.825 7.912 108.585 8.232C108.361 8.536 107.953 8.696 107.361 8.712C107.201 8.728 107.049 8.728 106.905 8.712C106.777 8.696 106.649 8.68 106.521 8.664C106.537 8.44 106.529 8.2 106.497 7.944C106.481 7.672 106.417 7.432 106.305 7.224C106.177 6.856 105.953 6.56 105.633 6.336C105.313 6.112 104.905 6 104.409 6C104.105 6 103.817 6.048 103.545 6.144C103.289 6.224 103.073 6.36 102.897 6.552C102.737 6.744 102.657 6.992 102.657 7.296C102.657 7.712 102.793 8.08 103.065 8.4C103.337 8.704 103.697 8.976 104.145 9.216C104.593 9.456 105.065 9.704 105.561 9.96C106.025 10.184 106.489 10.424 106.953 10.68C107.417 10.92 107.841 11.2 108.225 11.52C108.625 11.84 108.937 12.208 109.161 12.624C109.401 13.024 109.521 13.504 109.521 14.064C109.521 14.704 109.337 15.328 108.969 15.936C108.601 16.528 108.009 17.016 107.193 17.4C106.377 17.784 105.289 17.976 103.929 17.976Z" fill="#F1C953"/>
</svg>
