<svg width="92" height="25" viewBox="0 0 92 25" fill="none" xmlns="http://www.w3.org/2000/svg">
<path d="M4.17473 13.5538C4.29624 13.4767 4.38942 13.3586 4.43021 13.2189C4.47103 13.0792 4.45665 12.9303 4.38951 12.8035C4.32237 12.6768 4.20726 12.5812 4.06878 12.5365C3.93027 12.4917 3.78026 12.5025 3.64819 12.5596C3.64819 12.5596 3.64819 12.5596 3.64819 12.5596C2.8188 12.9331 2.11551 13.2856 1.40519 13.8175C1.26261 13.9209 1.02959 14.1218 0.867667 14.2863C0.688639 14.4722 0.572414 14.5916 0.392988 14.869C0.235471 15.1203 0.120184 15.3649 0.0493878 15.6794C-0.023316 16.0061 -0.0142743 16.3625 0.066789 16.6764C1.13959 19.1034 2.97527 19.3279 4.50614 20.0267C6.11927 20.6068 7.66796 20.9971 9.29114 21.3418C12.4854 22.0101 15.7219 22.4114 18.9455 22.6746C28.3239 23.3435 37.6898 23.6075 47.1618 22.3455C59.9888 20.2073 73.0284 19.502 86.0804 19.9549C87.6758 20.0062 89.2714 20.0718 90.8673 20.1489C91.0144 20.156 91.1597 20.107 91.2713 20.0099C91.383 19.9128 91.4518 19.776 91.4627 19.6292C91.4737 19.4824 91.4259 19.337 91.3298 19.2244C91.2338 19.1119 91.0974 19.0418 90.9508 19.027C90.9508 19.027 90.9508 19.027 90.9508 19.027C89.3552 18.8664 87.7575 18.7199 86.1577 18.5904C73.0747 17.4968 59.8067 17.7512 46.7477 19.6594C37.7906 20.6749 28.3435 20.347 19.1868 19.6843C13.1965 19.0341 5.43133 18.9709 1.79375 16.1689C1.64551 16.0044 1.84026 15.4544 2.37546 14.9368C2.86639 14.4419 3.45257 14.0095 4.17473 13.5538Z" fill="#F1C953"/>
<path d="M19.3909 13.992C19.3909 14.568 19.2149 15.072 18.8629 15.504C18.5109 15.936 18.0389 16.296 17.4469 16.584C16.8549 16.856 16.1989 17.064 15.4789 17.208C14.7589 17.352 14.0309 17.424 13.2949 17.424C11.1669 17.424 9.50288 16.664 8.30288 15.144C7.10288 13.624 6.50288 11.48 6.50288 8.712C6.50288 5.944 7.11888 3.8 8.35088 2.28C9.59888 0.759997 11.3269 -2.86102e-06 13.5349 -2.86102e-06C14.1909 -2.86102e-06 14.8389 0.0639968 15.4789 0.191996C16.1189 0.319996 16.7029 0.503996 17.2309 0.743996C17.7589 0.983997 18.1829 1.288 18.5029 1.656C18.8229 2.008 18.9829 2.424 18.9829 2.904C18.9829 3.384 18.7589 3.832 18.3109 4.248C17.8629 4.648 17.1909 4.84 16.2949 4.824C16.1829 3.544 15.8949 2.608 15.4309 2.016C14.9829 1.424 14.3669 1.128 13.5829 1.128C12.4149 1.128 11.5589 1.76 11.0149 3.024C10.4709 4.288 10.1989 6.184 10.1989 8.712C10.1989 11.24 10.4629 13.136 10.9909 14.4C11.5189 15.664 12.3509 16.296 13.4869 16.296C14.0469 16.296 14.5349 16.152 14.9509 15.864C15.3829 15.576 15.7349 15.136 16.0069 14.544C16.2789 13.952 16.4709 13.208 16.5829 12.312C17.0309 12.248 17.4629 12.272 17.8789 12.384C18.3109 12.48 18.6709 12.664 18.9589 12.936C19.2469 13.192 19.3909 13.544 19.3909 13.992ZM26.7673 17.424C24.8953 17.424 23.4393 16.848 22.3993 15.696C21.3593 14.544 20.8393 12.944 20.8393 10.896C20.8393 8.832 21.3593 7.224 22.3993 6.072C23.4393 4.92 24.8953 4.344 26.7673 4.344C28.6393 4.344 30.0953 4.92 31.1353 6.072C32.1753 7.224 32.6953 8.832 32.6953 10.896C32.6953 12.944 32.1753 14.544 31.1353 15.696C30.0953 16.848 28.6393 17.424 26.7673 17.424ZM26.7673 16.32C27.5833 16.32 28.1833 15.864 28.5673 14.952C28.9513 14.04 29.1433 12.688 29.1433 10.896C29.1433 9.088 28.9513 7.728 28.5673 6.816C28.1833 5.904 27.5833 5.448 26.7673 5.448C25.9353 5.448 25.3273 5.904 24.9433 6.816C24.5593 7.728 24.3673 9.088 24.3673 10.896C24.3673 12.688 24.5593 14.04 24.9433 14.952C25.3273 15.864 25.9353 16.32 26.7673 16.32ZM37.3639 17.448C36.8039 17.448 36.3399 17.28 35.9719 16.944C35.6039 16.608 35.4199 16.152 35.4199 15.576V8.064C35.4039 7.6 35.3479 7.272 35.2519 7.08C35.1559 6.888 35.0039 6.792 34.7959 6.792C34.7159 6.792 34.6119 6.808 34.4839 6.84C34.3559 6.872 34.2519 6.952 34.1719 7.08C33.9639 6.76 33.8599 6.416 33.8599 6.048C33.8599 5.552 34.0279 5.144 34.3639 4.824C34.6999 4.504 35.1879 4.344 35.8279 4.344C36.5799 4.344 37.1799 4.6 37.6279 5.112C38.0759 5.624 38.2999 6.408 38.2999 7.464V8.184L37.8919 8.928C38.0199 7.968 38.2519 7.152 38.5879 6.48C38.9399 5.792 39.4199 5.264 40.0279 4.896C40.6359 4.528 41.3879 4.344 42.2839 4.344C43.6119 4.344 44.5879 4.744 45.2119 5.544C45.8359 6.344 46.1479 7.544 46.1479 9.144V13.584C46.1639 13.936 46.1959 14.416 46.2439 15.024C46.3079 15.616 46.4439 16.176 46.6519 16.704C46.4279 16.912 46.1559 17.088 45.8359 17.232C45.5319 17.376 45.1719 17.448 44.7559 17.448C44.2119 17.448 43.7559 17.296 43.3879 16.992C43.0359 16.688 42.8599 16.272 42.8599 15.744V9.672C42.8439 8.504 42.7319 7.6 42.5239 6.96C42.3159 6.304 41.8599 5.976 41.1559 5.976C40.7879 5.976 40.4519 6.088 40.1479 6.312C39.8439 6.536 39.5799 6.88 39.3559 7.344C39.1479 7.792 38.9799 8.36 38.8519 9.048C38.7399 9.736 38.6839 10.536 38.6839 11.448C38.6839 12.232 38.6839 12.888 38.6839 13.416C38.6999 13.944 38.7239 14.4 38.7559 14.784C38.7879 15.152 38.8359 15.488 38.8999 15.792C38.9799 16.096 39.0919 16.408 39.2359 16.728C39.0919 16.856 38.8519 17.008 38.5159 17.184C38.1959 17.36 37.8119 17.448 37.3639 17.448ZM52.4813 17.328C51.5053 17.328 50.7613 17.024 50.2493 16.416C49.7373 15.792 49.4813 14.952 49.4813 13.896V3.168C49.4813 2.64 49.6573 2.232 50.0093 1.944C50.3773 1.64 50.8333 1.488 51.3773 1.488C51.8573 1.488 52.2573 1.576 52.5773 1.752C52.8973 1.928 53.1213 2.08 53.2493 2.208C53.0413 2.976 52.9053 3.696 52.8413 4.368C52.7933 5.04 52.7693 5.872 52.7693 6.864V13.608C52.7693 14.024 52.8573 14.344 53.0333 14.568C53.2253 14.776 53.4973 14.88 53.8493 14.88C54.0093 14.88 54.1853 14.856 54.3773 14.808C54.5853 14.76 54.7213 14.68 54.7853 14.568C54.9133 14.728 55.0013 14.904 55.0493 15.096C55.0973 15.288 55.1213 15.456 55.1213 15.6C55.1213 16.096 54.8813 16.512 54.4013 16.848C53.9373 17.168 53.2973 17.328 52.4813 17.328ZM47.6813 6.264L47.7053 5.472C47.7213 5.2 47.8093 5.008 47.9693 4.896C48.1453 4.768 48.3453 4.704 48.5693 4.704H52.7453C52.8093 4.704 52.9773 4.704 53.2493 4.704C53.5373 4.688 53.8573 4.68 54.2093 4.68C54.5773 4.664 54.8973 4.656 55.1693 4.656C55.4573 4.64 55.6333 4.624 55.6973 4.608L55.6733 5.376C55.6573 5.632 55.5693 5.832 55.4093 5.976C55.2493 6.104 55.0573 6.168 54.8333 6.168H49.1213C48.9613 6.168 48.7213 6.176 48.4013 6.192C48.0813 6.208 47.8413 6.232 47.6813 6.264ZM67.1844 17.328C66.3524 17.328 65.6964 17.032 65.2164 16.44C64.7524 15.832 64.5204 14.76 64.5204 13.224V12.312L65.0964 12.432C64.9364 13.312 64.6324 14.128 64.1844 14.88C63.7364 15.616 63.1604 16.208 62.4564 16.656C61.7524 17.104 60.9204 17.328 59.9604 17.328C59.0484 17.328 58.2884 17.088 57.6804 16.608C57.0884 16.128 56.7924 15.424 56.7924 14.496C56.7924 13.728 57.0004 13.08 57.4164 12.552C57.8484 12.008 58.3844 11.568 59.0244 11.232C59.6804 10.896 60.3364 10.632 60.9924 10.44C61.6324 10.264 62.2324 10.144 62.7924 10.08C63.3684 10 63.8804 9.952 64.3284 9.936V9.336C64.3284 8.04 64.1844 7.064 63.8964 6.408C63.6084 5.752 63.0884 5.424 62.3364 5.424C62.0324 5.424 61.7524 5.488 61.4964 5.616C61.2564 5.728 61.0644 5.912 60.9204 6.168C60.7924 6.424 60.7284 6.768 60.7284 7.2C60.7284 7.52 60.7844 7.848 60.8964 8.184C61.0084 8.52 61.2324 8.784 61.5684 8.976C61.3764 9.168 61.1204 9.312 60.8004 9.408C60.4964 9.504 60.1684 9.552 59.8164 9.552C59.0324 9.552 58.4244 9.336 57.9924 8.904C57.5764 8.472 57.3684 7.944 57.3684 7.32C57.3684 6.36 57.8324 5.624 58.7604 5.112C59.7044 4.6 60.9604 4.344 62.5284 4.344C64.3204 4.344 65.6324 4.744 66.4644 5.544C67.2964 6.344 67.7124 7.68 67.7124 9.552V13.608C67.7124 14.456 67.9764 14.88 68.5044 14.88C68.5844 14.88 68.6884 14.856 68.8164 14.808C68.9604 14.76 69.0724 14.68 69.1524 14.568C69.2644 14.728 69.3444 14.904 69.3924 15.096C69.4404 15.288 69.4644 15.456 69.4644 15.6C69.4644 16.064 69.2564 16.472 68.8404 16.824C68.4404 17.16 67.8884 17.328 67.1844 17.328ZM61.6884 15.192C61.9924 15.16 62.3044 15.04 62.6244 14.832C62.9444 14.608 63.2404 14.312 63.5124 13.944C63.7844 13.56 64.0004 13.12 64.1604 12.624C64.3364 12.128 64.4244 11.584 64.4244 10.992C64.1204 10.992 63.8084 11.008 63.4884 11.04C63.1684 11.056 62.8564 11.104 62.5524 11.184C62.2644 11.264 61.9924 11.376 61.7364 11.52C61.3524 11.728 61.0324 12.024 60.7764 12.408C60.5364 12.776 60.4164 13.2 60.4164 13.68C60.4164 14.08 60.5124 14.448 60.7044 14.784C60.9124 15.104 61.2404 15.24 61.6884 15.192ZM76.5291 17.424C74.5771 17.424 73.0731 16.856 72.0171 15.72C70.9611 14.568 70.4331 12.944 70.4331 10.848C70.4331 8.832 70.9611 7.248 72.0171 6.096C73.0891 4.928 74.6171 4.344 76.6011 4.344C78.1211 4.344 79.2411 4.648 79.9611 5.256C80.6811 5.864 81.0411 6.584 81.0411 7.416C81.0411 8.072 80.8251 8.592 80.3931 8.976C79.9771 9.36 79.4411 9.552 78.7851 9.552C78.4651 9.552 78.1451 9.504 77.8251 9.408C77.5051 9.312 77.2571 9.168 77.0811 8.976C77.3051 8.752 77.4731 8.496 77.5851 8.208C77.6971 7.904 77.7531 7.544 77.7531 7.128C77.7531 6.712 77.6891 6.384 77.5611 6.144C77.4491 5.888 77.2891 5.712 77.0811 5.616C76.8731 5.504 76.6251 5.448 76.3371 5.448C75.6011 5.448 75.0171 5.872 74.5851 6.72C74.1691 7.568 73.9611 8.768 73.9611 10.32C73.9611 11.504 74.0971 12.472 74.3691 13.224C74.6571 13.96 75.0651 14.504 75.5931 14.856C76.1371 15.208 76.7851 15.384 77.5371 15.384C78.1131 15.384 78.6171 15.288 79.0491 15.096C79.4971 14.904 79.8651 14.648 80.1531 14.328C80.4411 13.992 80.6411 13.624 80.7531 13.224C80.9291 13.288 81.0491 13.44 81.1131 13.68C81.1931 13.904 81.1771 14.248 81.0651 14.712C80.8411 15.56 80.3211 16.224 79.5051 16.704C78.6891 17.184 77.6971 17.424 76.5291 17.424ZM86.7938 17.328C85.8178 17.328 85.0738 17.024 84.5618 16.416C84.0498 15.792 83.7938 14.952 83.7938 13.896V3.168C83.7938 2.64 83.9698 2.232 84.3218 1.944C84.6898 1.64 85.1458 1.488 85.6898 1.488C86.1698 1.488 86.5698 1.576 86.8898 1.752C87.2098 1.928 87.4338 2.08 87.5618 2.208C87.3538 2.976 87.2178 3.696 87.1538 4.368C87.1058 5.04 87.0818 5.872 87.0818 6.864V13.608C87.0818 14.024 87.1698 14.344 87.3458 14.568C87.5378 14.776 87.8098 14.88 88.1618 14.88C88.3218 14.88 88.4978 14.856 88.6898 14.808C88.8978 14.76 89.0338 14.68 89.0978 14.568C89.2258 14.728 89.3138 14.904 89.3618 15.096C89.4098 15.288 89.4338 15.456 89.4338 15.6C89.4338 16.096 89.1938 16.512 88.7138 16.848C88.2498 17.168 87.6098 17.328 86.7938 17.328ZM81.9938 6.264L82.0178 5.472C82.0338 5.2 82.1218 5.008 82.2818 4.896C82.4578 4.768 82.6578 4.704 82.8818 4.704H87.0578C87.1218 4.704 87.2898 4.704 87.5618 4.704C87.8498 4.688 88.1698 4.68 88.5218 4.68C88.8898 4.664 89.2098 4.656 89.4818 4.656C89.7698 4.64 89.9458 4.624 90.0098 4.608L89.9858 5.376C89.9698 5.632 89.8818 5.832 89.7218 5.976C89.5618 6.104 89.3698 6.168 89.1458 6.168H83.4338C83.2738 6.168 83.0338 6.176 82.7138 6.192C82.3938 6.208 82.1538 6.232 81.9938 6.264Z" fill="#F8F5EB"/>
</svg>
