<svg width="57" height="27" viewBox="0 0 57 27" fill="none" xmlns="http://www.w3.org/2000/svg">
<path d="M1.11002 16.9075C1.06868 16.7729 0.985572 16.6509 0.867154 16.5706C0.74883 16.4902 0.606447 16.4577 0.46862 16.4807C0.330793 16.5036 0.206649 16.5806 0.12079 16.695C0.0348359 16.8094 -0.00423939 16.9517 0.000329177 17.0925C0.000329177 17.0925 0.000329177 17.0925 0.000329177 17.0925C0.0445563 18.1639 0.443364 19.2454 1.12261 20.118C4.15074 23.5563 8.50513 23.9397 12.2772 24.2981C25.7569 25.1509 39.0095 21.9085 51.7489 24.0924C52.6432 24.313 53.5066 24.6016 54.2784 24.9897C54.4086 25.0559 54.56 25.0725 54.7014 25.0319C54.8429 24.9914 54.9624 24.8977 55.0342 24.7707C55.106 24.6437 55.1246 24.493 55.0863 24.351C55.0481 24.2089 54.9558 24.0878 54.832 24.0103C54.832 24.0103 54.832 24.0103 54.832 24.0103C53.9991 23.4922 53.0765 23.097 52.1318 22.7804C38.8369 19.3941 25.3885 22.165 12.4775 21.3048C8.88228 21.0021 5.00906 20.8656 2.44511 18.8969C1.8409 18.3916 1.37467 17.7405 1.11002 16.9075Z" fill="#F1C953"/>
<path d="M8.933 18.36C8.389 18.36 7.933 18.208 7.565 17.904C7.197 17.6 7.013 17.184 7.013 16.656V5.208C7.013 4.744 6.981 4.248 6.917 3.72C6.869 3.176 6.741 2.632 6.533 2.088C6.949 1.72 7.373 1.488 7.805 1.392C8.237 1.296 8.829 1.248 9.581 1.248H16.517C16.741 1.248 16.893 1.376 16.973 1.632C17.053 1.888 17.069 2.2 17.021 2.568C16.973 2.92 16.869 3.256 16.709 3.576C16.565 3.88 16.381 4.08 16.157 4.176C15.325 3.792 14.405 3.48 13.397 3.24C12.405 3 11.389 2.864 10.349 2.832L10.373 14.496C10.373 14.944 10.397 15.448 10.445 16.008C10.509 16.552 10.645 17.088 10.853 17.616C10.709 17.744 10.469 17.896 10.133 18.072C9.797 18.264 9.397 18.36 8.933 18.36ZM9.749 10.272V8.472H15.437C15.517 8.776 15.549 9.088 15.533 9.408C15.517 9.728 15.485 10.016 15.437 10.272H9.749ZM25.3346 0.887999C25.7346 0.887999 26.1026 0.959999 26.4386 1.104C26.7906 1.248 27.0226 1.536 27.1346 1.968L31.3106 16.032C31.3746 16.24 31.4706 16.496 31.5986 16.8C31.7266 17.104 31.8946 17.368 32.1026 17.592C31.9586 17.752 31.7346 17.912 31.4306 18.072C31.1266 18.248 30.6946 18.336 30.1346 18.336C29.6226 18.336 29.1826 18.224 28.8146 18C28.4466 17.792 28.2146 17.472 28.1186 17.04L24.2306 2.16L24.5666 2.232L21.1106 16.08C21.0626 16.272 21.0226 16.464 20.9906 16.656C20.9586 16.832 20.9426 17.008 20.9426 17.184C20.9426 17.376 20.9666 17.536 21.0146 17.664C21.0626 17.792 21.1266 17.896 21.2066 17.976C20.9666 18.072 20.7026 18.152 20.4146 18.216C20.1426 18.296 19.7986 18.336 19.3826 18.336C18.7426 18.336 18.2706 18.224 17.9666 18C17.6626 17.792 17.5106 17.44 17.5106 16.944C17.5106 16.736 17.5346 16.488 17.5826 16.2C17.6466 15.896 17.7346 15.576 17.8466 15.24L22.5026 1.344C23.4306 1.04 24.3746 0.887999 25.3346 0.887999ZM20.9666 11.352H28.9346V13.128H20.9666V11.352ZM44.7054 22.008C44.1934 22.008 43.6334 21.928 43.0254 21.768C42.4174 21.624 41.7854 21.416 41.1294 21.144C40.4894 20.888 39.8574 20.584 39.2334 20.232C38.6094 19.88 38.0254 19.504 37.4814 19.104C36.5534 18.432 35.7214 17.68 34.9854 16.848C34.2654 16 33.6894 15 33.2574 13.848C32.8414 12.68 32.6334 11.28 32.6334 9.648C32.6334 6.736 33.2494 4.552 34.4814 3.096C35.7134 1.64 37.4174 0.912 39.5934 0.912C41.7854 0.912 43.4894 1.64 44.7054 3.096C45.9374 4.552 46.5534 6.728 46.5534 9.624C46.5534 11.448 46.2574 13.016 45.6654 14.328C45.0894 15.624 44.2814 16.616 43.2414 17.304C42.2014 17.992 40.9774 18.336 39.5694 18.336C39.3134 18.336 39.0814 18.32 38.8734 18.288C38.6654 18.272 38.4414 18.232 38.2014 18.168C38.5534 18.456 38.9534 18.696 39.4014 18.888C39.8654 19.08 40.3454 19.224 40.8414 19.32C41.3374 19.416 41.8174 19.464 42.2814 19.464C43.0814 19.464 43.7934 19.344 44.4174 19.104C45.0574 18.88 45.4654 18.528 45.6414 18.048C46.1694 18.128 46.5854 18.32 46.8894 18.624C47.2094 18.944 47.3694 19.368 47.3694 19.896C47.3694 20.44 47.1374 20.928 46.6734 21.36C46.2094 21.792 45.5534 22.008 44.7054 22.008ZM39.5214 17.208C40.6094 17.208 41.4094 16.616 41.9214 15.432C42.4334 14.232 42.6894 12.288 42.6894 9.6C42.6894 6.96 42.4414 5.04 41.9454 3.84C41.4494 2.64 40.6574 2.04 39.5694 2.04C38.4014 2.04 37.5934 2.728 37.1454 4.104C36.7134 5.464 36.4974 7.496 36.4974 10.2C36.4974 11.544 36.5774 12.744 36.7374 13.8C36.8974 14.856 37.1934 15.688 37.6254 16.296C38.0574 16.904 38.6894 17.208 39.5214 17.208Z" fill="#F8F5EB"/>
</svg>
