<svg width="121" height="29" viewBox="0 0 121 29" fill="none" xmlns="http://www.w3.org/2000/svg">
<path d="M116.501 10.7449C116.419 10.6254 116.381 10.4787 116.4 10.3335C116.42 10.1884 116.494 10.0571 116.609 9.96803C116.723 9.87891 116.868 9.83848 117.014 9.85493C117.159 9.87135 117.293 9.94385 117.388 10.0529C117.388 10.0529 117.388 10.0529 117.388 10.0529C118.844 11.766 120.248 13.6476 120.523 16.1701C120.853 18.8108 118.828 21.1884 116.851 22.3335C114.829 23.5743 112.686 24.2794 110.51 24.8595C106.219 25.9668 101.792 26.463 97.4649 26.7792C79.1872 27.9228 61.0198 26.9558 42.8975 26.8914C30.8366 26.6977 18.581 27.1051 6.63421 24.2612C4.51298 23.7375 2.42601 23.0975 0.375709 22.3542C0.236778 22.3039 0.121871 22.2017 0.0569116 22.0684C-0.00804653 21.9352 -0.0178408 21.7819 0.0298108 21.6421C0.0774547 21.5023 0.178777 21.3869 0.311604 21.321C0.444436 21.2551 0.597786 21.2444 0.738566 21.2893C2.78187 21.9421 4.84712 22.4917 6.93848 22.9288C18.6708 25.287 30.8286 24.5521 42.8853 24.4804C61.0617 24.1546 79.2803 24.9153 97.253 23.7867C101.495 23.4783 105.816 23.0847 109.885 22.2329C113.773 21.3611 118.682 19.9607 118.725 16.2536C118.729 14.4373 117.713 12.5091 116.501 10.7449Z" fill="#F1C953"/>
<path d="M8.8197 14.136C8.8197 14.584 8.8437 15.088 8.8917 15.648C8.9557 16.192 9.0917 16.728 9.2997 17.256C9.1557 17.384 8.9157 17.536 8.5797 17.712C8.2437 17.904 7.8437 18 7.3797 18C6.8357 18 6.3797 17.848 6.0117 17.544C5.6437 17.24 5.4597 16.824 5.4597 16.296V4.416C5.4597 3.952 5.4277 3.456 5.3637 2.928C5.3157 2.384 5.1877 1.84 4.9797 1.296C5.1237 1.168 5.3637 1.016 5.6997 0.839998C6.0357 0.663999 6.4357 0.575999 6.8997 0.575999C7.4437 0.575999 7.8997 0.727999 8.2677 1.032C8.6357 1.32 8.8197 1.728 8.8197 2.256V14.136ZM18.2997 14.136C18.2997 14.584 18.3237 15.088 18.3717 15.648C18.4357 16.192 18.5717 16.728 18.7797 17.256C18.6357 17.384 18.3957 17.536 18.0597 17.712C17.7237 17.904 17.3237 18 16.8597 18C16.3157 18 15.8597 17.848 15.4917 17.544C15.1237 17.24 14.9397 16.824 14.9397 16.296V4.416C14.9397 3.952 14.9077 3.456 14.8437 2.928C14.7957 2.384 14.6677 1.84 14.4597 1.296C14.6037 1.168 14.8437 1.016 15.1797 0.839998C15.5157 0.663999 15.9157 0.575999 16.3797 0.575999C16.9237 0.575999 17.3797 0.727999 17.7477 1.032C18.1157 1.32 18.2997 1.728 18.2997 2.256V14.136ZM7.5237 8.016H15.9477V9.792H7.5237V8.016ZM23.1614 3.816C22.6334 3.816 22.1854 3.64 21.8174 3.288C21.4654 2.92 21.2894 2.48 21.2894 1.968C21.2894 1.44 21.4654 0.999999 21.8174 0.647999C22.1854 0.279999 22.6334 0.0959992 23.1614 0.0959992C23.6734 0.0959992 24.1054 0.279999 24.4574 0.647999C24.8254 0.999999 25.0094 1.44 25.0094 1.968C25.0094 2.48 24.8254 2.92 24.4574 3.288C24.1054 3.64 23.6734 3.816 23.1614 3.816ZM24.9134 14.136C24.9134 14.584 24.9374 15.088 24.9854 15.648C25.0494 16.192 25.1854 16.728 25.3934 17.256C25.2494 17.384 25.0094 17.536 24.6734 17.712C24.3534 17.904 23.9614 18 23.4974 18C22.9854 18 22.5454 17.848 22.1774 17.544C21.8254 17.24 21.6494 16.824 21.6494 16.296V8.736C21.6494 8.272 21.6174 7.768 21.5534 7.224C21.5054 6.68 21.3774 6.136 21.1694 5.592C21.3134 5.464 21.5454 5.312 21.8654 5.136C22.1854 4.96 22.5694 4.872 23.0174 4.872C23.5614 4.872 24.0094 5.024 24.3614 5.328C24.7134 5.616 24.8894 6.032 24.8894 6.576L24.9134 14.136ZM31.9793 23.016C31.1793 23.016 30.4273 22.92 29.7233 22.728C29.0193 22.552 28.4513 22.256 28.0193 21.84C27.6033 21.44 27.3953 20.912 27.3953 20.256C27.3953 19.648 27.6033 19.16 28.0193 18.792C28.4513 18.424 28.9953 18.24 29.6513 18.24C30.3713 18.24 30.8753 18.424 31.1633 18.792C30.9233 19 30.7393 19.248 30.6113 19.536C30.4993 19.824 30.4433 20.128 30.4433 20.448C30.4433 20.736 30.4993 21 30.6113 21.24C30.7233 21.48 30.8993 21.672 31.1393 21.816C31.3793 21.96 31.6913 22.032 32.0753 22.032C33.0833 22.032 33.8353 21.568 34.3313 20.64C34.8433 19.712 35.0993 18.512 35.0993 17.04C35.0993 16.816 35.0993 16.536 35.0993 16.2C35.0993 15.848 35.1073 15.528 35.1233 15.24C34.8513 15.992 34.4113 16.576 33.8033 16.992C33.2113 17.392 32.4673 17.592 31.5713 17.592C30.7393 17.592 29.9953 17.4 29.3393 17.016C28.6993 16.632 28.1953 16.008 27.8273 15.144C27.4753 14.264 27.2993 13.104 27.2993 11.664C27.2993 10.88 27.3633 10.144 27.4913 9.456C27.6353 8.768 27.8513 8.144 28.1393 7.584C28.4273 7.024 28.7953 6.544 29.2433 6.144C29.7073 5.744 30.2673 5.44 30.9233 5.232C31.5793 5.008 32.3393 4.896 33.2033 4.896C33.9073 4.896 34.5713 4.96 35.1953 5.088C35.8353 5.216 36.4273 5.4 36.9713 5.64C37.5153 5.864 37.9793 6.144 38.3633 6.48V16.584C38.3633 18.168 38.0833 19.432 37.5233 20.376C36.9793 21.32 36.2273 21.992 35.2673 22.392C34.3073 22.808 33.2113 23.016 31.9793 23.016ZM32.5793 16.08C32.9953 16.08 33.3553 15.984 33.6593 15.792C33.9633 15.584 34.2193 15.296 34.4273 14.928C34.6353 14.544 34.7953 14.08 34.9073 13.536C35.0193 12.976 35.0753 12.352 35.0753 11.664L35.0993 6.504C34.8913 6.344 34.6353 6.224 34.3313 6.144C34.0273 6.048 33.7153 6 33.3953 6C32.8673 6 32.4353 6.136 32.0993 6.408C31.7633 6.68 31.4993 7.072 31.3073 7.584C31.1313 8.096 31.0033 8.728 30.9233 9.48C30.8433 10.216 30.8033 11.056 30.8033 12C30.8033 13.504 30.9233 14.56 31.1633 15.168C31.4193 15.776 31.8913 16.08 32.5793 16.08ZM43.0883 18C42.5443 18 42.0883 17.832 41.7203 17.496C41.3523 17.16 41.1683 16.704 41.1683 16.128V1.752C41.1523 1.208 41.2883 0.799998 41.5763 0.527998C41.8803 0.255999 42.2563 0.103999 42.7043 0.0719981C43.2163 0.0239987 43.6803 0.0959988 44.0963 0.287998C44.5123 0.479999 44.8003 0.639999 44.9603 0.767999C44.7203 1.552 44.5683 2.432 44.5043 3.408C44.4403 4.368 44.4003 5.448 44.3843 6.648V8.736L43.8323 9.48C43.9603 8.52 44.1843 7.704 44.5043 7.032C44.8403 6.344 45.2963 5.816 45.8723 5.448C46.4483 5.08 47.1603 4.896 48.0083 4.896C49.3363 4.896 50.3123 5.296 50.9363 6.096C51.5603 6.896 51.8723 8.096 51.8723 9.696V14.136C51.8723 14.488 51.8963 14.968 51.9443 15.576C52.0083 16.168 52.1443 16.728 52.3523 17.256C52.1443 17.448 51.8803 17.616 51.5603 17.76C51.2563 17.92 50.8963 18 50.4803 18C49.9363 18 49.4803 17.848 49.1123 17.544C48.7603 17.24 48.5843 16.824 48.5843 16.296V10.224C48.5843 9.008 48.4723 8.072 48.2483 7.416C48.0403 6.744 47.5843 6.408 46.8803 6.408C46.5123 6.408 46.1763 6.528 45.8723 6.768C45.5683 6.992 45.3043 7.344 45.0803 7.824C44.8723 8.288 44.7043 8.872 44.5763 9.576C44.4643 10.264 44.4083 11.072 44.4083 12C44.4083 12.784 44.4083 13.44 44.4083 13.968C44.4243 14.496 44.4483 14.952 44.4803 15.336C44.5123 15.704 44.5603 16.04 44.6243 16.344C44.7043 16.648 44.8163 16.96 44.9603 17.28C44.8163 17.408 44.5843 17.56 44.2643 17.736C43.9443 17.912 43.5523 18 43.0883 18ZM57.8313 17.88C56.8553 17.88 56.1113 17.576 55.5993 16.968C55.1033 16.344 54.8553 15.504 54.8553 14.448V1.752C54.8553 1.208 55.0313 0.791998 55.3833 0.503998C55.7513 0.199998 56.2073 0.0479984 56.7513 0.0479984C57.2313 0.0479984 57.6313 0.135998 57.9513 0.311998C58.2713 0.487998 58.4953 0.639999 58.6233 0.767999C58.4153 1.536 58.2793 2.264 58.2153 2.952C58.1673 3.624 58.1433 4.456 58.1433 5.448V14.16C58.1433 14.576 58.2153 14.896 58.3593 15.12C58.5033 15.328 58.7113 15.432 58.9833 15.432C59.0953 15.432 59.2233 15.408 59.3673 15.36C59.5113 15.312 59.6153 15.232 59.6793 15.12C59.8073 15.28 59.8953 15.456 59.9433 15.648C59.9913 15.84 60.0153 16.008 60.0153 16.152C60.0153 16.648 59.7993 17.064 59.3673 17.4C58.9353 17.72 58.4233 17.88 57.8313 17.88ZM63.6145 3.816C63.0865 3.816 62.6385 3.64 62.2705 3.288C61.9185 2.92 61.7425 2.48 61.7425 1.968C61.7425 1.44 61.9185 0.999999 62.2705 0.647999C62.6385 0.279999 63.0865 0.0959992 63.6145 0.0959992C64.1265 0.0959992 64.5585 0.279999 64.9105 0.647999C65.2785 0.999999 65.4625 1.44 65.4625 1.968C65.4625 2.48 65.2785 2.92 64.9105 3.288C64.5585 3.64 64.1265 3.816 63.6145 3.816ZM65.3665 14.136C65.3665 14.584 65.3905 15.088 65.4385 15.648C65.5025 16.192 65.6385 16.728 65.8465 17.256C65.7025 17.384 65.4625 17.536 65.1265 17.712C64.8065 17.904 64.4145 18 63.9505 18C63.4385 18 62.9985 17.848 62.6305 17.544C62.2785 17.24 62.1025 16.824 62.1025 16.296V8.736C62.1025 8.272 62.0705 7.768 62.0065 7.224C61.9585 6.68 61.8305 6.136 61.6225 5.592C61.7665 5.464 61.9985 5.312 62.3185 5.136C62.6385 4.96 63.0225 4.872 63.4705 4.872C64.0145 4.872 64.4625 5.024 64.8145 5.328C65.1665 5.616 65.3425 6.032 65.3425 6.576L65.3665 14.136ZM72.4324 23.016C71.6324 23.016 70.8804 22.92 70.1764 22.728C69.4724 22.552 68.9044 22.256 68.4724 21.84C68.0564 21.44 67.8484 20.912 67.8484 20.256C67.8484 19.648 68.0564 19.16 68.4724 18.792C68.9044 18.424 69.4484 18.24 70.1044 18.24C70.8244 18.24 71.3284 18.424 71.6164 18.792C71.3764 19 71.1924 19.248 71.0644 19.536C70.9524 19.824 70.8964 20.128 70.8964 20.448C70.8964 20.736 70.9524 21 71.0644 21.24C71.1764 21.48 71.3524 21.672 71.5924 21.816C71.8324 21.96 72.1444 22.032 72.5284 22.032C73.5364 22.032 74.2884 21.568 74.7844 20.64C75.2964 19.712 75.5524 18.512 75.5524 17.04C75.5524 16.816 75.5524 16.536 75.5524 16.2C75.5524 15.848 75.5604 15.528 75.5764 15.24C75.3044 15.992 74.8644 16.576 74.2564 16.992C73.6644 17.392 72.9204 17.592 72.0244 17.592C71.1924 17.592 70.4484 17.4 69.7924 17.016C69.1524 16.632 68.6484 16.008 68.2804 15.144C67.9284 14.264 67.7524 13.104 67.7524 11.664C67.7524 10.88 67.8164 10.144 67.9444 9.456C68.0884 8.768 68.3044 8.144 68.5924 7.584C68.8804 7.024 69.2484 6.544 69.6964 6.144C70.1604 5.744 70.7204 5.44 71.3764 5.232C72.0324 5.008 72.7924 4.896 73.6564 4.896C74.3604 4.896 75.0244 4.96 75.6484 5.088C76.2884 5.216 76.8804 5.4 77.4244 5.64C77.9684 5.864 78.4324 6.144 78.8164 6.48V16.584C78.8164 18.168 78.5364 19.432 77.9764 20.376C77.4324 21.32 76.6804 21.992 75.7204 22.392C74.7604 22.808 73.6644 23.016 72.4324 23.016ZM73.0324 16.08C73.4484 16.08 73.8084 15.984 74.1124 15.792C74.4164 15.584 74.6724 15.296 74.8804 14.928C75.0884 14.544 75.2484 14.08 75.3604 13.536C75.4724 12.976 75.5284 12.352 75.5284 11.664L75.5524 6.504C75.3444 6.344 75.0884 6.224 74.7844 6.144C74.4804 6.048 74.1684 6 73.8484 6C73.3204 6 72.8884 6.136 72.5524 6.408C72.2164 6.68 71.9524 7.072 71.7604 7.584C71.5844 8.096 71.4564 8.728 71.3764 9.48C71.2964 10.216 71.2564 11.056 71.2564 12C71.2564 13.504 71.3764 14.56 71.6164 15.168C71.8724 15.776 72.3444 16.08 73.0324 16.08ZM83.5414 18C82.9974 18 82.5414 17.832 82.1734 17.496C81.8054 17.16 81.6214 16.704 81.6214 16.128V1.752C81.6054 1.208 81.7414 0.799998 82.0294 0.527998C82.3334 0.255999 82.7094 0.103999 83.1574 0.0719981C83.6694 0.0239987 84.1334 0.0959988 84.5494 0.287998C84.9654 0.479999 85.2534 0.639999 85.4134 0.767999C85.1734 1.552 85.0214 2.432 84.9574 3.408C84.8934 4.368 84.8534 5.448 84.8374 6.648V8.736L84.2854 9.48C84.4134 8.52 84.6374 7.704 84.9574 7.032C85.2934 6.344 85.7494 5.816 86.3254 5.448C86.9014 5.08 87.6134 4.896 88.4614 4.896C89.7894 4.896 90.7654 5.296 91.3894 6.096C92.0134 6.896 92.3254 8.096 92.3254 9.696V14.136C92.3254 14.488 92.3494 14.968 92.3974 15.576C92.4614 16.168 92.5974 16.728 92.8054 17.256C92.5974 17.448 92.3334 17.616 92.0134 17.76C91.7094 17.92 91.3494 18 90.9334 18C90.3894 18 89.9334 17.848 89.5654 17.544C89.2134 17.24 89.0374 16.824 89.0374 16.296V10.224C89.0374 9.008 88.9254 8.072 88.7014 7.416C88.4934 6.744 88.0374 6.408 87.3334 6.408C86.9654 6.408 86.6294 6.528 86.3254 6.768C86.0214 6.992 85.7574 7.344 85.5334 7.824C85.3254 8.288 85.1574 8.872 85.0294 9.576C84.9174 10.264 84.8614 11.072 84.8614 12C84.8614 12.784 84.8614 13.44 84.8614 13.968C84.8774 14.496 84.9014 14.952 84.9334 15.336C84.9654 15.704 85.0134 16.04 85.0774 16.344C85.1574 16.648 85.2694 16.96 85.4134 17.28C85.2694 17.408 85.0374 17.56 84.7174 17.736C84.3974 17.912 84.0054 18 83.5414 18ZM98.6444 17.88C97.6684 17.88 96.9244 17.576 96.4124 16.968C95.9004 16.344 95.6444 15.504 95.6444 14.448V3.72C95.6444 3.192 95.8204 2.784 96.1724 2.496C96.5404 2.192 96.9964 2.04 97.5404 2.04C98.0204 2.04 98.4204 2.128 98.7404 2.304C99.0604 2.48 99.2844 2.632 99.4124 2.76C99.2044 3.528 99.0684 4.248 99.0044 4.92C98.9564 5.592 98.9324 6.424 98.9324 7.416V14.16C98.9324 14.576 99.0204 14.896 99.1964 15.12C99.3884 15.328 99.6604 15.432 100.012 15.432C100.172 15.432 100.348 15.408 100.54 15.36C100.748 15.312 100.884 15.232 100.948 15.12C101.076 15.28 101.164 15.456 101.212 15.648C101.26 15.84 101.284 16.008 101.284 16.152C101.284 16.648 101.044 17.064 100.564 17.4C100.1 17.72 99.4604 17.88 98.6444 17.88ZM93.8444 6.816L93.8684 6.024C93.8844 5.752 93.9724 5.56 94.1324 5.448C94.3084 5.32 94.5084 5.256 94.7324 5.256H98.9084C98.9724 5.256 99.1404 5.256 99.4124 5.256C99.7004 5.24 100.02 5.232 100.372 5.232C100.74 5.216 101.06 5.208 101.332 5.208C101.62 5.192 101.796 5.176 101.86 5.16L101.836 5.928C101.82 6.184 101.732 6.384 101.572 6.528C101.412 6.656 101.22 6.72 100.996 6.72H95.2844C95.1244 6.72 94.8844 6.728 94.5644 6.744C94.2444 6.76 94.0044 6.784 93.8444 6.816ZM107.397 17.976C106.357 17.976 105.493 17.856 104.805 17.616C104.133 17.376 103.629 17.048 103.293 16.632C102.957 16.216 102.789 15.736 102.789 15.192C102.789 14.904 102.861 14.616 103.005 14.328C103.149 14.024 103.397 13.784 103.749 13.608C104.101 13.432 104.589 13.4 105.213 13.512C105.165 13.736 105.141 13.952 105.141 14.16C105.157 14.368 105.197 14.584 105.261 14.808C105.341 15.288 105.581 15.744 105.981 16.176C106.397 16.592 107.021 16.8 107.853 16.8C108.429 16.8 108.917 16.688 109.317 16.464C109.717 16.224 109.917 15.856 109.917 15.36C109.917 14.944 109.781 14.6 109.509 14.328C109.253 14.04 108.909 13.784 108.477 13.56C108.061 13.336 107.613 13.112 107.133 12.888C106.525 12.6 105.909 12.28 105.285 11.928C104.677 11.56 104.173 11.104 103.773 10.56C103.373 10 103.173 9.288 103.173 8.424C103.173 7.576 103.397 6.896 103.845 6.384C104.293 5.856 104.885 5.472 105.621 5.232C106.357 4.992 107.149 4.872 107.997 4.872C109.277 4.872 110.333 5.064 111.165 5.448C111.997 5.832 112.413 6.416 112.413 7.2C112.413 7.568 112.293 7.912 112.053 8.232C111.829 8.536 111.421 8.696 110.829 8.712C110.669 8.728 110.517 8.728 110.373 8.712C110.245 8.696 110.117 8.68 109.989 8.664C110.005 8.44 109.997 8.2 109.965 7.944C109.949 7.672 109.885 7.432 109.773 7.224C109.645 6.856 109.421 6.56 109.101 6.336C108.781 6.112 108.373 6 107.877 6C107.573 6 107.285 6.048 107.013 6.144C106.757 6.224 106.541 6.36 106.365 6.552C106.205 6.744 106.125 6.992 106.125 7.296C106.125 7.712 106.261 8.08 106.533 8.4C106.805 8.704 107.165 8.976 107.613 9.216C108.061 9.456 108.533 9.704 109.029 9.96C109.493 10.184 109.957 10.424 110.421 10.68C110.885 10.92 111.309 11.2 111.693 11.52C112.093 11.84 112.405 12.208 112.629 12.624C112.869 13.024 112.989 13.504 112.989 14.064C112.989 14.704 112.805 15.328 112.437 15.936C112.069 16.528 111.477 17.016 110.661 17.4C109.845 17.784 108.757 17.976 107.397 17.976Z" fill="#F8F5EB"/>
</svg>
