<svg width="868" height="198" viewBox="0 0 868 198" fill="none" xmlns="http://www.w3.org/2000/svg">
<rect width="868" height="198" fill="white" fill-opacity="0.1"/>
<path d="M41.664 33.216C39.488 33.216 37.728 34.176 36.384 36.096C35.04 38.016 34.368 40.576 34.368 43.776C34.368 46.848 35.008 49.344 36.288 51.264C37.6 53.184 39.408 54.144 41.712 54.144C42.992 54.144 44.176 53.984 45.264 53.664C46.352 53.344 47.344 52.944 48.24 52.464L51.216 58.32C49.968 59.056 48.464 59.616 46.704 60C44.944 60.416 43.28 60.624 41.712 60.624C36.496 60.624 32.608 59.04 30.048 55.872C27.488 52.704 26.208 48.688 26.208 43.824C26.208 38.8 27.568 34.704 30.288 31.536C33.04 28.336 36.832 26.736 41.664 26.736C43.04 26.736 44.592 26.944 46.32 27.36C48.08 27.776 49.616 28.4 50.928 29.232L48.576 34.608C46.944 34.096 45.68 33.744 44.784 33.552C43.888 33.328 42.848 33.216 41.664 33.216ZM67.323 35.952C71.195 35.952 74.299 37.04 76.635 39.216C79.003 41.392 80.187 44.48 80.187 48.48C80.187 52.32 78.939 55.296 76.443 57.408C73.947 59.488 70.827 60.528 67.083 60.528C63.371 60.528 60.347 59.488 58.011 57.408C55.675 55.328 54.507 52.272 54.507 48.24C54.507 44.4 55.723 41.392 58.155 39.216C60.587 37.04 63.643 35.952 67.323 35.952ZM67.179 54.048C68.683 54.048 69.867 53.6 70.731 52.704C71.595 51.776 72.027 50.368 72.027 48.48C72.027 46.72 71.627 45.28 70.827 44.16C70.059 43.04 68.939 42.48 67.467 42.48C65.931 42.48 64.747 42.976 63.915 43.968C63.083 44.96 62.667 46.384 62.667 48.24C62.667 50.064 63.051 51.488 63.819 52.512C64.587 53.536 65.707 54.048 67.179 54.048ZM100.853 48.192C100.853 46.656 100.469 45.312 99.7009 44.16C98.9329 42.976 97.6849 42.384 95.9569 42.384C95.3489 42.384 94.7569 42.48 94.1809 42.672C93.6369 42.864 93.1409 43.088 92.6929 43.344V52.656C93.2049 53.072 93.7969 53.408 94.4689 53.664C95.1729 53.92 95.8289 54.048 96.4369 54.048C98.0369 54.048 99.1729 53.408 99.8449 52.128C100.517 50.816 100.853 49.504 100.853 48.192ZM84.8209 36.768H88.7569L90.1969 38.688C91.3489 37.792 92.5969 37.104 93.9409 36.624C95.2849 36.144 96.6289 35.904 97.9729 35.904C101.621 35.904 104.357 37.072 106.181 39.408C108.037 41.712 108.965 44.608 108.965 48.096C108.965 51.584 108.037 54.528 106.181 56.928C104.357 59.328 101.525 60.528 97.6849 60.528C96.8849 60.528 96.0529 60.4 95.1889 60.144C94.3249 59.92 93.4929 59.632 92.6929 59.28V70.032L84.8209 70.512V36.768ZM124.497 35.952C128.209 35.952 130.961 37.168 132.753 39.6C134.577 42 135.489 44.832 135.489 48.096V50.736H120.801C121.121 51.856 121.729 52.704 122.625 53.28C123.553 53.824 124.689 54.096 126.033 54.096C127.057 54.096 128.065 54 129.057 53.808C130.049 53.584 131.041 53.232 132.033 52.752L134.241 58.176C132.993 59.104 131.441 59.728 129.585 60.048C127.761 60.368 126.369 60.528 125.409 60.528C121.537 60.528 118.369 59.52 115.905 57.504C113.473 55.488 112.257 52.448 112.257 48.384C112.257 44.544 113.409 41.52 115.713 39.312C118.049 37.072 120.977 35.952 124.497 35.952ZM124.305 42.384C123.345 42.384 122.545 42.688 121.905 43.296C121.297 43.904 120.881 44.752 120.657 45.84H127.953C127.825 44.944 127.473 44.144 126.897 43.44C126.321 42.736 125.457 42.384 124.305 42.384ZM154.68 35.856C157.912 35.856 160.216 36.784 161.592 38.64C163 40.496 163.704 42.8 163.704 45.552V60H155.832V45.744C155.832 44.656 155.528 43.824 154.92 43.248C154.344 42.672 153.56 42.384 152.568 42.384C151.896 42.384 151.112 42.56 150.216 42.912C149.32 43.264 148.52 43.648 147.816 44.064V60H139.944V36.768H143.928L145.752 38.928C146.776 38.192 148.088 37.504 149.688 36.864C151.32 36.192 152.984 35.856 154.68 35.856ZM184.026 35.904C187.258 35.904 189.562 36.832 190.938 38.688C192.346 40.512 193.05 42.8 193.05 45.552V60H185.178V45.792C185.178 44.704 184.874 43.872 184.266 43.296C183.658 42.688 182.858 42.384 181.866 42.384C181.194 42.384 180.41 42.56 179.514 42.912C178.65 43.264 177.866 43.648 177.162 44.064V60H169.29V26.64L177.162 26.112V37.728C178.154 37.184 179.274 36.752 180.522 36.432C181.77 36.08 182.938 35.904 184.026 35.904ZM206.025 54.24C206.633 54.24 207.257 54.096 207.897 53.808C208.569 53.52 209.209 53.12 209.817 52.608V50.256H206.409C205.673 50.256 205.081 50.48 204.633 50.928C204.185 51.344 203.961 51.856 203.961 52.464C203.961 52.944 204.153 53.36 204.537 53.712C204.953 54.064 205.449 54.24 206.025 54.24ZM207.897 35.952C210.905 35.952 213.289 36.816 215.049 38.544C216.809 40.272 217.689 42.528 217.689 45.312V60H214.041L212.457 58.176C211.689 58.848 210.729 59.408 209.577 59.856C208.425 60.304 207.225 60.528 205.977 60.528C203.065 60.528 200.889 59.808 199.449 58.368C198.041 56.928 197.337 55.04 197.337 52.704C197.337 50.208 198.169 48.368 199.833 47.184C201.497 45.968 203.673 45.36 206.361 45.36H209.769C209.673 44.496 209.321 43.824 208.713 43.344C208.137 42.864 207.401 42.624 206.505 42.624C205.609 42.624 204.569 42.768 203.385 43.056C202.233 43.344 201.225 43.68 200.361 44.064L198.249 38.16C199.369 37.584 200.841 37.072 202.665 36.624C204.521 36.176 206.265 35.952 207.897 35.952ZM229.963 48.24C229.963 49.808 230.331 51.168 231.067 52.32C231.835 53.472 233.083 54.048 234.811 54.048C235.323 54.048 235.899 53.952 236.539 53.76C237.211 53.568 237.803 53.328 238.315 53.04V43.968C237.771 43.52 237.131 43.152 236.395 42.864C235.659 42.544 234.987 42.384 234.379 42.384C232.747 42.384 231.595 43.04 230.923 44.352C230.283 45.632 229.963 46.928 229.963 48.24ZM246.187 36.768V60.096C246.187 63.296 245.131 65.792 243.019 67.584C240.907 69.376 237.803 70.272 233.707 70.272C232.715 70.272 231.243 70.064 229.291 69.648C227.339 69.232 225.659 68.544 224.251 67.584C224.635 66.688 225.019 65.776 225.403 64.848C225.819 63.92 226.219 62.992 226.603 62.064C228.139 62.8 229.419 63.28 230.443 63.504C231.467 63.76 232.507 63.888 233.563 63.888C235.131 63.888 236.315 63.568 237.115 62.928C237.915 62.32 238.315 61.408 238.315 60.192V59.28C237.515 59.632 236.651 59.92 235.723 60.144C234.795 60.4 233.819 60.528 232.795 60.528C229.179 60.528 226.443 59.376 224.587 57.072C222.763 54.736 221.851 51.84 221.851 48.384C221.851 44.864 222.779 41.904 224.635 39.504C226.491 37.104 229.355 35.904 233.227 35.904C234.475 35.904 235.771 36.176 237.115 36.72C238.491 37.232 239.691 37.888 240.715 38.688L242.203 36.768H246.187ZM263.153 35.952C266.865 35.952 269.617 37.168 271.409 39.6C273.233 42 274.145 44.832 274.145 48.096V50.736H259.457C259.777 51.856 260.385 52.704 261.281 53.28C262.209 53.824 263.345 54.096 264.689 54.096C265.713 54.096 266.721 54 267.713 53.808C268.705 53.584 269.697 53.232 270.689 52.752L272.897 58.176C271.649 59.104 270.097 59.728 268.241 60.048C266.417 60.368 265.025 60.528 264.065 60.528C260.193 60.528 257.025 59.52 254.561 57.504C252.129 55.488 250.913 52.448 250.913 48.384C250.913 44.544 252.065 41.52 254.369 39.312C256.705 37.072 259.633 35.952 263.153 35.952ZM262.961 42.384C262.001 42.384 261.201 42.688 260.561 43.296C259.953 43.904 259.537 44.752 259.313 45.84H266.609C266.481 44.944 266.129 44.144 265.553 43.44C264.977 42.736 264.113 42.384 262.961 42.384ZM293.336 35.856C296.568 35.856 298.872 36.784 300.248 38.64C301.656 40.496 302.36 42.8 302.36 45.552V60H294.488V45.744C294.488 44.656 294.184 43.824 293.576 43.248C293 42.672 292.216 42.384 291.224 42.384C290.552 42.384 289.768 42.56 288.872 42.912C287.976 43.264 287.176 43.648 286.472 44.064V60H278.6V36.768H282.584L284.408 38.928C285.432 38.192 286.744 37.504 288.344 36.864C289.976 36.192 291.64 35.856 293.336 35.856ZM326.887 29.232C326.887 30.416 326.455 31.424 325.591 32.256C324.727 33.088 323.703 33.504 322.519 33.504C321.335 33.504 320.327 33.088 319.495 32.256C318.663 31.424 318.247 30.416 318.247 29.232C318.247 28.048 318.663 27.024 319.495 26.16C320.327 25.296 321.335 24.864 322.519 24.864C323.703 24.864 324.727 25.296 325.591 26.16C326.455 27.024 326.887 28.048 326.887 29.232ZM326.503 36.72V60H318.583V36.72H326.503ZM347.102 35.856C350.334 35.856 352.638 36.784 354.014 38.64C355.422 40.496 356.126 42.8 356.126 45.552V60H348.254V45.744C348.254 44.656 347.95 43.824 347.342 43.248C346.766 42.672 345.982 42.384 344.99 42.384C344.318 42.384 343.534 42.56 342.638 42.912C341.742 43.264 340.942 43.648 340.238 44.064V60H332.366V36.768H336.35L338.174 38.928C339.198 38.192 340.51 37.504 342.109 36.864C343.742 36.192 345.406 35.856 347.102 35.856ZM393.325 40.656C393.325 41.904 392.925 43.152 392.125 44.4C391.357 45.648 390.525 46.496 389.629 46.944C390.685 47.456 391.645 48.4 392.509 49.776C393.405 51.12 393.853 52.592 393.853 54.192C393.853 56.976 392.717 59.248 390.445 61.008C388.205 62.8 385.229 63.696 381.517 63.696C379.757 63.696 377.869 63.392 375.853 62.784C373.837 62.176 371.965 61.344 370.237 60.288L374.413 55.008C375.757 55.84 376.973 56.448 378.061 56.832C379.181 57.184 380.349 57.36 381.565 57.36C382.781 57.36 383.805 57.072 384.637 56.496C385.501 55.888 385.933 55.072 385.933 54.048C385.933 52.96 385.533 52.096 384.733 51.456C383.933 50.816 382.797 50.496 381.325 50.496H377.389L376.621 44.304H380.269C381.837 44.304 383.085 44.032 384.013 43.488C384.941 42.912 385.405 42.144 385.405 41.184C385.405 40.48 385.069 39.872 384.397 39.36C383.757 38.848 382.797 38.592 381.517 38.592C380.429 38.592 379.325 38.816 378.205 39.264C377.085 39.712 376.013 40.288 374.989 40.992L371.245 35.712C372.877 34.464 374.621 33.568 376.477 33.024C378.333 32.48 380.221 32.208 382.141 32.208C385.597 32.208 388.317 33.008 390.301 34.608C392.317 36.208 393.325 38.224 393.325 40.656ZM423.819 60H410.427V27.36H423.819C428.907 27.36 432.747 28.88 435.339 31.92C437.931 34.928 439.227 38.784 439.227 43.488C439.227 48.544 437.819 52.56 435.003 55.536C432.187 58.512 428.459 60 423.819 60ZM423.723 33.696H418.299V53.712H423.387C425.627 53.712 427.467 52.896 428.907 51.264C430.347 49.6 431.067 47.008 431.067 43.488C431.067 40.576 430.443 38.224 429.195 36.432C427.979 34.608 426.155 33.696 423.723 33.696ZM451.557 54.24C452.165 54.24 452.789 54.096 453.429 53.808C454.101 53.52 454.741 53.12 455.349 52.608V50.256H451.941C451.205 50.256 450.613 50.48 450.165 50.928C449.717 51.344 449.493 51.856 449.493 52.464C449.493 52.944 449.685 53.36 450.069 53.712C450.485 54.064 450.981 54.24 451.557 54.24ZM453.429 35.952C456.437 35.952 458.821 36.816 460.581 38.544C462.341 40.272 463.221 42.528 463.221 45.312V60H459.573L457.989 58.176C457.221 58.848 456.261 59.408 455.109 59.856C453.957 60.304 452.757 60.528 451.509 60.528C448.597 60.528 446.421 59.808 444.981 58.368C443.573 56.928 442.869 55.04 442.869 52.704C442.869 50.208 443.701 48.368 445.365 47.184C447.029 45.968 449.205 45.36 451.893 45.36H455.301C455.205 44.496 454.853 43.824 454.245 43.344C453.669 42.864 452.933 42.624 452.037 42.624C451.141 42.624 450.101 42.768 448.917 43.056C447.765 43.344 446.757 43.68 445.893 44.064L443.781 38.16C444.901 37.584 446.373 37.072 448.197 36.624C450.053 36.176 451.797 35.952 453.429 35.952ZM474.246 60.432L474.726 59.184L466.134 37.584L473.958 36.72C474.758 38.96 475.574 41.216 476.406 43.488C477.238 45.76 478.054 48 478.854 50.208C479.654 48 480.438 45.76 481.206 43.488C481.974 41.216 482.758 38.96 483.558 36.72H491.526L481.206 62.832C480.438 64.72 479.078 66.352 477.126 67.728C475.206 69.104 473.142 70.048 470.934 70.56L468.246 64.32C469.366 63.84 470.566 63.264 471.846 62.592C473.126 61.952 473.926 61.232 474.246 60.432ZM504.529 45.168C506.449 45.84 508.273 46.784 510.001 48C511.729 49.184 512.593 50.832 512.593 52.944C512.593 55.344 511.777 57.216 510.145 58.56C508.545 59.872 506.129 60.528 502.897 60.528C501.905 60.528 500.417 60.288 498.433 59.808C496.481 59.328 494.865 58.592 493.585 57.6L495.841 52.128C496.833 52.608 497.937 53.056 499.153 53.472C500.401 53.856 501.441 54.048 502.273 54.048C503.009 54.048 503.569 53.936 503.953 53.712C504.337 53.456 504.529 53.184 504.529 52.896C504.529 52.544 504.337 52.224 503.953 51.936C503.569 51.648 502.929 51.36 502.033 51.072C500.113 50.432 498.273 49.536 496.513 48.384C494.785 47.232 493.921 45.616 493.921 43.536C493.921 41.168 494.801 39.312 496.561 37.968C498.321 36.624 500.737 35.952 503.809 35.952C504.769 35.952 506.097 36.176 507.793 36.624C509.521 37.072 511.025 37.792 512.305 38.784L510.049 44.256C509.057 43.744 508.049 43.328 507.025 43.008C506.033 42.656 505.089 42.48 504.193 42.48C503.457 42.48 502.913 42.592 502.561 42.816C502.241 43.04 502.081 43.296 502.081 43.584C502.081 43.872 502.241 44.128 502.561 44.352C502.913 44.576 503.569 44.848 504.529 45.168ZM522.624 41.28C522.624 42.432 522.224 43.408 521.424 44.208C520.656 44.976 519.712 45.36 518.592 45.36C517.408 45.36 516.416 44.976 515.616 44.208C514.848 43.408 514.464 42.432 514.464 41.28C514.464 40.128 514.848 39.168 515.616 38.4C516.416 37.6 517.408 37.2 518.592 37.2C519.712 37.2 520.656 37.6 521.424 38.4C522.224 39.168 522.624 40.128 522.624 41.28ZM522.624 55.92C522.624 57.104 522.224 58.08 521.424 58.848C520.656 59.616 519.712 60 518.592 60C517.408 60 516.416 59.616 515.616 58.848C514.848 58.08 514.464 57.104 514.464 55.92C514.464 54.768 514.848 53.808 515.616 53.04C516.416 52.24 517.408 51.84 518.592 51.84C519.712 51.84 520.656 52.24 521.424 53.04C522.224 53.808 522.624 54.768 522.624 55.92ZM561.361 36.864C561.329 38.048 561.073 39.12 560.593 40.08C560.113 41.008 559.473 41.84 558.673 42.576C560.017 43.44 561.105 44.528 561.937 45.84C562.801 47.12 563.233 48.624 563.233 50.352C563.233 53.84 561.937 56.32 559.345 57.792C556.785 59.264 553.745 60 550.225 60H537.505V27.36H548.833C552.353 27.36 555.313 28.096 557.713 29.568C560.145 31.04 561.361 33.472 561.361 36.864ZM548.353 33.696H545.377V40.08H547.729C549.361 40.08 550.673 39.856 551.665 39.408C552.657 38.96 553.153 38.16 553.153 37.008C553.153 35.824 552.721 34.976 551.857 34.464C551.025 33.952 549.857 33.696 548.353 33.696ZM550.273 46.32H545.377V53.76H550.177C551.649 53.76 552.833 53.472 553.729 52.896C554.625 52.288 555.073 51.392 555.073 50.208C555.073 48.96 554.641 48 553.777 47.328C552.913 46.656 551.745 46.32 550.273 46.32ZM576.215 29.232C576.215 30.416 575.783 31.424 574.919 32.256C574.055 33.088 573.031 33.504 571.847 33.504C570.663 33.504 569.655 33.088 568.823 32.256C567.991 31.424 567.575 30.416 567.575 29.232C567.575 28.048 567.991 27.024 568.823 26.16C569.655 25.296 570.663 24.864 571.847 24.864C573.031 24.864 574.055 25.296 574.919 26.16C575.783 27.024 576.215 28.048 576.215 29.232ZM575.831 36.72V60H567.911V36.72H575.831ZM588.51 48.24C588.51 49.808 588.878 51.168 589.614 52.32C590.382 53.472 591.63 54.048 593.358 54.048C593.87 54.048 594.446 53.952 595.086 53.76C595.758 53.568 596.35 53.328 596.862 53.04V43.968C596.318 43.52 595.678 43.152 594.942 42.864C594.206 42.544 593.534 42.384 592.926 42.384C591.294 42.384 590.142 43.04 589.47 44.352C588.83 45.632 588.51 46.928 588.51 48.24ZM604.734 36.768V60.096C604.734 63.296 603.678 65.792 601.566 67.584C599.454 69.376 596.35 70.272 592.254 70.272C591.262 70.272 589.79 70.064 587.838 69.648C585.886 69.232 584.206 68.544 582.798 67.584C583.182 66.688 583.566 65.776 583.95 64.848C584.366 63.92 584.766 62.992 585.15 62.064C586.686 62.8 587.966 63.28 588.99 63.504C590.014 63.76 591.054 63.888 592.11 63.888C593.678 63.888 594.862 63.568 595.662 62.928C596.462 62.32 596.862 61.408 596.862 60.192V59.28C596.062 59.632 595.198 59.92 594.27 60.144C593.342 60.4 592.366 60.528 591.342 60.528C587.726 60.528 584.99 59.376 583.134 57.072C581.31 54.736 580.398 51.84 580.398 48.384C580.398 44.864 581.326 41.904 583.182 39.504C585.038 37.104 587.902 35.904 591.774 35.904C593.022 35.904 594.318 36.176 595.662 36.72C597.038 37.232 598.238 37.888 599.262 38.688L600.75 36.768H604.734ZM51.12 108H27.552V75.36H48.48L49.344 81.6H35.424V88.512H45.024L45.888 94.704H35.424V101.856H50.208C50.368 102.88 50.512 103.904 50.64 104.928C50.8 105.952 50.96 106.976 51.12 108ZM52.4621 108L61.1021 96.384L52.7501 85.776C54.0941 85.616 55.4381 85.44 56.7821 85.248C58.1261 85.024 59.4861 84.832 60.8621 84.672L65.7581 91.008L70.7021 84.72H79.3901L70.4621 97.008C71.9341 98.832 73.3741 100.672 74.7821 102.528C76.2221 104.352 77.6781 106.176 79.1501 108H70.3181L65.8061 102.384C65.0701 103.312 64.3181 104.256 63.5501 105.216C62.8141 106.144 62.0621 107.072 61.2941 108H52.4621ZM98.8841 96.192C98.8841 94.656 98.5001 93.312 97.7321 92.16C96.9641 90.976 95.7161 90.384 93.9881 90.384C93.3801 90.384 92.7881 90.48 92.2121 90.672C91.6681 90.864 91.1721 91.088 90.7241 91.344V100.656C91.2361 101.072 91.8281 101.408 92.5001 101.664C93.2041 101.92 93.8601 102.048 94.4681 102.048C96.0681 102.048 97.2041 101.408 97.8761 100.128C98.5481 98.816 98.8841 97.504 98.8841 96.192ZM82.8521 84.768H86.7881L88.2281 86.688C89.3801 85.792 90.6281 85.104 91.9721 84.624C93.3161 84.144 94.6601 83.904 96.0041 83.904C99.6521 83.904 102.388 85.072 104.212 87.408C106.068 89.712 106.996 92.608 106.996 96.096C106.996 99.584 106.068 102.528 104.212 104.928C102.388 107.328 99.5561 108.528 95.7161 108.528C94.9161 108.528 94.0841 108.4 93.2201 108.144C92.3561 107.92 91.5241 107.632 90.7241 107.28V118.032L82.8521 118.512V84.768ZM122.528 83.952C126.24 83.952 128.992 85.168 130.784 87.6C132.608 90 133.52 92.832 133.52 96.096V98.736H118.832C119.152 99.856 119.76 100.704 120.656 101.28C121.584 101.824 122.72 102.096 124.064 102.096C125.088 102.096 126.096 102 127.088 101.808C128.08 101.584 129.072 101.232 130.064 100.752L132.272 106.176C131.024 107.104 129.472 107.728 127.616 108.048C125.792 108.368 124.4 108.528 123.44 108.528C119.568 108.528 116.4 107.52 113.936 105.504C111.504 103.488 110.288 100.448 110.288 96.384C110.288 92.544 111.44 89.52 113.744 87.312C116.08 85.072 119.008 83.952 122.528 83.952ZM122.336 90.384C121.376 90.384 120.576 90.688 119.936 91.296C119.328 91.904 118.912 92.752 118.688 93.84H125.984C125.856 92.944 125.504 92.144 124.928 91.44C124.352 90.736 123.488 90.384 122.336 90.384ZM151.415 84.72L152.999 91.056C151.879 91.056 150.679 91.28 149.399 91.728C148.119 92.144 146.935 92.8 145.847 93.696V108H137.927V84.768H141.911L144.023 87.504C144.983 86.8 146.135 86.16 147.479 85.584C148.823 85.008 150.135 84.72 151.415 84.72ZM164.559 77.232C164.559 78.416 164.127 79.424 163.263 80.256C162.399 81.088 161.375 81.504 160.191 81.504C159.007 81.504 157.999 81.088 157.167 80.256C156.335 79.424 155.919 78.416 155.919 77.232C155.919 76.048 156.335 75.024 157.167 74.16C157.999 73.296 159.007 72.864 160.191 72.864C161.375 72.864 162.399 73.296 163.263 74.16C164.127 75.024 164.559 76.048 164.559 77.232ZM164.175 84.72V108H156.255V84.72H164.175ZM180.981 83.952C184.693 83.952 187.445 85.168 189.237 87.6C191.061 90 191.973 92.832 191.973 96.096V98.736H177.285C177.605 99.856 178.213 100.704 179.109 101.28C180.037 101.824 181.173 102.096 182.517 102.096C183.541 102.096 184.549 102 185.541 101.808C186.533 101.584 187.525 101.232 188.517 100.752L190.725 106.176C189.477 107.104 187.925 107.728 186.069 108.048C184.245 108.368 182.853 108.528 181.893 108.528C178.021 108.528 174.853 107.52 172.389 105.504C169.957 103.488 168.741 100.448 168.741 96.384C168.741 92.544 169.893 89.52 172.197 87.312C174.533 85.072 177.461 83.952 180.981 83.952ZM180.789 90.384C179.829 90.384 179.029 90.688 178.389 91.296C177.781 91.904 177.365 92.752 177.141 93.84H184.437C184.309 92.944 183.957 92.144 183.381 91.44C182.805 90.736 181.941 90.384 180.789 90.384ZM211.164 83.856C214.396 83.856 216.7 84.784 218.076 86.64C219.484 88.496 220.188 90.8 220.188 93.552V108H212.316V93.744C212.316 92.656 212.012 91.824 211.404 91.248C210.828 90.672 210.044 90.384 209.052 90.384C208.38 90.384 207.596 90.56 206.7 90.912C205.804 91.264 205.004 91.648 204.3 92.064V108H196.428V84.768H200.412L202.236 86.928C203.26 86.192 204.572 85.504 206.172 84.864C207.804 84.192 209.468 83.856 211.164 83.856ZM237.438 90.48C236.062 90.48 234.894 91.024 233.934 92.112C233.006 93.2 232.542 94.624 232.542 96.384C232.542 98.144 233.006 99.536 233.934 100.56C234.894 101.552 236.062 102.048 237.438 102.048C238.334 102.048 239.15 101.952 239.886 101.76C240.654 101.536 241.534 101.184 242.526 100.704L244.782 106.176C243.502 107.168 242.094 107.808 240.558 108.096C239.054 108.384 237.822 108.528 236.862 108.528C233.086 108.528 230.062 107.456 227.79 105.312C225.518 103.168 224.382 100.192 224.382 96.384C224.382 92.544 225.518 89.52 227.79 87.312C230.062 85.072 233.086 83.952 236.862 83.952C237.822 83.952 239.054 84.112 240.558 84.432C242.094 84.72 243.502 85.36 244.782 86.352L242.526 91.824C241.534 91.344 240.67 91.008 239.934 90.816C239.198 90.592 238.366 90.48 237.438 90.48ZM260.013 83.952C263.725 83.952 266.477 85.168 268.269 87.6C270.093 90 271.005 92.832 271.005 96.096V98.736H256.317C256.637 99.856 257.245 100.704 258.141 101.28C259.069 101.824 260.205 102.096 261.549 102.096C262.573 102.096 263.581 102 264.573 101.808C265.565 101.584 266.557 101.232 267.549 100.752L269.757 106.176C268.509 107.104 266.957 107.728 265.101 108.048C263.277 108.368 261.885 108.528 260.925 108.528C257.053 108.528 253.885 107.52 251.421 105.504C248.989 103.488 247.773 100.448 247.773 96.384C247.773 92.544 248.925 89.52 251.229 87.312C253.565 85.072 256.493 83.952 260.013 83.952ZM259.821 90.384C258.861 90.384 258.061 90.688 257.421 91.296C256.813 91.904 256.397 92.752 256.173 93.84H263.469C263.341 92.944 262.989 92.144 262.413 91.44C261.837 90.736 260.973 90.384 259.821 90.384ZM285.107 93.168C287.027 93.84 288.851 94.784 290.579 96C292.307 97.184 293.171 98.832 293.171 100.944C293.171 103.344 292.355 105.216 290.723 106.56C289.123 107.872 286.707 108.528 283.475 108.528C282.483 108.528 280.995 108.288 279.011 107.808C277.059 107.328 275.443 106.592 274.163 105.6L276.419 100.128C277.411 100.608 278.515 101.056 279.731 101.472C280.979 101.856 282.019 102.048 282.851 102.048C283.587 102.048 284.147 101.936 284.531 101.712C284.915 101.456 285.107 101.184 285.107 100.896C285.107 100.544 284.915 100.224 284.531 99.936C284.147 99.648 283.507 99.36 282.611 99.072C280.691 98.432 278.851 97.536 277.091 96.384C275.363 95.232 274.499 93.616 274.499 91.536C274.499 89.168 275.379 87.312 277.139 85.968C278.899 84.624 281.315 83.952 284.387 83.952C285.347 83.952 286.675 84.176 288.371 84.624C290.099 85.072 291.603 85.792 292.883 86.784L290.627 92.256C289.635 91.744 288.627 91.328 287.603 91.008C286.611 90.656 285.667 90.48 284.771 90.48C284.035 90.48 283.491 90.592 283.139 90.816C282.819 91.04 282.659 91.296 282.659 91.584C282.659 91.872 282.819 92.128 283.139 92.352C283.491 92.576 284.147 92.848 285.107 93.168ZM303.779 105.84C303.779 107.664 303.091 109.488 301.715 111.312C300.371 113.168 298.691 114.528 296.675 115.392L295.043 111.84C295.619 111.424 296.179 110.96 296.723 110.448C297.267 109.936 297.619 109.36 297.779 108.72C297.235 108.496 296.723 108.048 296.243 107.376C295.763 106.672 295.523 105.904 295.523 105.072C295.523 104.08 295.923 103.152 296.723 102.288C297.523 101.392 298.499 100.944 299.651 100.944C300.771 100.944 301.731 101.392 302.531 102.288C303.363 103.184 303.779 104.368 303.779 105.84ZM317.109 83.856C317.109 81.264 318.165 79.088 320.277 77.328C322.389 75.568 325.285 74.688 328.965 74.688C330.597 74.688 332.261 74.928 333.957 75.408C335.653 75.888 337.141 76.512 338.421 77.28L336.021 82.896C334.549 82.352 333.317 81.952 332.325 81.696C331.333 81.408 330.245 81.264 329.061 81.264C327.909 81.264 326.981 81.504 326.277 81.984C325.605 82.464 325.269 83.104 325.269 83.904C325.269 84.8 325.797 85.552 326.853 86.16C327.909 86.768 329.173 87.456 330.645 88.224C332.949 89.408 335.157 90.864 337.269 92.592C339.381 94.32 340.437 96.528 340.437 99.216C340.437 101.904 339.317 104.144 337.077 105.936C334.869 107.728 331.765 108.624 327.765 108.624C326.197 108.624 324.341 108.352 322.197 107.808C320.085 107.264 318.485 106.64 317.397 105.936L319.797 99.888C320.693 100.4 321.893 100.896 323.397 101.376C324.933 101.824 326.325 102.048 327.573 102.048C329.141 102.048 330.325 101.76 331.125 101.184C331.925 100.608 332.325 99.92 332.325 99.12C332.325 98.384 331.749 97.664 330.597 96.96C329.477 96.224 328.245 95.52 326.901 94.848C324.693 93.696 322.501 92.288 320.325 90.624C318.181 88.928 317.109 86.672 317.109 83.856ZM374.352 83.856C377.424 83.856 379.648 84.784 381.024 86.64C382.4 88.496 383.088 90.8 383.088 93.552V108H375.168V93.744C375.168 92.656 374.896 91.824 374.352 91.248C373.84 90.672 373.136 90.384 372.24 90.384C371.568 90.384 370.816 90.56 369.984 90.912C369.184 91.264 368.432 91.664 367.728 92.112C367.76 92.336 367.776 92.576 367.776 92.832C367.808 93.088 367.824 93.328 367.824 93.552V108H359.904V93.744C359.904 92.656 359.632 91.824 359.088 91.248C358.576 90.672 357.872 90.384 356.976 90.384C356.368 90.384 355.696 90.544 354.96 90.864C354.224 91.152 353.504 91.488 352.8 91.872V108H344.928V84.768H348.912L350.64 86.784C351.632 86.08 352.864 85.424 354.336 84.816C355.84 84.176 357.44 83.856 359.136 83.856C360.736 83.856 362.096 84.128 363.216 84.672C364.336 85.216 365.248 85.936 365.952 86.832C366.912 86.096 368.144 85.424 369.648 84.816C371.152 84.176 372.72 83.856 374.352 83.856ZM396.01 102.24C396.618 102.24 397.242 102.096 397.882 101.808C398.554 101.52 399.194 101.12 399.802 100.608V98.256H396.394C395.658 98.256 395.066 98.48 394.618 98.928C394.17 99.344 393.946 99.856 393.946 100.464C393.946 100.944 394.138 101.36 394.522 101.712C394.938 102.064 395.434 102.24 396.01 102.24ZM397.882 83.952C400.89 83.952 403.274 84.816 405.034 86.544C406.794 88.272 407.674 90.528 407.674 93.312V108H404.026L402.442 106.176C401.674 106.848 400.714 107.408 399.562 107.856C398.41 108.304 397.21 108.528 395.962 108.528C393.05 108.528 390.874 107.808 389.434 106.368C388.026 104.928 387.322 103.04 387.322 100.704C387.322 98.208 388.154 96.368 389.818 95.184C391.482 93.968 393.658 93.36 396.346 93.36H399.754C399.658 92.496 399.306 91.824 398.698 91.344C398.122 90.864 397.386 90.624 396.49 90.624C395.594 90.624 394.554 90.768 393.37 91.056C392.218 91.344 391.21 91.68 390.346 92.064L388.234 86.16C389.354 85.584 390.826 85.072 392.65 84.624C394.506 84.176 396.25 83.952 397.882 83.952ZM426.571 84.72L428.155 91.056C427.035 91.056 425.835 91.28 424.555 91.728C423.275 92.144 422.091 92.8 421.003 93.696V108H413.083V84.768H417.067L419.179 87.504C420.139 86.8 421.291 86.16 422.635 85.584C423.979 85.008 425.291 84.72 426.571 84.72ZM443.027 108.672C440.115 108.672 437.603 107.92 435.491 106.416C433.411 104.912 432.371 102.672 432.371 99.696V91.536H428.963V85.392H432.371V79.344L440.243 78.192V85.392H445.379L446.579 91.536H440.243V98.688C440.243 99.744 440.515 100.592 441.059 101.232C441.635 101.872 442.467 102.192 443.555 102.192C443.971 102.192 444.451 102.128 444.995 102C445.571 101.84 446.115 101.632 446.627 101.376L448.883 106.8C448.339 107.312 447.475 107.744 446.291 108.096C445.107 108.48 444.019 108.672 443.027 108.672ZM462.093 83.856C462.093 81.264 463.149 79.088 465.261 77.328C467.373 75.568 470.269 74.688 473.949 74.688C475.581 74.688 477.245 74.928 478.941 75.408C480.637 75.888 482.125 76.512 483.405 77.28L481.005 82.896C479.533 82.352 478.301 81.952 477.309 81.696C476.317 81.408 475.229 81.264 474.045 81.264C472.893 81.264 471.965 81.504 471.261 81.984C470.589 82.464 470.253 83.104 470.253 83.904C470.253 84.8 470.781 85.552 471.837 86.16C472.893 86.768 474.157 87.456 475.629 88.224C477.933 89.408 480.141 90.864 482.253 92.592C484.365 94.32 485.421 96.528 485.421 99.216C485.421 101.904 484.301 104.144 482.061 105.936C479.853 107.728 476.749 108.624 472.749 108.624C471.181 108.624 469.325 108.352 467.181 107.808C465.069 107.264 463.469 106.64 462.381 105.936L464.781 99.888C465.677 100.4 466.877 100.896 468.381 101.376C469.917 101.824 471.309 102.048 472.557 102.048C474.125 102.048 475.309 101.76 476.109 101.184C476.909 100.608 477.309 99.92 477.309 99.12C477.309 98.384 476.733 97.664 475.581 96.96C474.461 96.224 473.229 95.52 471.885 94.848C469.677 93.696 467.485 92.288 465.309 90.624C463.165 88.928 462.093 86.672 462.093 83.856ZM506.04 96.192C506.04 94.656 505.656 93.312 504.888 92.16C504.12 90.976 502.872 90.384 501.144 90.384C500.536 90.384 499.944 90.48 499.368 90.672C498.824 90.864 498.328 91.088 497.88 91.344V100.656C498.392 101.072 498.984 101.408 499.656 101.664C500.36 101.92 501.016 102.048 501.624 102.048C503.224 102.048 504.36 101.408 505.032 100.128C505.704 98.816 506.04 97.504 506.04 96.192ZM490.008 84.768H493.944L495.384 86.688C496.536 85.792 497.784 85.104 499.128 84.624C500.472 84.144 501.816 83.904 503.16 83.904C506.808 83.904 509.544 85.072 511.368 87.408C513.224 89.712 514.152 92.608 514.152 96.096C514.152 99.584 513.224 102.528 511.368 104.928C509.544 107.328 506.712 108.528 502.872 108.528C502.072 108.528 501.24 108.4 500.376 108.144C499.512 107.92 498.68 107.632 497.88 107.28V118.032L490.008 118.512V84.768ZM529.685 83.952C533.397 83.952 536.149 85.168 537.941 87.6C539.765 90 540.677 92.832 540.677 96.096V98.736H525.989C526.309 99.856 526.917 100.704 527.812 101.28C528.741 101.824 529.877 102.096 531.221 102.096C532.245 102.096 533.253 102 534.245 101.808C535.237 101.584 536.229 101.232 537.221 100.752L539.429 106.176C538.181 107.104 536.629 107.728 534.773 108.048C532.949 108.368 531.557 108.528 530.597 108.528C526.725 108.528 523.557 107.52 521.093 105.504C518.661 103.488 517.445 100.448 517.445 96.384C517.445 92.544 518.597 89.52 520.901 87.312C523.237 85.072 526.165 83.952 529.685 83.952ZM529.493 90.384C528.533 90.384 527.733 90.688 527.093 91.296C526.485 91.904 526.069 92.752 525.845 93.84H533.141C533.013 92.944 532.661 92.144 532.085 91.44C531.509 90.736 530.645 90.384 529.493 90.384ZM559.867 83.856C563.099 83.856 565.403 84.784 566.779 86.64C568.187 88.496 568.891 90.8 568.891 93.552V108H561.019V93.744C561.019 92.656 560.715 91.824 560.107 91.248C559.531 90.672 558.747 90.384 557.755 90.384C557.083 90.384 556.299 90.56 555.403 90.912C554.507 91.264 553.707 91.648 553.003 92.064V108H545.131V84.768H549.115L550.939 86.928C551.963 86.192 553.275 85.504 554.875 84.864C556.507 84.192 558.171 83.856 559.867 83.856ZM586.093 102.048C586.573 102.048 587.133 101.952 587.773 101.76C588.445 101.568 589.037 101.328 589.549 101.04V91.92C589.005 91.472 588.365 91.104 587.629 90.816C586.893 90.528 586.221 90.384 585.613 90.384C584.013 90.384 582.877 91.04 582.205 92.352C581.565 93.632 581.245 94.928 581.245 96.24C581.245 97.776 581.613 99.136 582.349 100.32C583.117 101.472 584.365 102.048 586.093 102.048ZM597.469 74.112V108H593.437L591.853 105.648C591.053 106.384 589.981 107.056 588.637 107.664C587.325 108.24 585.805 108.528 584.077 108.528C580.461 108.528 577.725 107.376 575.869 105.072C574.013 102.736 573.085 99.824 573.085 96.336C573.085 92.848 574.013 89.904 575.869 87.504C577.757 85.072 580.621 83.856 584.461 83.856C585.261 83.856 586.109 83.984 587.005 84.24C587.901 84.464 588.749 84.784 589.549 85.2V74.64L597.469 74.112ZM611.7 77.232C611.7 78.416 611.268 79.424 610.404 80.256C609.54 81.088 608.516 81.504 607.332 81.504C606.148 81.504 605.14 81.088 604.308 80.256C603.476 79.424 603.06 78.416 603.06 77.232C603.06 76.048 603.476 75.024 604.308 74.16C605.14 73.296 606.148 72.864 607.332 72.864C608.516 72.864 609.54 73.296 610.404 74.16C611.268 75.024 611.7 76.048 611.7 77.232ZM611.316 84.72V108H603.396V84.72H611.316ZM631.914 83.856C635.146 83.856 637.45 84.784 638.826 86.64C640.234 88.496 640.938 90.8 640.938 93.552V108H633.066V93.744C633.066 92.656 632.762 91.824 632.154 91.248C631.578 90.672 630.794 90.384 629.802 90.384C629.13 90.384 628.346 90.56 627.45 90.912C626.554 91.264 625.754 91.648 625.05 92.064V108H617.178V84.768H621.162L622.986 86.928C624.01 86.192 625.322 85.504 626.922 84.864C628.554 84.192 630.218 83.856 631.914 83.856ZM653.244 96.24C653.244 97.808 653.612 99.168 654.348 100.32C655.116 101.472 656.364 102.048 658.092 102.048C658.604 102.048 659.18 101.952 659.82 101.76C660.492 101.568 661.084 101.328 661.596 101.04V91.968C661.052 91.52 660.412 91.152 659.676 90.864C658.94 90.544 658.268 90.384 657.66 90.384C656.028 90.384 654.876 91.04 654.204 92.352C653.564 93.632 653.244 94.928 653.244 96.24ZM669.468 84.768V108.096C669.468 111.296 668.412 113.792 666.3 115.584C664.188 117.376 661.084 118.272 656.988 118.272C655.996 118.272 654.524 118.064 652.572 117.648C650.62 117.232 648.94 116.544 647.532 115.584C647.916 114.688 648.3 113.776 648.684 112.848C649.1 111.92 649.5 110.992 649.884 110.064C651.42 110.8 652.7 111.28 653.724 111.504C654.748 111.76 655.788 111.888 656.844 111.888C658.412 111.888 659.596 111.568 660.396 110.928C661.196 110.32 661.596 109.408 661.596 108.192V107.28C660.796 107.632 659.932 107.92 659.004 108.144C658.076 108.4 657.1 108.528 656.076 108.528C652.46 108.528 649.724 107.376 647.868 105.072C646.044 102.736 645.132 99.84 645.132 96.384C645.132 92.864 646.06 89.904 647.916 87.504C649.772 85.104 652.636 83.904 656.508 83.904C657.756 83.904 659.052 84.176 660.396 84.72C661.772 85.232 662.972 85.888 663.996 86.688L665.484 84.768H669.468Z" fill="white"/>
<path d="M26.772 147V127.96H33.184C36.1147 127.96 38.2333 128.875 39.54 130.704C40.8467 132.533 41.5 134.755 41.5 137.368C41.5 140.093 40.772 142.38 39.316 144.228C37.8787 146.076 35.7693 147 32.988 147H26.772ZM33.268 129.864H28.984V145.152H33.016C34.9013 145.152 36.4227 144.471 37.58 143.108C38.7373 141.745 39.316 139.841 39.316 137.396C39.316 135.212 38.8213 133.411 37.832 131.992C36.8427 130.573 35.3213 129.864 33.268 129.864ZM46.8008 130.732C46.3714 130.732 46.0168 130.592 45.7368 130.312C45.4567 130.013 45.3167 129.649 45.3167 129.22C45.2981 128.809 45.4288 128.464 45.7088 128.184C46.0074 127.885 46.3714 127.736 46.8008 127.736C47.2114 127.736 47.5661 127.885 47.8648 128.184C48.1821 128.464 48.3408 128.809 48.3408 129.22C48.3408 129.649 48.1821 130.013 47.8648 130.312C47.5661 130.592 47.2114 130.732 46.8008 130.732ZM45.7088 147V133.42H47.9488V147H45.7088ZM60.0526 135.884C59.6046 135.66 59.0913 135.445 58.5126 135.24C57.934 135.035 57.2433 134.932 56.4406 134.932C55.6193 134.932 54.9566 135.1 54.4526 135.436C53.9673 135.772 53.7246 136.229 53.7246 136.808C53.7246 137.331 54.0046 137.779 54.5646 138.152C55.1433 138.507 55.8806 138.833 56.7766 139.132C57.878 139.524 58.9046 140.056 59.8566 140.728C60.8273 141.4 61.3126 142.296 61.3126 143.416C61.3126 144.648 60.846 145.619 59.9126 146.328C58.998 147.019 57.654 147.364 55.8806 147.364C55.302 147.364 54.574 147.261 53.6966 147.056C52.8193 146.869 52.1006 146.589 51.5406 146.216L52.2126 144.536C52.7353 144.797 53.314 145.021 53.9486 145.208C54.602 145.395 55.2553 145.488 55.9086 145.488C56.9166 145.488 57.7006 145.329 58.2606 145.012C58.8206 144.695 59.1006 144.209 59.1006 143.556C59.1006 142.977 58.7926 142.473 58.1766 142.044C57.5606 141.596 56.7953 141.223 55.8806 140.924C54.8166 140.569 53.8086 140.084 52.8566 139.468C51.9233 138.833 51.4566 137.984 51.4566 136.92C51.4566 135.707 51.9046 134.764 52.8006 134.092C53.7153 133.401 54.9473 133.056 56.4966 133.056C57.0753 133.056 57.794 133.168 58.6526 133.392C59.5113 133.597 60.202 133.887 60.7246 134.26L60.0526 135.884ZM70.3367 134.932C68.9554 134.932 67.9381 135.436 67.2847 136.444C66.6314 137.433 66.2954 138.665 66.2767 140.14C66.2767 141.671 66.5847 142.949 67.2007 143.976C67.8167 144.984 68.8247 145.488 70.2247 145.488C71.1394 145.488 71.8301 145.395 72.2967 145.208C72.7634 145.021 73.2581 144.797 73.7807 144.536L74.4527 146.16C73.8741 146.533 73.1741 146.823 72.3527 147.028C71.5314 147.252 70.8314 147.364 70.2527 147.364C68.1994 147.364 66.6407 146.692 65.5767 145.348C64.5314 144.004 64.0087 142.277 64.0087 140.168C64.0274 138.096 64.5781 136.397 65.6607 135.072C66.7621 133.728 68.3394 133.056 70.3927 133.056C70.9341 133.056 71.6154 133.168 72.4367 133.392C73.2767 133.597 73.9861 133.896 74.5647 134.288L73.8927 135.884C73.3701 135.641 72.8661 135.427 72.3807 135.24C71.9141 135.035 71.2327 134.932 70.3367 134.932ZM83.1537 147.364C81.1564 147.345 79.6537 146.664 78.6457 145.32C77.6377 143.976 77.1337 142.249 77.1337 140.14C77.1524 138.087 77.7031 136.397 78.7857 135.072C79.8684 133.747 81.4177 133.075 83.4337 133.056C85.4871 133.056 87.0177 133.737 88.0257 135.1C89.0524 136.463 89.5657 138.199 89.5657 140.308C89.5471 142.38 88.9777 144.079 87.8577 145.404C86.7377 146.711 85.1697 147.364 83.1537 147.364ZM87.3537 140.308C87.3537 138.759 87.0551 137.48 86.4577 136.472C85.8791 135.464 84.8897 134.96 83.4897 134.96C82.1084 134.96 81.0817 135.445 80.4097 136.416C79.7564 137.368 79.4204 138.6 79.4017 140.112C79.4017 141.699 79.6817 142.987 80.2417 143.976C80.8017 144.965 81.7817 145.46 83.1817 145.46C84.5817 145.46 85.6177 144.993 86.2897 144.06C86.9804 143.127 87.3351 141.876 87.3537 140.308ZM96.6208 147L91.4408 133.756L93.6808 133.42L97.7408 144.004L101.633 133.42H103.845L98.8048 147H96.6208ZM117.833 140.56H107.977C108.033 141.997 108.415 143.192 109.125 144.144C109.834 145.077 110.954 145.544 112.485 145.544C113.399 145.544 114.137 145.451 114.697 145.264C115.275 145.059 115.826 144.835 116.349 144.592L117.049 146.216C116.47 146.608 115.714 146.888 114.781 147.056C113.847 147.243 113.101 147.336 112.541 147.336C110.282 147.336 108.574 146.673 107.417 145.348C106.259 144.004 105.681 142.277 105.681 140.168C105.699 138.115 106.25 136.416 107.333 135.072C108.434 133.728 109.993 133.056 112.009 133.056C114.118 133.056 115.611 133.803 116.489 135.296C117.385 136.771 117.833 138.525 117.833 140.56ZM115.649 139.048C115.499 137.835 115.135 136.845 114.557 136.08C113.978 135.315 113.101 134.932 111.925 134.932C110.749 134.932 109.834 135.315 109.181 136.08C108.546 136.845 108.163 137.835 108.033 139.048H115.649ZM121.286 147V133.42H122.63L123.302 135.324C123.806 134.895 124.45 134.475 125.234 134.064C126.036 133.635 126.802 133.42 127.53 133.42C127.604 133.719 127.688 134.017 127.782 134.316C127.875 134.596 127.968 134.885 128.062 135.184C127.259 135.184 126.447 135.408 125.626 135.856C124.804 136.285 124.095 136.799 123.498 137.396V147H121.286ZM149.353 130.284C148.718 130.041 148.121 129.845 147.561 129.696C147.001 129.547 146.245 129.472 145.293 129.472C143.426 129.491 141.942 130.247 140.841 131.74C139.758 133.233 139.217 135.175 139.217 137.564C139.217 139.729 139.674 141.596 140.589 143.164C141.522 144.713 143.006 145.488 145.041 145.488C145.993 145.488 146.796 145.404 147.449 145.236C148.121 145.068 148.718 144.863 149.241 144.62L150.081 146.3C149.502 146.599 148.728 146.851 147.757 147.056C146.805 147.28 145.937 147.392 145.153 147.392C142.222 147.392 140.113 146.421 138.825 144.48C137.537 142.52 136.893 140.224 136.893 137.592C136.893 134.773 137.602 132.403 139.021 130.48C140.458 128.539 142.549 127.568 145.293 127.568C145.872 127.568 146.656 127.652 147.645 127.82C148.653 127.988 149.456 128.268 150.053 128.66L149.353 130.284ZM159.087 147.364C157.09 147.345 155.587 146.664 154.579 145.32C153.571 143.976 153.067 142.249 153.067 140.14C153.086 138.087 153.637 136.397 154.719 135.072C155.802 133.747 157.351 133.075 159.367 133.056C161.421 133.056 162.951 133.737 163.959 135.1C164.986 136.463 165.499 138.199 165.499 140.308C165.481 142.38 164.911 144.079 163.791 145.404C162.671 146.711 161.103 147.364 159.087 147.364ZM163.287 140.308C163.287 138.759 162.989 137.48 162.391 136.472C161.813 135.464 160.823 134.96 159.423 134.96C158.042 134.96 157.015 135.445 156.343 136.416C155.69 137.368 155.354 138.6 155.335 140.112C155.335 141.699 155.615 142.987 156.175 143.976C156.735 144.965 157.715 145.46 159.115 145.46C160.515 145.46 161.551 144.993 162.223 144.06C162.914 143.127 163.269 141.876 163.287 140.308ZM171.35 144.06C171.873 144.527 172.424 144.881 173.002 145.124C173.6 145.367 174.16 145.488 174.682 145.488C176.138 145.488 177.174 144.975 177.79 143.948C178.406 142.921 178.714 141.68 178.714 140.224C178.714 138.712 178.416 137.452 177.818 136.444C177.221 135.417 176.176 134.904 174.682 134.904C174.16 134.904 173.6 135.035 173.002 135.296C172.424 135.539 171.873 135.893 171.35 136.36V144.06ZM169.138 153.132V133.42H170.454L170.958 134.624C171.537 134.176 172.19 133.803 172.918 133.504C173.665 133.187 174.365 133.028 175.018 133.028C177.016 133.028 178.5 133.709 179.47 135.072C180.441 136.435 180.926 138.143 180.926 140.196C180.926 142.268 180.432 143.976 179.442 145.32C178.472 146.664 176.997 147.336 175.018 147.336C174.421 147.336 173.796 147.224 173.142 147C172.489 146.757 171.892 146.431 171.35 146.02V152.824L169.138 153.132ZM195.872 140.56H186.016C186.072 141.997 186.454 143.192 187.164 144.144C187.873 145.077 188.993 145.544 190.524 145.544C191.438 145.544 192.176 145.451 192.736 145.264C193.314 145.059 193.865 144.835 194.388 144.592L195.088 146.216C194.509 146.608 193.753 146.888 192.82 147.056C191.886 147.243 191.14 147.336 190.58 147.336C188.321 147.336 186.613 146.673 185.456 145.348C184.298 144.004 183.72 142.277 183.72 140.168C183.738 138.115 184.289 136.416 185.372 135.072C186.473 133.728 188.032 133.056 190.048 133.056C192.157 133.056 193.65 133.803 194.528 135.296C195.424 136.771 195.872 138.525 195.872 140.56ZM193.688 139.048C193.538 137.835 193.174 136.845 192.596 136.08C192.017 135.315 191.14 134.932 189.964 134.932C188.788 134.932 187.873 135.315 187.22 136.08C186.585 136.845 186.202 137.835 186.072 139.048H193.688ZM201.369 135.38C201.947 134.727 202.694 134.176 203.609 133.728C204.523 133.261 205.382 133.028 206.185 133.028C207.734 133.028 208.882 133.485 209.629 134.4C210.375 135.296 210.749 136.425 210.749 137.788V146.972H208.537V138.096C208.537 137.181 208.313 136.425 207.865 135.828C207.417 135.231 206.726 134.923 205.793 134.904C205.214 134.904 204.505 135.1 203.665 135.492C202.843 135.884 202.134 136.425 201.537 137.116V147H199.325V133.42H200.669L201.369 135.38ZM217.233 135.212C217.812 134.596 218.531 134.083 219.389 133.672C220.248 133.243 221.069 133.028 221.853 133.028C223.421 133.028 224.569 133.485 225.297 134.4C226.044 135.296 226.417 136.425 226.417 137.788V146.972H224.205V138.096C224.205 137.181 223.981 136.425 223.533 135.828C223.104 135.231 222.413 134.923 221.461 134.904C220.883 134.904 220.183 135.1 219.361 135.492C218.54 135.884 217.831 136.425 217.233 137.116V147H215.021V127.512L217.233 127.232V135.212ZM231.921 143.136C231.921 143.715 232.117 144.265 232.509 144.788C232.92 145.311 233.573 145.572 234.469 145.572C235.253 145.572 235.972 145.376 236.625 144.984C237.279 144.592 237.839 144.125 238.305 143.584V140.476H234.721C233.807 140.476 233.107 140.747 232.621 141.288C232.155 141.811 231.921 142.427 231.921 143.136ZM230.745 134.26C231.268 133.905 232.005 133.616 232.957 133.392C233.909 133.168 234.665 133.056 235.225 133.056C236.793 133.056 238.063 133.485 239.033 134.344C240.023 135.184 240.517 136.285 240.517 137.648V147H239.173L238.585 145.628C238.119 146.057 237.512 146.449 236.765 146.804C236.019 147.159 235.272 147.336 234.525 147.336C232.957 147.336 231.791 146.944 231.025 146.16C230.26 145.357 229.877 144.349 229.877 143.136C229.877 141.792 230.325 140.775 231.221 140.084C232.136 139.375 233.321 139.02 234.777 139.02H238.277C238.277 137.9 238.1 136.948 237.745 136.164C237.391 135.38 236.579 134.988 235.309 134.988C234.395 134.988 233.639 135.091 233.041 135.296C232.444 135.501 231.893 135.716 231.389 135.94C231.296 135.66 231.193 135.38 231.081 135.1C230.969 134.82 230.857 134.54 230.745 134.26ZM253.591 136.388C253.068 135.921 252.499 135.557 251.883 135.296C251.285 135.035 250.725 134.904 250.203 134.904C248.747 134.904 247.711 135.427 247.095 136.472C246.497 137.499 246.199 138.74 246.199 140.196C246.199 141.708 246.488 142.968 247.067 143.976C247.664 144.984 248.709 145.488 250.203 145.488C250.725 145.488 251.285 145.357 251.883 145.096C252.499 144.835 253.068 144.471 253.591 144.004V136.388ZM255.831 148.092C255.831 149.511 255.336 150.696 254.347 151.648C253.376 152.6 251.92 153.076 249.979 153.076C249.419 153.076 248.663 152.964 247.711 152.74C246.759 152.535 245.993 152.227 245.415 151.816L246.087 150.22C246.647 150.463 247.197 150.696 247.739 150.92C248.299 151.144 249.027 151.256 249.923 151.256C251.043 151.256 251.929 150.985 252.583 150.444C253.255 149.921 253.591 149.128 253.591 148.064V145.992C253.049 146.403 252.433 146.729 251.743 146.972C251.071 147.215 250.436 147.336 249.839 147.336C247.86 147.336 246.376 146.673 245.387 145.348C244.416 144.004 243.931 142.296 243.931 140.224C243.931 138.152 244.425 136.435 245.415 135.072C246.423 133.709 247.916 133.028 249.895 133.028C250.548 133.028 251.239 133.187 251.967 133.504C252.695 133.803 253.348 134.185 253.927 134.652C254.02 134.465 254.113 134.269 254.207 134.064C254.3 133.84 254.393 133.625 254.487 133.42H255.831V148.092ZM271.587 140.56H261.731C261.787 141.997 262.169 143.192 262.879 144.144C263.588 145.077 264.708 145.544 266.239 145.544C267.153 145.544 267.891 145.451 268.451 145.264C269.029 145.059 269.58 144.835 270.103 144.592L270.803 146.216C270.224 146.608 269.468 146.888 268.535 147.056C267.601 147.243 266.855 147.336 266.294 147.336C264.036 147.336 262.328 146.673 261.171 145.348C260.013 144.004 259.435 142.277 259.435 140.168C259.453 138.115 260.004 136.416 261.087 135.072C262.188 133.728 263.747 133.056 265.763 133.056C267.872 133.056 269.365 133.803 270.243 135.296C271.139 136.771 271.587 138.525 271.587 140.56ZM269.403 139.048C269.253 137.835 268.889 136.845 268.311 136.08C267.732 135.315 266.855 134.932 265.679 134.932C264.503 134.932 263.588 135.315 262.935 136.08C262.3 136.845 261.917 137.835 261.787 139.048H269.403ZM277.083 135.38C277.662 134.727 278.409 134.176 279.323 133.728C280.238 133.261 281.097 133.028 281.899 133.028C283.449 133.028 284.597 133.485 285.343 134.4C286.09 135.296 286.463 136.425 286.463 137.788V146.972H284.251V138.096C284.251 137.181 284.027 136.425 283.579 135.828C283.131 135.231 282.441 134.923 281.507 134.904C280.929 134.904 280.219 135.1 279.379 135.492C278.558 135.884 277.849 136.425 277.251 137.116V147H275.039V133.42H276.383L277.083 135.38ZM290.792 144.004C291.221 144.004 291.585 144.163 291.884 144.48C292.183 144.797 292.332 145.217 292.332 145.74C292.332 146.655 292.052 147.551 291.492 148.428C290.951 149.305 290.279 149.949 289.476 150.36L288.888 149.296C289.355 148.979 289.737 148.643 290.036 148.288C290.335 147.933 290.512 147.495 290.568 146.972C290.232 146.953 289.933 146.795 289.672 146.496C289.411 146.197 289.28 145.861 289.28 145.488C289.28 145.096 289.429 144.751 289.728 144.452C290.027 144.153 290.381 144.004 290.792 144.004ZM313.407 147L309.879 136.668L306.603 147H304.419L299.855 133.756L302.095 133.42L305.539 143.836L308.815 133.42H311.055L314.499 143.836L317.775 133.42H320.015L315.591 147H313.407ZM324.913 135.212C325.492 134.596 326.21 134.083 327.069 133.672C327.928 133.243 328.749 133.028 329.533 133.028C331.101 133.028 332.249 133.485 332.977 134.4C333.724 135.296 334.097 136.425 334.097 137.788V146.972H331.885V138.096C331.885 137.181 331.661 136.425 331.213 135.828C330.784 135.231 330.093 134.923 329.141 134.904C328.562 134.904 327.862 135.1 327.041 135.492C326.22 135.884 325.51 136.425 324.913 137.116V147H322.701V127.512L324.913 127.232V135.212ZM349.653 140.56H339.797C339.853 141.997 340.236 143.192 340.945 144.144C341.654 145.077 342.774 145.544 344.305 145.544C345.22 145.544 345.957 145.451 346.517 145.264C347.096 145.059 347.646 144.835 348.169 144.592L348.869 146.216C348.29 146.608 347.534 146.888 346.601 147.056C345.668 147.243 344.921 147.336 344.361 147.336C342.102 147.336 340.394 146.673 339.237 145.348C338.08 144.004 337.501 142.277 337.501 140.168C337.52 138.115 338.07 136.416 339.153 135.072C340.254 133.728 341.813 133.056 343.829 133.056C345.938 133.056 347.432 133.803 348.309 135.296C349.205 136.771 349.653 138.525 349.653 140.56ZM347.469 139.048C347.32 137.835 346.956 136.845 346.377 136.08C345.798 135.315 344.921 134.932 343.745 134.932C342.569 134.932 341.654 135.315 341.001 136.08C340.366 136.845 339.984 137.835 339.853 139.048H347.469ZM353.106 147V133.42H354.45L355.122 135.324C355.626 134.895 356.27 134.475 357.054 134.064C357.857 133.635 358.622 133.42 359.35 133.42C359.425 133.719 359.509 134.017 359.602 134.316C359.695 134.596 359.789 134.885 359.882 135.184C359.079 135.184 358.267 135.408 357.446 135.856C356.625 136.285 355.915 136.799 355.318 137.396V147H353.106ZM373.688 140.56H363.832C363.888 141.997 364.271 143.192 364.98 144.144C365.689 145.077 366.809 145.544 368.34 145.544C369.255 145.544 369.992 145.451 370.552 145.264C371.131 145.059 371.681 144.835 372.204 144.592L372.904 146.216C372.325 146.608 371.569 146.888 370.636 147.056C369.703 147.243 368.956 147.336 368.396 147.336C366.137 147.336 364.429 146.673 363.272 145.348C362.115 144.004 361.536 142.277 361.536 140.168C361.555 138.115 362.105 136.416 363.188 135.072C364.289 133.728 365.848 133.056 367.864 133.056C369.973 133.056 371.467 133.803 372.344 135.296C373.24 136.771 373.688 138.525 373.688 140.56ZM371.504 139.048C371.355 137.835 370.991 136.845 370.412 136.08C369.833 135.315 368.956 134.932 367.78 134.932C366.604 134.932 365.689 135.315 365.036 136.08C364.401 136.845 364.019 137.835 363.888 139.048H371.504ZM386.026 135.212C386.605 134.596 387.324 134.083 388.182 133.672C389.041 133.243 389.862 133.028 390.646 133.028C392.214 133.028 393.362 133.485 394.09 134.4C394.837 135.296 395.21 136.425 395.21 137.788V146.972H392.998V138.096C392.998 137.181 392.774 136.425 392.326 135.828C391.897 135.231 391.206 134.923 390.254 134.904C389.676 134.904 388.976 135.1 388.154 135.492C387.333 135.884 386.624 136.425 386.026 137.116V147H383.814V127.512L386.026 127.232V135.212ZM400.574 130.732C400.145 130.732 399.79 130.592 399.51 130.312C399.23 130.013 399.09 129.649 399.09 129.22C399.072 128.809 399.202 128.464 399.482 128.184C399.781 127.885 400.145 127.736 400.574 127.736C400.985 127.736 401.34 127.885 401.638 128.184C401.956 128.464 402.114 128.809 402.114 129.22C402.114 129.649 401.956 130.013 401.638 130.312C401.34 130.592 400.985 130.732 400.574 130.732ZM399.482 147V133.42H401.722V147H399.482ZM413.826 135.884C413.378 135.66 412.865 135.445 412.286 135.24C411.707 135.035 411.017 134.932 410.214 134.932C409.393 134.932 408.73 135.1 408.226 135.436C407.741 135.772 407.498 136.229 407.498 136.808C407.498 137.331 407.778 137.779 408.338 138.152C408.917 138.507 409.654 138.833 410.55 139.132C411.651 139.524 412.678 140.056 413.63 140.728C414.601 141.4 415.086 142.296 415.086 143.416C415.086 144.648 414.619 145.619 413.686 146.328C412.771 147.019 411.427 147.364 409.654 147.364C409.075 147.364 408.347 147.261 407.47 147.056C406.593 146.869 405.874 146.589 405.314 146.216L405.986 144.536C406.509 144.797 407.087 145.021 407.722 145.208C408.375 145.395 409.029 145.488 409.682 145.488C410.69 145.488 411.474 145.329 412.034 145.012C412.594 144.695 412.874 144.209 412.874 143.556C412.874 142.977 412.566 142.473 411.95 142.044C411.334 141.596 410.569 141.223 409.654 140.924C408.59 140.569 407.582 140.084 406.63 139.468C405.697 138.833 405.23 137.984 405.23 136.92C405.23 135.707 405.678 134.764 406.574 134.092C407.489 133.401 408.721 133.056 410.27 133.056C410.849 133.056 411.567 133.168 412.426 133.392C413.285 133.597 413.975 133.887 414.498 134.26L413.826 135.884ZM424.754 146.944C424.549 147.037 424.25 147.14 423.858 147.252C423.485 147.364 423.093 147.42 422.682 147.42C421.525 147.42 420.591 147.084 419.882 146.412C419.191 145.74 418.846 144.76 418.846 143.472V135.324H416.914L416.886 133.644H418.846V130.2L421.086 129.556V133.644H423.55L424.278 135.324H421.086V143.164C421.086 143.855 421.235 144.424 421.534 144.872C421.833 145.301 422.327 145.516 423.018 145.516C423.223 145.516 423.447 145.488 423.69 145.432C423.933 145.357 424.119 145.292 424.25 145.236L424.754 146.944ZM432.908 147.364C430.91 147.345 429.408 146.664 428.4 145.32C427.392 143.976 426.888 142.249 426.888 140.14C426.906 138.087 427.457 136.397 428.54 135.072C429.622 133.747 431.172 133.075 433.188 133.056C435.241 133.056 436.772 133.737 437.78 135.1C438.806 136.463 439.32 138.199 439.32 140.308C439.301 142.38 438.732 144.079 437.612 145.404C436.492 146.711 434.924 147.364 432.908 147.364ZM437.108 140.308C437.108 138.759 436.809 137.48 436.212 136.472C435.633 135.464 434.644 134.96 433.244 134.96C431.862 134.96 430.836 135.445 430.164 136.416C429.51 137.368 429.174 138.6 429.156 140.112C429.156 141.699 429.436 142.987 429.996 143.976C430.556 144.965 431.536 145.46 432.936 145.46C434.336 145.46 435.372 144.993 436.044 144.06C436.734 143.127 437.089 141.876 437.108 140.308ZM442.903 147V133.42H444.247L444.919 135.324C445.423 134.895 446.067 134.475 446.851 134.064C447.653 133.635 448.419 133.42 449.147 133.42C449.221 133.719 449.305 134.017 449.399 134.316C449.492 134.596 449.585 134.885 449.679 135.184C448.876 135.184 448.064 135.408 447.243 135.856C446.421 136.285 445.712 136.799 445.115 137.396V147H442.903ZM453.293 130.732C452.864 130.732 452.509 130.592 452.229 130.312C451.949 130.013 451.809 129.649 451.809 129.22C451.79 128.809 451.921 128.464 452.201 128.184C452.5 127.885 452.864 127.736 453.293 127.736C453.704 127.736 454.058 127.885 454.357 128.184C454.674 128.464 454.833 128.809 454.833 129.22C454.833 129.649 454.674 130.013 454.357 130.312C454.058 130.592 453.704 130.732 453.293 130.732ZM452.201 147V133.42H454.441V147H452.201ZM464.333 134.932C462.951 134.932 461.934 135.436 461.281 136.444C460.627 137.433 460.291 138.665 460.273 140.14C460.273 141.671 460.581 142.949 461.197 143.976C461.813 144.984 462.821 145.488 464.221 145.488C465.135 145.488 465.826 145.395 466.293 145.208C466.759 145.021 467.254 144.797 467.777 144.536L468.449 146.16C467.87 146.533 467.17 146.823 466.349 147.028C465.527 147.252 464.827 147.364 464.249 147.364C462.195 147.364 460.637 146.692 459.573 145.348C458.527 144.004 458.005 142.277 458.005 140.168C458.023 138.096 458.574 136.397 459.657 135.072C460.758 133.728 462.335 133.056 464.389 133.056C464.93 133.056 465.611 133.168 466.433 133.392C467.273 133.597 467.982 133.896 468.561 134.288L467.889 135.884C467.366 135.641 466.862 135.427 466.377 135.24C465.91 135.035 465.229 134.932 464.333 134.932ZM484.075 134.932C482.694 134.932 481.676 135.436 481.023 136.444C480.37 137.433 480.034 138.665 480.015 140.14C480.015 141.671 480.323 142.949 480.939 143.976C481.555 144.984 482.563 145.488 483.963 145.488C484.878 145.488 485.568 145.395 486.035 145.208C486.502 145.021 486.996 144.797 487.519 144.536L488.191 146.16C487.612 146.533 486.912 146.823 486.091 147.028C485.27 147.252 484.57 147.364 483.991 147.364C481.938 147.364 480.379 146.692 479.315 145.348C478.27 144.004 477.747 142.277 477.747 140.168C477.766 138.096 478.316 136.397 479.399 135.072C480.5 133.728 482.078 133.056 484.131 133.056C484.672 133.056 485.354 133.168 486.175 133.392C487.015 133.597 487.724 133.896 488.303 134.288L487.631 135.884C487.108 135.641 486.604 135.427 486.119 135.24C485.652 135.035 484.971 134.932 484.075 134.932ZM493.952 135.212C494.531 134.596 495.249 134.083 496.108 133.672C496.967 133.243 497.788 133.028 498.572 133.028C500.14 133.028 501.288 133.485 502.016 134.4C502.763 135.296 503.136 136.425 503.136 137.788V146.972H500.924V138.096C500.924 137.181 500.7 136.425 500.252 135.828C499.823 135.231 499.132 134.923 498.18 134.904C497.601 134.904 496.901 135.1 496.08 135.492C495.259 135.884 494.549 136.425 493.952 137.116V147H491.74V127.512L493.952 127.232V135.212ZM508.64 143.136C508.64 143.715 508.836 144.265 509.228 144.788C509.639 145.311 510.292 145.572 511.188 145.572C511.972 145.572 512.691 145.376 513.344 144.984C513.997 144.592 514.557 144.125 515.024 143.584V140.476H511.44C510.525 140.476 509.825 140.747 509.34 141.288C508.873 141.811 508.64 142.427 508.64 143.136ZM507.464 134.26C507.987 133.905 508.724 133.616 509.676 133.392C510.628 133.168 511.384 133.056 511.944 133.056C513.512 133.056 514.781 133.485 515.752 134.344C516.741 135.184 517.236 136.285 517.236 137.648V147H515.892L515.304 145.628C514.837 146.057 514.231 146.449 513.484 146.804C512.737 147.159 511.991 147.336 511.244 147.336C509.676 147.336 508.509 146.944 507.744 146.16C506.979 145.357 506.596 144.349 506.596 143.136C506.596 141.792 507.044 140.775 507.94 140.084C508.855 139.375 510.04 139.02 511.496 139.02H514.996C514.996 137.9 514.819 136.948 514.464 136.164C514.109 135.38 513.297 134.988 512.028 134.988C511.113 134.988 510.357 135.091 509.76 135.296C509.163 135.501 508.612 135.716 508.108 135.94C508.015 135.66 507.912 135.38 507.8 135.1C507.688 134.82 507.576 134.54 507.464 134.26ZM521.461 147V133.42H522.805L523.477 135.324C523.981 134.895 524.625 134.475 525.409 134.064C526.212 133.635 526.977 133.42 527.705 133.42C527.78 133.719 527.864 134.017 527.957 134.316C528.051 134.596 528.144 134.885 528.237 135.184C527.435 135.184 526.623 135.408 525.801 135.856C524.98 136.285 524.271 136.799 523.673 137.396V147H521.461ZM541.148 135.24C541.726 134.624 542.454 134.101 543.332 133.672C544.209 133.243 545.049 133.028 545.852 133.028C547.42 133.028 548.577 133.485 549.324 134.4C550.07 135.296 550.444 136.425 550.444 137.788V146.972H548.204V138.096C548.204 137.181 547.98 136.425 547.532 135.828C547.084 135.231 546.393 134.923 545.46 134.904C544.862 134.904 544.218 135.072 543.528 135.408C542.856 135.744 542.221 136.22 541.624 136.836C541.642 137.004 541.652 137.172 541.652 137.34C541.67 137.489 541.68 137.639 541.68 137.788V146.972H539.44V138.096C539.44 137.181 539.216 136.425 538.768 135.828C538.338 135.231 537.666 134.923 536.752 134.904C536.136 134.904 535.492 135.072 534.82 135.408C534.148 135.725 533.513 136.201 532.916 136.836V147H530.704V133.42H532.048L532.692 134.96C533.289 134.4 533.989 133.943 534.792 133.588C535.594 133.215 536.369 133.028 537.116 133.028C538.124 133.028 538.964 133.233 539.636 133.644C540.326 134.036 540.83 134.568 541.148 135.24ZM571.718 135.24C572.297 134.624 573.025 134.101 573.902 133.672C574.779 133.243 575.619 133.028 576.422 133.028C577.99 133.028 579.147 133.485 579.894 134.4C580.641 135.296 581.014 136.425 581.014 137.788V146.972H578.774V138.096C578.774 137.181 578.55 136.425 578.102 135.828C577.654 135.231 576.963 134.923 576.03 134.904C575.433 134.904 574.789 135.072 574.098 135.408C573.426 135.744 572.791 136.22 572.194 136.836C572.213 137.004 572.222 137.172 572.222 137.34C572.241 137.489 572.25 137.639 572.25 137.788V146.972H570.01V138.096C570.01 137.181 569.786 136.425 569.338 135.828C568.909 135.231 568.237 134.923 567.322 134.904C566.706 134.904 566.062 135.072 565.39 135.408C564.718 135.725 564.083 136.201 563.486 136.836V147H561.274V133.42H562.618L563.262 134.96C563.859 134.4 564.559 133.943 565.362 133.588C566.165 133.215 566.939 133.028 567.686 133.028C568.694 133.028 569.534 133.233 570.206 133.644C570.897 134.036 571.401 134.568 571.718 135.24ZM596.567 140.56H586.711C586.767 141.997 587.15 143.192 587.859 144.144C588.568 145.077 589.688 145.544 591.219 145.544C592.134 145.544 592.871 145.451 593.431 145.264C594.01 145.059 594.56 144.835 595.083 144.592L595.783 146.216C595.204 146.608 594.448 146.888 593.515 147.056C592.582 147.243 591.835 147.336 591.275 147.336C589.016 147.336 587.308 146.673 586.151 145.348C584.994 144.004 584.415 142.277 584.415 140.168C584.434 138.115 584.984 136.416 586.067 135.072C587.168 133.728 588.727 133.056 590.743 133.056C592.852 133.056 594.346 133.803 595.223 135.296C596.119 136.771 596.567 138.525 596.567 140.56ZM594.383 139.048C594.234 137.835 593.87 136.845 593.291 136.08C592.712 135.315 591.835 134.932 590.659 134.932C589.483 134.932 588.568 135.315 587.915 136.08C587.28 136.845 586.898 137.835 586.767 139.048H594.383ZM611.36 140.56H601.504C601.56 141.997 601.943 143.192 602.652 144.144C603.361 145.077 604.481 145.544 606.012 145.544C606.927 145.544 607.664 145.451 608.224 145.264C608.803 145.059 609.353 144.835 609.876 144.592L610.576 146.216C609.997 146.608 609.241 146.888 608.308 147.056C607.375 147.243 606.628 147.336 606.068 147.336C603.809 147.336 602.101 146.673 600.944 145.348C599.787 144.004 599.208 142.277 599.208 140.168C599.227 138.115 599.777 136.416 600.86 135.072C601.961 133.728 603.52 133.056 605.536 133.056C607.645 133.056 609.139 133.803 610.016 135.296C610.912 136.771 611.36 138.525 611.36 140.56ZM609.176 139.048C609.027 137.835 608.663 136.845 608.084 136.08C607.505 135.315 606.628 134.932 605.452 134.932C604.276 134.932 603.361 135.315 602.708 136.08C602.073 136.845 601.691 137.835 601.56 139.048H609.176ZM620.973 146.944C620.768 147.037 620.469 147.14 620.077 147.252C619.704 147.364 619.312 147.42 618.901 147.42C617.744 147.42 616.81 147.084 616.101 146.412C615.41 145.74 615.065 144.76 615.065 143.472V135.324H613.133L613.105 133.644H615.065V130.2L617.305 129.556V133.644H619.769L620.497 135.324H617.305V143.164C617.305 143.855 617.454 144.424 617.753 144.872C618.052 145.301 618.546 145.516 619.237 145.516C619.442 145.516 619.666 145.488 619.909 145.432C620.152 145.357 620.338 145.292 620.469 145.236L620.973 146.944ZM631.646 135.884C631.198 135.66 630.685 135.445 630.106 135.24C629.528 135.035 628.837 134.932 628.034 134.932C627.213 134.932 626.55 135.1 626.046 135.436C625.561 135.772 625.318 136.229 625.318 136.808C625.318 137.331 625.598 137.779 626.158 138.152C626.737 138.507 627.474 138.833 628.37 139.132C629.472 139.524 630.498 140.056 631.45 140.728C632.421 141.4 632.906 142.296 632.906 143.416C632.906 144.648 632.44 145.619 631.506 146.328C630.592 147.019 629.248 147.364 627.474 147.364C626.896 147.364 626.168 147.261 625.29 147.056C624.413 146.869 623.694 146.589 623.134 146.216L623.806 144.536C624.329 144.797 624.908 145.021 625.542 145.208C626.196 145.395 626.849 145.488 627.502 145.488C628.51 145.488 629.294 145.329 629.854 145.012C630.414 144.695 630.694 144.209 630.694 143.556C630.694 142.977 630.386 142.473 629.77 142.044C629.154 141.596 628.389 141.223 627.474 140.924C626.41 140.569 625.402 140.084 624.45 139.468C623.517 138.833 623.05 137.984 623.05 136.92C623.05 135.707 623.498 134.764 624.394 134.092C625.309 133.401 626.541 133.056 628.09 133.056C628.669 133.056 629.388 133.168 630.246 133.392C631.105 133.597 631.796 133.887 632.318 134.26L631.646 135.884ZM653.476 135.24C654.054 134.624 654.782 134.101 655.66 133.672C656.537 133.243 657.377 133.028 658.18 133.028C659.748 133.028 660.905 133.485 661.652 134.4C662.398 135.296 662.772 136.425 662.772 137.788V146.972H660.532V138.096C660.532 137.181 660.308 136.425 659.86 135.828C659.412 135.231 658.721 134.923 657.788 134.904C657.19 134.904 656.546 135.072 655.856 135.408C655.184 135.744 654.549 136.22 653.952 136.836C653.97 137.004 653.98 137.172 653.98 137.34C653.998 137.489 654.008 137.639 654.008 137.788V146.972H651.768V138.096C651.768 137.181 651.544 136.425 651.096 135.828C650.666 135.231 649.994 134.923 649.08 134.904C648.464 134.904 647.82 135.072 647.148 135.408C646.476 135.725 645.841 136.201 645.244 136.836V147H643.032V133.42H644.376L645.02 134.96C645.617 134.4 646.317 133.943 647.12 133.588C647.922 133.215 648.697 133.028 649.444 133.028C650.452 133.028 651.292 133.233 651.964 133.644C652.654 134.036 653.158 134.568 653.476 135.24ZM672.193 147.364C670.195 147.345 668.693 146.664 667.685 145.32C666.677 143.976 666.173 142.249 666.173 140.14C666.191 138.087 666.742 136.397 667.825 135.072C668.907 133.747 670.457 133.075 672.473 133.056C674.526 133.056 676.057 133.737 677.065 135.1C678.091 136.463 678.605 138.199 678.605 140.308C678.586 142.38 678.017 144.079 676.897 145.404C675.777 146.711 674.209 147.364 672.193 147.364ZM676.393 140.308C676.393 138.759 676.094 137.48 675.497 136.472C674.918 135.464 673.929 134.96 672.529 134.96C671.147 134.96 670.121 135.445 669.449 136.416C668.795 137.368 668.459 138.6 668.441 140.112C668.441 141.699 668.721 142.987 669.281 143.976C669.841 144.965 670.821 145.46 672.221 145.46C673.621 145.46 674.657 144.993 675.329 144.06C676.019 143.127 676.374 141.876 676.393 140.308ZM687.676 134.904C686.201 134.904 685.156 135.427 684.54 136.472C683.943 137.499 683.644 138.74 683.644 140.196C683.644 141.708 683.943 142.968 684.54 143.976C685.137 144.965 686.183 145.46 687.676 145.46C688.199 145.46 688.759 145.339 689.356 145.096C689.953 144.835 690.513 144.471 691.036 144.004V136.388C690.513 135.921 689.953 135.557 689.356 135.296C688.759 135.035 688.199 134.904 687.676 134.904ZM693.276 127.26V147H691.96L691.372 145.768C690.793 146.235 690.131 146.617 689.384 146.916C688.656 147.215 687.956 147.364 687.284 147.364C685.305 147.364 683.821 146.692 682.832 145.348C681.861 143.985 681.376 142.277 681.376 140.224C681.376 138.133 681.871 136.416 682.86 135.072C683.868 133.709 685.361 133.028 687.34 133.028C687.919 133.028 688.544 133.159 689.216 133.42C689.888 133.663 690.495 133.989 691.036 134.4V127.512L693.276 127.26ZM709.032 140.56H699.176C699.232 141.997 699.614 143.192 700.324 144.144C701.033 145.077 702.153 145.544 703.684 145.544C704.598 145.544 705.336 145.451 705.896 145.264C706.474 145.059 707.025 144.835 707.548 144.592L708.248 146.216C707.669 146.608 706.913 146.888 705.98 147.056C705.046 147.243 704.3 147.336 703.74 147.336C701.481 147.336 699.773 146.673 698.616 145.348C697.458 144.004 696.88 142.277 696.88 140.168C696.898 138.115 697.449 136.416 698.532 135.072C699.633 133.728 701.192 133.056 703.208 133.056C705.317 133.056 706.81 133.803 707.688 135.296C708.584 136.771 709.032 138.525 709.032 140.56ZM706.848 139.048C706.698 137.835 706.334 136.845 705.756 136.08C705.177 135.315 704.3 134.932 703.124 134.932C701.948 134.932 701.033 135.315 700.38 136.08C699.745 136.845 699.362 137.835 699.232 139.048H706.848ZM712.485 147V133.42H713.829L714.501 135.324C715.005 134.895 715.649 134.475 716.433 134.064C717.235 133.635 718.001 133.42 718.729 133.42C718.803 133.719 718.887 134.017 718.981 134.316C719.074 134.596 719.167 134.885 719.261 135.184C718.458 135.184 717.646 135.408 716.825 135.856C716.003 136.285 715.294 136.799 714.697 137.396V147H712.485ZM723.771 135.38C724.35 134.727 725.096 134.176 726.011 133.728C726.926 133.261 727.784 133.028 728.587 133.028C730.136 133.028 731.284 133.485 732.031 134.4C732.778 135.296 733.151 136.425 733.151 137.788V146.972H730.939V138.096C730.939 137.181 730.715 136.425 730.267 135.828C729.819 135.231 729.128 134.923 728.195 134.904C727.616 134.904 726.907 135.1 726.067 135.492C725.246 135.884 724.536 136.425 723.939 137.116V147H721.727V133.42H723.071L723.771 135.38ZM749.473 134.904C747.998 134.904 746.953 135.427 746.337 136.472C745.739 137.499 745.441 138.74 745.441 140.196C745.441 141.708 745.739 142.968 746.337 143.976C746.934 144.965 747.979 145.46 749.473 145.46C749.995 145.46 750.555 145.339 751.153 145.096C751.75 144.835 752.31 144.471 752.833 144.004V136.388C752.31 135.921 751.75 135.557 751.153 135.296C750.555 135.035 749.995 134.904 749.473 134.904ZM755.073 127.26V147H753.757L753.169 145.768C752.59 146.235 751.927 146.617 751.181 146.916C750.453 147.215 749.753 147.364 749.081 147.364C747.102 147.364 745.618 146.692 744.629 145.348C743.658 143.985 743.173 142.277 743.173 140.224C743.173 138.133 743.667 136.416 744.657 135.072C745.665 133.709 747.158 133.028 749.137 133.028C749.715 133.028 750.341 133.159 751.013 133.42C751.685 133.663 752.291 133.989 752.833 134.4V127.512L755.073 127.26ZM770.829 140.56H760.973C761.029 141.997 761.411 143.192 762.121 144.144C762.83 145.077 763.95 145.544 765.481 145.544C766.395 145.544 767.133 145.451 767.693 145.264C768.271 145.059 768.822 144.835 769.345 144.592L770.045 146.216C769.466 146.608 768.71 146.888 767.777 147.056C766.843 147.243 766.097 147.336 765.537 147.336C763.278 147.336 761.57 146.673 760.413 145.348C759.255 144.004 758.677 142.277 758.677 140.168C758.695 138.115 759.246 136.416 760.329 135.072C761.43 133.728 762.989 133.056 765.005 133.056C767.114 133.056 768.607 133.803 769.485 135.296C770.381 136.771 770.829 138.525 770.829 140.56ZM768.645 139.048C768.495 137.835 768.131 136.845 767.553 136.08C766.974 135.315 766.097 134.932 764.921 134.932C763.745 134.932 762.83 135.315 762.177 136.08C761.542 136.845 761.159 137.835 761.029 139.048H768.645ZM782.01 135.884C781.562 135.66 781.048 135.445 780.47 135.24C779.891 135.035 779.2 134.932 778.398 134.932C777.576 134.932 776.914 135.1 776.41 135.436C775.924 135.772 775.682 136.229 775.682 136.808C775.682 137.331 775.962 137.779 776.522 138.152C777.1 138.507 777.838 138.833 778.734 139.132C779.835 139.524 780.862 140.056 781.814 140.728C782.784 141.4 783.27 142.296 783.27 143.416C783.27 144.648 782.803 145.619 781.87 146.328C780.955 147.019 779.611 147.364 777.838 147.364C777.259 147.364 776.531 147.261 775.654 147.056C774.776 146.869 774.058 146.589 773.498 146.216L774.17 144.536C774.692 144.797 775.271 145.021 775.906 145.208C776.559 145.395 777.212 145.488 777.866 145.488C778.874 145.488 779.658 145.329 780.218 145.012C780.778 144.695 781.058 144.209 781.058 143.556C781.058 142.977 780.75 142.473 780.134 142.044C779.518 141.596 778.752 141.223 777.838 140.924C776.774 140.569 775.766 140.084 774.814 139.468C773.88 138.833 773.414 137.984 773.414 136.92C773.414 135.707 773.862 134.764 774.758 134.092C775.672 133.401 776.904 133.056 778.454 133.056C779.032 133.056 779.751 133.168 780.61 133.392C781.468 133.597 782.159 133.887 782.682 134.26L782.01 135.884ZM787.926 130.732C787.496 130.732 787.142 130.592 786.862 130.312C786.582 130.013 786.442 129.649 786.442 129.22C786.423 128.809 786.554 128.464 786.834 128.184C787.132 127.885 787.496 127.736 787.926 127.736C788.336 127.736 788.691 127.885 788.99 128.184C789.307 128.464 789.466 128.809 789.466 129.22C789.466 129.649 789.307 130.013 788.99 130.312C788.691 130.592 788.336 130.732 787.926 130.732ZM786.834 147V133.42H789.074V147H786.834ZM802.298 136.388C801.775 135.921 801.206 135.557 800.59 135.296C799.992 135.035 799.432 134.904 798.91 134.904C797.454 134.904 796.418 135.427 795.802 136.472C795.204 137.499 794.906 138.74 794.906 140.196C794.906 141.708 795.195 142.968 795.774 143.976C796.371 144.984 797.416 145.488 798.91 145.488C799.432 145.488 799.992 145.357 800.59 145.096C801.206 144.835 801.775 144.471 802.298 144.004V136.388ZM804.538 148.092C804.538 149.511 804.043 150.696 803.054 151.648C802.083 152.6 800.627 153.076 798.686 153.076C798.126 153.076 797.37 152.964 796.418 152.74C795.466 152.535 794.7 152.227 794.122 151.816L794.794 150.22C795.354 150.463 795.904 150.696 796.446 150.92C797.006 151.144 797.734 151.256 798.63 151.256C799.75 151.256 800.636 150.985 801.29 150.444C801.962 149.921 802.298 149.128 802.298 148.064V145.992C801.756 146.403 801.14 146.729 800.45 146.972C799.778 147.215 799.143 147.336 798.546 147.336C796.567 147.336 795.083 146.673 794.094 145.348C793.123 144.004 792.638 142.296 792.638 140.224C792.638 138.152 793.132 136.435 794.122 135.072C795.13 133.709 796.623 133.028 798.602 133.028C799.255 133.028 799.946 133.187 800.674 133.504C801.402 133.803 802.055 134.185 802.634 134.652C802.727 134.465 802.82 134.269 802.914 134.064C803.007 133.84 803.1 133.625 803.194 133.42H804.538V148.092ZM810.998 135.38C811.576 134.727 812.323 134.176 813.238 133.728C814.152 133.261 815.011 133.028 815.814 133.028C817.363 133.028 818.511 133.485 819.258 134.4C820.004 135.296 820.378 136.425 820.378 137.788V146.972H818.166V138.096C818.166 137.181 817.942 136.425 817.494 135.828C817.046 135.231 816.355 134.923 815.422 134.904C814.843 134.904 814.134 135.1 813.294 135.492C812.472 135.884 811.763 136.425 811.166 137.116V147H808.954V133.42H810.298L810.998 135.38ZM824.706 144.004C825.135 144.004 825.499 144.163 825.798 144.48C826.097 144.797 826.246 145.217 826.246 145.74C826.246 146.655 825.966 147.551 825.406 148.428C824.865 149.305 824.193 149.949 823.39 150.36L822.802 149.296C823.269 148.979 823.651 148.643 823.95 148.288C824.249 147.933 824.426 147.495 824.482 146.972C824.146 146.953 823.847 146.795 823.586 146.496C823.325 146.197 823.194 145.861 823.194 145.488C823.194 145.096 823.343 144.751 823.642 144.452C823.941 144.153 824.295 144.004 824.706 144.004ZM29.656 178L24.476 164.756L26.716 164.42L30.776 175.004L34.668 164.42H36.88L31.84 178H29.656ZM40.6758 161.732C40.2464 161.732 39.8918 161.592 39.6118 161.312C39.3317 161.013 39.1917 160.649 39.1917 160.22C39.1731 159.809 39.3038 159.464 39.5838 159.184C39.8824 158.885 40.2464 158.736 40.6758 158.736C41.0864 158.736 41.4411 158.885 41.7398 159.184C42.0571 159.464 42.2158 159.809 42.2158 160.22C42.2158 160.649 42.0571 161.013 41.7398 161.312C41.4411 161.592 41.0864 161.732 40.6758 161.732ZM39.5838 178V164.42H41.8238V178H39.5838ZM46.2556 178V158.54L48.4676 158.232V165.4C49.009 164.989 49.6063 164.663 50.2596 164.42C50.913 164.159 51.5383 164.028 52.1356 164.028C54.133 164.028 55.617 164.709 56.5876 166.072C57.5583 167.435 58.0436 169.143 58.0436 171.196C58.0436 173.268 57.549 174.976 56.5596 176.32C55.589 177.664 54.1143 178.336 52.1356 178.336C51.4636 178.336 50.773 178.205 50.0636 177.944C49.3543 177.664 48.701 177.291 48.1036 176.824C48.029 177.011 47.945 177.207 47.8516 177.412C47.7583 177.617 47.665 177.813 47.5716 178H46.2556ZM48.4676 175.06C48.9903 175.527 49.541 175.881 50.1196 176.124C50.717 176.367 51.277 176.488 51.7996 176.488C53.2556 176.488 54.2916 175.975 54.9076 174.948C55.5236 173.921 55.8316 172.68 55.8316 171.224C55.8316 169.712 55.533 168.452 54.9356 167.444C54.3383 166.417 53.293 165.904 51.7996 165.904C51.277 165.904 50.717 166.035 50.1196 166.296C49.541 166.539 48.9903 166.893 48.4676 167.36V175.06ZM61.6488 178V164.42H62.9928L63.6648 166.324C64.1688 165.895 64.8128 165.475 65.5968 165.064C66.3995 164.635 67.1648 164.42 67.8928 164.42C67.9675 164.719 68.0515 165.017 68.1448 165.316C68.2382 165.596 68.3315 165.885 68.4248 166.184C67.6222 166.184 66.8102 166.408 65.9888 166.856C65.1675 167.285 64.4582 167.799 63.8608 168.396V178H61.6488ZM72.179 174.136C72.179 174.715 72.375 175.265 72.767 175.788C73.1777 176.311 73.831 176.572 74.727 176.572C75.511 176.572 76.2297 176.376 76.883 175.984C77.5364 175.592 78.0964 175.125 78.563 174.584V171.476H74.979C74.0644 171.476 73.3644 171.747 72.879 172.288C72.4124 172.811 72.179 173.427 72.179 174.136ZM71.003 165.26C71.5257 164.905 72.263 164.616 73.215 164.392C74.167 164.168 74.923 164.056 75.483 164.056C77.051 164.056 78.3204 164.485 79.291 165.344C80.2804 166.184 80.775 167.285 80.775 168.648V178H79.431L78.843 176.628C78.3764 177.057 77.7697 177.449 77.023 177.804C76.2764 178.159 75.5297 178.336 74.783 178.336C73.215 178.336 72.0484 177.944 71.283 177.16C70.5177 176.357 70.135 175.349 70.135 174.136C70.135 172.792 70.583 171.775 71.479 171.084C72.3937 170.375 73.579 170.02 75.035 170.02H78.535C78.535 168.9 78.3577 167.948 78.003 167.164C77.6484 166.38 76.8364 165.988 75.567 165.988C74.6524 165.988 73.8964 166.091 73.299 166.296C72.7017 166.501 72.151 166.716 71.647 166.94C71.5537 166.66 71.451 166.38 71.339 166.1C71.227 165.82 71.115 165.54 71.003 165.26ZM87.0444 166.38C87.6231 165.727 88.3697 165.176 89.2844 164.728C90.1991 164.261 91.0577 164.028 91.8604 164.028C93.4097 164.028 94.5577 164.485 95.3044 165.4C96.0511 166.296 96.4244 167.425 96.4244 168.788V177.972H94.2124V169.096C94.2124 168.181 93.9884 167.425 93.5404 166.828C93.0924 166.231 92.4017 165.923 91.4684 165.904C90.8897 165.904 90.1804 166.1 89.3404 166.492C88.5191 166.884 87.8097 167.425 87.2124 168.116V178H85.0004V164.42H86.3444L87.0444 166.38ZM106.801 177.944C106.596 178.037 106.297 178.14 105.905 178.252C105.532 178.364 105.14 178.42 104.729 178.42C103.572 178.42 102.638 178.084 101.929 177.412C101.238 176.74 100.893 175.76 100.893 174.472V166.324H98.961L98.933 164.644H100.893V161.2L103.133 160.556V164.644H105.597L106.325 166.324H103.133V174.164C103.133 174.855 103.282 175.424 103.581 175.872C103.88 176.301 104.374 176.516 105.065 176.516C105.27 176.516 105.494 176.488 105.737 176.432C105.98 176.357 106.166 176.292 106.297 176.236L106.801 177.944ZM121.88 165.932C120.498 165.932 119.481 166.436 118.828 167.444C118.174 168.433 117.838 169.665 117.82 171.14C117.82 172.671 118.128 173.949 118.744 174.976C119.36 175.984 120.368 176.488 121.768 176.488C122.682 176.488 123.373 176.395 123.84 176.208C124.306 176.021 124.801 175.797 125.324 175.536L125.996 177.16C125.417 177.533 124.717 177.823 123.896 178.028C123.074 178.252 122.374 178.364 121.796 178.364C119.742 178.364 118.184 177.692 117.12 176.348C116.074 175.004 115.552 173.277 115.552 171.168C115.57 169.096 116.121 167.397 117.204 166.072C118.305 164.728 119.882 164.056 121.936 164.056C122.477 164.056 123.158 164.168 123.98 164.392C124.82 164.597 125.529 164.896 126.108 165.288L125.436 166.884C124.913 166.641 124.409 166.427 123.924 166.24C123.457 166.035 122.776 165.932 121.88 165.932ZM132.205 180.212L133.017 177.916L127.781 164.756L129.965 164.42L134.081 174.92L137.973 164.42H140.185L136.041 175.536L134.193 180.8C133.894 181.659 133.353 182.377 132.569 182.956C131.803 183.553 130.945 183.955 129.993 184.16L129.321 182.564C129.993 182.265 130.581 181.957 131.085 181.64C131.589 181.323 131.962 180.847 132.205 180.212ZM148.348 165.932C146.967 165.932 145.95 166.436 145.296 167.444C144.643 168.433 144.307 169.665 144.288 171.14C144.288 172.671 144.596 173.949 145.212 174.976C145.828 175.984 146.836 176.488 148.236 176.488C149.151 176.488 149.842 176.395 150.308 176.208C150.775 176.021 151.27 175.797 151.792 175.536L152.464 177.16C151.886 177.533 151.186 177.823 150.364 178.028C149.543 178.252 148.843 178.364 148.264 178.364C146.211 178.364 144.652 177.692 143.588 176.348C142.543 175.004 142.02 173.277 142.02 171.168C142.039 169.096 142.59 167.397 143.672 166.072C144.774 164.728 146.351 164.056 148.404 164.056C148.946 164.056 149.627 164.168 150.448 164.392C151.288 164.597 151.998 164.896 152.576 165.288L151.904 166.884C151.382 166.641 150.878 166.427 150.392 166.24C149.926 166.035 149.244 165.932 148.348 165.932ZM156.013 178V158.54L158.225 158.232V178H156.013ZM163.805 161.732C163.375 161.732 163.021 161.592 162.741 161.312C162.461 161.013 162.321 160.649 162.321 160.22C162.302 159.809 162.433 159.464 162.713 159.184C163.011 158.885 163.375 158.736 163.805 158.736C164.215 158.736 164.57 158.885 164.869 159.184C165.186 159.464 165.345 159.809 165.345 160.22C165.345 160.649 165.186 161.013 164.869 161.312C164.57 161.592 164.215 161.732 163.805 161.732ZM162.713 178V164.42H164.953V178H162.713ZM171.373 166.38C171.951 165.727 172.698 165.176 173.613 164.728C174.527 164.261 175.386 164.028 176.189 164.028C177.738 164.028 178.886 164.485 179.633 165.4C180.379 166.296 180.753 167.425 180.753 168.788V177.972H178.541V169.096C178.541 168.181 178.317 167.425 177.869 166.828C177.421 166.231 176.73 165.923 175.797 165.904C175.218 165.904 174.509 166.1 173.669 166.492C172.847 166.884 172.138 167.425 171.541 168.116V178H169.329V164.42H170.673L171.373 166.38ZM193.817 167.388C193.294 166.921 192.725 166.557 192.109 166.296C191.512 166.035 190.952 165.904 190.429 165.904C188.973 165.904 187.937 166.427 187.321 167.472C186.724 168.499 186.425 169.74 186.425 171.196C186.425 172.708 186.714 173.968 187.293 174.976C187.89 175.984 188.936 176.488 190.429 176.488C190.952 176.488 191.512 176.357 192.109 176.096C192.725 175.835 193.294 175.471 193.817 175.004V167.388ZM196.057 179.092C196.057 180.511 195.562 181.696 194.573 182.648C193.602 183.6 192.146 184.076 190.205 184.076C189.645 184.076 188.889 183.964 187.937 183.74C186.985 183.535 186.22 183.227 185.641 182.816L186.313 181.22C186.873 181.463 187.424 181.696 187.965 181.92C188.525 182.144 189.253 182.256 190.149 182.256C191.269 182.256 192.156 181.985 192.809 181.444C193.481 180.921 193.817 180.128 193.817 179.064V176.992C193.276 177.403 192.66 177.729 191.969 177.972C191.297 178.215 190.662 178.336 190.065 178.336C188.086 178.336 186.602 177.673 185.613 176.348C184.642 175.004 184.157 173.296 184.157 171.224C184.157 169.152 184.652 167.435 185.641 166.072C186.649 164.709 188.142 164.028 190.121 164.028C190.774 164.028 191.465 164.187 192.193 164.504C192.921 164.803 193.574 165.185 194.153 165.652C194.246 165.465 194.34 165.269 194.433 165.064C194.526 164.84 194.62 164.625 194.713 164.42H196.057V179.092ZM212.606 165.932C211.225 165.932 210.208 166.436 209.554 167.444C208.901 168.433 208.565 169.665 208.546 171.14C208.546 172.671 208.854 173.949 209.47 174.976C210.086 175.984 211.094 176.488 212.494 176.488C213.409 176.488 214.1 176.395 214.566 176.208C215.033 176.021 215.528 175.797 216.05 175.536L216.722 177.16C216.144 177.533 215.444 177.823 214.622 178.028C213.801 178.252 213.101 178.364 212.522 178.364C210.469 178.364 208.91 177.692 207.846 176.348C206.801 175.004 206.278 173.277 206.278 171.168C206.297 169.096 206.848 167.397 207.93 166.072C209.032 164.728 210.609 164.056 212.662 164.056C213.204 164.056 213.885 164.168 214.706 164.392C215.546 164.597 216.256 164.896 216.834 165.288L216.162 166.884C215.64 166.641 215.136 166.427 214.65 166.24C214.184 166.035 213.502 165.932 212.606 165.932ZM229.007 176.516C228.41 177.057 227.719 177.505 226.935 177.86C226.151 178.215 225.395 178.392 224.667 178.392C223.081 178.392 221.914 177.944 221.167 177.048C220.439 176.133 220.075 174.985 220.075 173.604V164.42H222.287V173.352C222.287 174.267 222.511 175.023 222.959 175.62C223.407 176.217 224.089 176.516 225.003 176.516C225.526 176.516 226.142 176.367 226.851 176.068C227.561 175.769 228.214 175.349 228.811 174.808V164.42H231.023V178H229.651L229.007 176.516ZM235.447 178V158.54L237.659 158.232V178H235.447ZM248.25 177.944C248.045 178.037 247.746 178.14 247.354 178.252C246.981 178.364 246.589 178.42 246.178 178.42C245.021 178.42 244.088 178.084 243.378 177.412C242.688 176.74 242.342 175.76 242.342 174.472V166.324H240.41L240.382 164.644H242.342V161.2L244.582 160.556V164.644H247.046L247.774 166.324H244.582V174.164C244.582 174.855 244.732 175.424 245.03 175.872C245.329 176.301 245.824 176.516 246.514 176.516C246.72 176.516 246.944 176.488 247.186 176.432C247.429 176.357 247.616 176.292 247.746 176.236L248.25 177.944ZM259.988 176.516C259.39 177.057 258.7 177.505 257.916 177.86C257.132 178.215 256.376 178.392 255.648 178.392C254.061 178.392 252.894 177.944 252.148 177.048C251.42 176.133 251.056 174.985 251.056 173.604V164.42H253.268V173.352C253.268 174.267 253.492 175.023 253.94 175.62C254.388 176.217 255.069 176.516 255.984 176.516C256.506 176.516 257.122 176.367 257.832 176.068C258.541 175.769 259.194 175.349 259.792 174.808V164.42H262.004V178H260.632L259.988 176.516ZM266.372 178V164.42H267.716L268.388 166.324C268.892 165.895 269.536 165.475 270.32 165.064C271.122 164.635 271.888 164.42 272.616 164.42C272.69 164.719 272.774 165.017 272.868 165.316C272.961 165.596 273.054 165.885 273.148 166.184C272.345 166.184 271.533 166.408 270.712 166.856C269.89 167.285 269.181 167.799 268.584 168.396V178H266.372ZM286.954 171.56H277.098C277.154 172.997 277.536 174.192 278.246 175.144C278.955 176.077 280.075 176.544 281.606 176.544C282.52 176.544 283.258 176.451 283.818 176.264C284.396 176.059 284.947 175.835 285.47 175.592L286.17 177.216C285.591 177.608 284.835 177.888 283.902 178.056C282.968 178.243 282.222 178.336 281.662 178.336C279.403 178.336 277.695 177.673 276.538 176.348C275.38 175.004 274.802 173.277 274.802 171.168C274.82 169.115 275.371 167.416 276.454 166.072C277.555 164.728 279.114 164.056 281.13 164.056C283.239 164.056 284.732 164.803 285.61 166.296C286.506 167.771 286.954 169.525 286.954 171.56ZM284.77 170.048C284.62 168.835 284.256 167.845 283.678 167.08C283.099 166.315 282.222 165.932 281.046 165.932C279.87 165.932 278.955 166.315 278.302 167.08C277.667 167.845 277.284 168.835 277.154 170.048H284.77ZM298.312 174.136C298.312 174.715 298.508 175.265 298.9 175.788C299.311 176.311 299.964 176.572 300.86 176.572C301.644 176.572 302.363 176.376 303.016 175.984C303.669 175.592 304.229 175.125 304.696 174.584V171.476H301.112C300.197 171.476 299.497 171.747 299.012 172.288C298.545 172.811 298.312 173.427 298.312 174.136ZM297.136 165.26C297.659 164.905 298.396 164.616 299.348 164.392C300.3 164.168 301.056 164.056 301.616 164.056C303.184 164.056 304.453 164.485 305.424 165.344C306.413 166.184 306.908 167.285 306.908 168.648V178H305.564L304.976 176.628C304.509 177.057 303.903 177.449 303.156 177.804C302.409 178.159 301.663 178.336 300.916 178.336C299.348 178.336 298.181 177.944 297.416 177.16C296.651 176.357 296.268 175.349 296.268 174.136C296.268 172.792 296.716 171.775 297.612 171.084C298.527 170.375 299.712 170.02 301.168 170.02H304.668C304.668 168.9 304.491 167.948 304.136 167.164C303.781 166.38 302.969 165.988 301.7 165.988C300.785 165.988 300.029 166.091 299.432 166.296C298.835 166.501 298.284 166.716 297.78 166.94C297.687 166.66 297.584 166.38 297.472 166.1C297.36 165.82 297.248 165.54 297.136 165.26ZM313.177 166.38C313.756 165.727 314.503 165.176 315.417 164.728C316.332 164.261 317.191 164.028 317.993 164.028C319.543 164.028 320.691 164.485 321.437 165.4C322.184 166.296 322.557 167.425 322.557 168.788V177.972H320.345V169.096C320.345 168.181 320.121 167.425 319.673 166.828C319.225 166.231 318.535 165.923 317.601 165.904C317.023 165.904 316.313 166.1 315.473 166.492C314.652 166.884 313.943 167.425 313.345 168.116V178H311.133V164.42H312.477L313.177 166.38ZM332.262 165.904C330.787 165.904 329.742 166.427 329.126 167.472C328.529 168.499 328.23 169.74 328.23 171.196C328.23 172.708 328.529 173.968 329.126 174.976C329.723 175.965 330.769 176.46 332.262 176.46C332.785 176.46 333.345 176.339 333.942 176.096C334.539 175.835 335.099 175.471 335.622 175.004V167.388C335.099 166.921 334.539 166.557 333.942 166.296C333.345 166.035 332.785 165.904 332.262 165.904ZM337.862 158.26V178H336.546L335.958 176.768C335.379 177.235 334.717 177.617 333.97 177.916C333.242 178.215 332.542 178.364 331.87 178.364C329.891 178.364 328.407 177.692 327.418 176.348C326.447 174.985 325.962 173.277 325.962 171.224C325.962 169.133 326.457 167.416 327.446 166.072C328.454 164.709 329.947 164.028 331.926 164.028C332.505 164.028 333.13 164.159 333.802 164.42C334.474 164.663 335.081 164.989 335.622 165.4V158.512L337.862 158.26ZM360.739 178L357.211 167.668L353.935 178H351.751L347.187 164.756L349.427 164.42L352.871 174.836L356.147 164.42H358.387L361.831 174.836L365.107 164.42H367.347L362.923 178H360.739ZM371.265 174.136C371.265 174.715 371.461 175.265 371.853 175.788C372.264 176.311 372.917 176.572 373.813 176.572C374.597 176.572 375.316 176.376 375.969 175.984C376.622 175.592 377.182 175.125 377.649 174.584V171.476H374.065C373.15 171.476 372.45 171.747 371.965 172.288C371.498 172.811 371.265 173.427 371.265 174.136ZM370.089 165.26C370.612 164.905 371.349 164.616 372.301 164.392C373.253 164.168 374.009 164.056 374.569 164.056C376.137 164.056 377.406 164.485 378.377 165.344C379.366 166.184 379.861 167.285 379.861 168.648V178H378.517L377.929 176.628C377.462 177.057 376.856 177.449 376.109 177.804C375.362 178.159 374.616 178.336 373.869 178.336C372.301 178.336 371.134 177.944 370.369 177.16C369.604 176.357 369.221 175.349 369.221 174.136C369.221 172.792 369.669 171.775 370.565 171.084C371.48 170.375 372.665 170.02 374.121 170.02H377.621C377.621 168.9 377.444 167.948 377.089 167.164C376.734 166.38 375.922 165.988 374.653 165.988C373.738 165.988 372.982 166.091 372.385 166.296C371.788 166.501 371.237 166.716 370.733 166.94C370.64 166.66 370.537 166.38 370.425 166.1C370.313 165.82 370.201 165.54 370.089 165.26ZM390.246 177.944C390.041 178.037 389.742 178.14 389.35 178.252C388.977 178.364 388.585 178.42 388.174 178.42C387.017 178.42 386.084 178.084 385.374 177.412C384.684 176.74 384.338 175.76 384.338 174.472V166.324H382.406L382.378 164.644H384.338V161.2L386.578 160.556V164.644H389.042L389.77 166.324H386.578V174.164C386.578 174.855 386.728 175.424 387.026 175.872C387.325 176.301 387.82 176.516 388.51 176.516C388.716 176.516 388.94 176.488 389.182 176.432C389.425 176.357 389.612 176.292 389.742 176.236L390.246 177.944ZM404.532 171.56H394.676C394.732 172.997 395.114 174.192 395.824 175.144C396.533 176.077 397.653 176.544 399.184 176.544C400.098 176.544 400.836 176.451 401.396 176.264C401.974 176.059 402.525 175.835 403.048 175.592L403.748 177.216C403.169 177.608 402.413 177.888 401.48 178.056C400.546 178.243 399.8 178.336 399.24 178.336C396.981 178.336 395.273 177.673 394.116 176.348C392.958 175.004 392.38 173.277 392.38 171.168C392.398 169.115 392.949 167.416 394.032 166.072C395.133 164.728 396.692 164.056 398.708 164.056C400.817 164.056 402.31 164.803 403.188 166.296C404.084 167.771 404.532 169.525 404.532 171.56ZM402.348 170.048C402.198 168.835 401.834 167.845 401.256 167.08C400.677 166.315 399.8 165.932 398.624 165.932C397.448 165.932 396.533 166.315 395.88 167.08C395.245 167.845 394.862 168.835 394.732 170.048H402.348ZM407.985 178V164.42H409.329L410.001 166.324C410.505 165.895 411.149 165.475 411.933 165.064C412.735 164.635 413.501 164.42 414.229 164.42C414.303 164.719 414.387 165.017 414.481 165.316C414.574 165.596 414.667 165.885 414.761 166.184C413.958 166.184 413.146 166.408 412.325 166.856C411.503 167.285 410.794 167.799 410.197 168.396V178H407.985ZM417.591 162.544C417.591 161.256 417.927 160.239 418.599 159.492C419.271 158.727 420.195 158.344 421.371 158.344C421.763 158.344 422.155 158.4 422.547 158.512C422.939 158.624 423.238 158.736 423.443 158.848L422.939 160.612C422.79 160.537 422.594 160.472 422.351 160.416C422.108 160.36 421.894 160.332 421.707 160.332C421.016 160.332 420.522 160.547 420.223 160.976C419.943 161.405 419.803 161.965 419.803 162.656V164.7H422.295L423.023 166.408H419.803V178H417.591V166.408H415.547L415.519 164.7H417.591V162.544ZM425.868 178V164.42H427.212L427.884 166.324C428.388 165.895 429.032 165.475 429.816 165.064C430.618 164.635 431.384 164.42 432.112 164.42C432.186 164.719 432.27 165.017 432.364 165.316C432.457 165.596 432.55 165.885 432.644 166.184C431.841 166.184 431.029 166.408 430.208 166.856C429.386 167.285 428.677 167.799 428.08 168.396V178H425.868ZM440.318 178.364C438.32 178.345 436.818 177.664 435.81 176.32C434.802 174.976 434.298 173.249 434.298 171.14C434.316 169.087 434.867 167.397 435.95 166.072C437.032 164.747 438.582 164.075 440.598 164.056C442.651 164.056 444.182 164.737 445.19 166.1C446.216 167.463 446.73 169.199 446.73 171.308C446.711 173.38 446.142 175.079 445.022 176.404C443.902 177.711 442.334 178.364 440.318 178.364ZM444.518 171.308C444.518 169.759 444.219 168.48 443.622 167.472C443.043 166.464 442.054 165.96 440.654 165.96C439.272 165.96 438.246 166.445 437.574 167.416C436.92 168.368 436.584 169.6 436.566 171.112C436.566 172.699 436.846 173.987 437.406 174.976C437.966 175.965 438.946 176.46 440.346 176.46C441.746 176.46 442.782 175.993 443.454 175.06C444.144 174.127 444.499 172.876 444.518 171.308ZM452.357 166.38C452.936 165.727 453.682 165.176 454.597 164.728C455.512 164.261 456.37 164.028 457.173 164.028C458.722 164.028 459.87 164.485 460.617 165.4C461.364 166.296 461.737 167.425 461.737 168.788V177.972H459.525V169.096C459.525 168.181 459.301 167.425 458.853 166.828C458.405 166.231 457.714 165.923 456.781 165.904C456.202 165.904 455.493 166.1 454.653 166.492C453.832 166.884 453.122 167.425 452.525 168.116V178H450.313V164.42H451.657L452.357 166.38ZM472.114 177.944C471.908 178.037 471.61 178.14 471.218 178.252C470.844 178.364 470.452 178.42 470.042 178.42C468.884 178.42 467.951 178.084 467.242 177.412C466.551 176.74 466.206 175.76 466.206 174.472V166.324H464.274L464.246 164.644H466.206V161.2L468.446 160.556V164.644H470.91L471.638 166.324H468.446V174.164C468.446 174.855 468.595 175.424 468.894 175.872C469.192 176.301 469.687 176.516 470.378 176.516C470.583 176.516 470.807 176.488 471.05 176.432C471.292 176.357 471.479 176.292 471.61 176.236L472.114 177.944ZM481.732 178V158.54L483.944 158.232V178H481.732ZM489.523 161.732C489.094 161.732 488.739 161.592 488.459 161.312C488.179 161.013 488.039 160.649 488.039 160.22C488.021 159.809 488.151 159.464 488.431 159.184C488.73 158.885 489.094 158.736 489.523 158.736C489.934 158.736 490.289 158.885 490.587 159.184C490.905 159.464 491.063 159.809 491.063 160.22C491.063 160.649 490.905 161.013 490.587 161.312C490.289 161.592 489.934 161.732 489.523 161.732ZM488.431 178V164.42H490.671V178H488.431ZM498.519 178L493.339 164.756L495.579 164.42L499.639 175.004L503.531 164.42H505.743L500.703 178H498.519ZM509.539 161.732C509.11 161.732 508.755 161.592 508.475 161.312C508.195 161.013 508.055 160.649 508.055 160.22C508.036 159.809 508.167 159.464 508.447 159.184C508.746 158.885 509.11 158.736 509.539 158.736C509.95 158.736 510.304 158.885 510.603 159.184C510.92 159.464 511.079 159.809 511.079 160.22C511.079 160.649 510.92 161.013 510.603 161.312C510.304 161.592 509.95 161.732 509.539 161.732ZM508.447 178V164.42H510.687V178H508.447ZM517.107 166.38C517.686 165.727 518.432 165.176 519.347 164.728C520.262 164.261 521.12 164.028 521.923 164.028C523.472 164.028 524.62 164.485 525.367 165.4C526.114 166.296 526.487 167.425 526.487 168.788V177.972H524.275V169.096C524.275 168.181 524.051 167.425 523.603 166.828C523.155 166.231 522.464 165.923 521.531 165.904C520.952 165.904 520.243 166.1 519.403 166.492C518.582 166.884 517.872 167.425 517.275 168.116V178H515.063V164.42H516.407L517.107 166.38ZM539.552 167.388C539.029 166.921 538.46 166.557 537.844 166.296C537.246 166.035 536.686 165.904 536.164 165.904C534.708 165.904 533.672 166.427 533.056 167.472C532.458 168.499 532.16 169.74 532.16 171.196C532.16 172.708 532.449 173.968 533.028 174.976C533.625 175.984 534.67 176.488 536.164 176.488C536.686 176.488 537.246 176.357 537.844 176.096C538.46 175.835 539.029 175.471 539.552 175.004V167.388ZM541.792 179.092C541.792 180.511 541.297 181.696 540.308 182.648C539.337 183.6 537.881 184.076 535.94 184.076C535.38 184.076 534.624 183.964 533.672 183.74C532.72 183.535 531.954 183.227 531.376 182.816L532.048 181.22C532.608 181.463 533.158 181.696 533.7 181.92C534.26 182.144 534.988 182.256 535.884 182.256C537.004 182.256 537.89 181.985 538.544 181.444C539.216 180.921 539.552 180.128 539.552 179.064V176.992C539.01 177.403 538.394 177.729 537.704 177.972C537.032 178.215 536.397 178.336 535.8 178.336C533.821 178.336 532.337 177.673 531.348 176.348C530.377 175.004 529.892 173.296 529.892 171.224C529.892 169.152 530.386 167.435 531.376 166.072C532.384 164.709 533.877 164.028 535.856 164.028C536.509 164.028 537.2 164.187 537.928 164.504C538.656 164.803 539.309 165.185 539.888 165.652C539.981 165.465 540.074 165.269 540.168 165.064C540.261 164.84 540.354 164.625 540.448 164.42H541.792V179.092ZM545.955 175.004C546.366 175.004 546.711 175.153 546.991 175.452C547.29 175.732 547.439 176.077 547.439 176.488C547.439 176.917 547.29 177.281 546.991 177.58C546.711 177.86 546.366 178 545.955 178C545.526 178 545.162 177.86 544.863 177.58C544.565 177.281 544.415 176.917 544.415 176.488C544.415 176.077 544.565 175.732 544.863 175.452C545.162 175.153 545.526 175.004 545.955 175.004Z" fill="white"/>
</svg>
